<svg width="193" height="64" viewBox="0 0 193 64" fill="none" xmlns="http://www.w3.org/2000/svg">
<path d="M74.1465 0.246094H85.2623V1.41532H80.3762V14.3999H79.0326V1.41532H74.1465V0.246094Z" fill="white"/>
<path d="M86.6064 0.246094H87.9501V6.39994H96.3175V0.246094H97.6612V14.3999H96.3175V7.50763H87.9501V14.3384H86.6064V0.246094Z" fill="white"/>
<path d="M100.471 0.246094H110.182V1.41532H101.814V6.52302H109.632V7.69225H101.814V13.2922H110.304V14.4615H100.532V0.246094H100.471Z" fill="white"/>
<path d="M74.1465 49.5386H83.0636V50.7078H75.4902V55.8155H82.2085V56.9847H75.4902V63.754H74.1465V49.5386V49.5386Z" fill="white"/>
<path d="M90.5762 49.231C94.9737 49.231 97.1724 52.7386 97.1724 56.6156C97.1724 60.4925 94.9737 64.0002 90.5762 64.0002C86.1788 64.0002 83.9189 60.4925 83.9189 56.6156C83.98 52.7386 86.1788 49.231 90.5762 49.231ZM90.5762 62.831C94.3019 62.831 95.8288 59.6925 95.8288 56.6156C95.8288 53.5386 94.2408 50.4002 90.5762 50.4002C86.8506 50.4002 85.2626 53.5386 85.2626 56.6156C85.3237 59.6925 86.9117 62.831 90.5762 62.831Z" fill="white"/>
<path d="M99.1875 49.5386H100.531V58.277C100.531 61.5386 102.058 62.8309 104.623 62.8309C107.25 62.8309 108.776 61.5386 108.776 58.277V49.5386H110.12V58.5847C110.12 61.477 108.593 64.0001 104.623 64.0001C100.775 64.0001 99.1875 61.5386 99.1875 58.5847V49.5386V49.5386Z" fill="white"/>
<path d="M112.746 49.5386H114.212L122.396 61.5386H122.457V49.5386H123.801V63.6924H122.335L114.151 51.6924H114.09V63.6924H112.746V49.5386V49.5386Z" fill="white"/>
<path d="M126.61 49.5386H131.496C135.772 49.6617 137.97 51.9386 137.97 56.6155C137.97 61.2924 135.772 63.5693 131.496 63.6924H126.61V49.5386ZM127.954 62.5232H130.825C134.856 62.5232 136.627 60.8617 136.627 56.6155C136.627 52.3693 134.856 50.7078 130.825 50.7078H127.954V62.5232Z" fill="white"/>
<path d="M144.201 49.5386H145.666L151.163 63.6924H149.697L147.987 59.2617H141.696L139.986 63.6924H138.521L144.201 49.5386ZM142.124 58.154H147.682L144.995 50.8924L142.124 58.154Z" fill="white"/>
<path d="M149.637 49.5386H160.753V50.7078H155.866V63.6924H154.523V50.6463H149.637V49.5386Z" fill="white"/>
<path d="M162.218 49.5386H163.561V63.6924H162.218V49.5386Z" fill="white"/>
<path d="M172.357 49.231C176.754 49.231 178.953 52.7386 178.953 56.6156C178.953 60.4925 176.754 64.0002 172.357 64.0002C167.959 64.0002 165.699 60.4925 165.699 56.6156C165.76 52.7386 167.959 49.231 172.357 49.231ZM172.357 62.831C176.082 62.831 177.609 59.6925 177.609 56.6156C177.609 53.5386 176.021 50.4002 172.357 50.4002C168.631 50.4002 167.043 53.5386 167.043 56.6156C167.043 59.6925 168.631 62.831 172.357 62.831Z" fill="white"/>
<path d="M181.029 49.5386H182.495L190.679 61.5386H190.74V49.5386H192.084V63.6924H190.618L182.434 51.6924H182.373V63.6924H181.029V49.5386Z" fill="white"/>
<path d="M74.1465 18.5845H81.9031V37.4152H93.019V43.8768H74.1465V18.5845V18.5845Z" fill="white"/>
<path d="M98.0879 18.5845H105.845V43.9383H98.0879V18.5845Z" fill="white"/>
<path d="M111.586 18.5845H119.526L126.855 32.1229H126.916V18.5845H134.245V43.9383H126.733L119.037 30.0922H118.976V43.9383H111.647V18.5845H111.586Z" fill="white"/>
<path d="M162.828 34.1537C162.828 41.2306 159.103 44.5537 151.407 44.5537C143.65 44.5537 139.925 41.2306 139.925 34.1537V18.5845H147.681V32.3691C147.681 34.8922 147.62 38.2152 151.468 38.2152C155.133 38.2152 155.133 34.9537 155.133 32.3691V18.5845H162.889V34.1537H162.828Z" fill="white"/>
<path d="M175.166 30.4614L166.92 18.5845H176.021L179.808 25.4768L183.533 18.5845H192.145L184.083 30.5229L193 43.9383H183.655L179.38 36.3691L174.921 43.9383H166.065L175.166 30.4614Z" fill="white"/>
<path opacity="0.8" d="M12.6427 50.954V25.4771H0V63.6924H37.9282V50.954H12.6427Z" fill="white"/>
<path d="M63.2136 0H0V19.0769H12.6427V12.8H50.5709V50.9538H44.219V63.6923H63.2136V0Z" fill="white"/>
</svg>
