<svg width="282" height="93" viewBox="0 0 282 93" fill="none" xmlns="http://www.w3.org/2000/svg">
<path d="M108.338 0.35791H124.58V2.05695H117.44V20.9252H115.477V2.05695H108.338V0.35791Z" fill="white"/>
<path d="M126.543 0.35791H128.506V9.30022H140.732V0.35791H142.695V20.9252H140.732V10.9098H128.506V20.8358H126.543V0.35791Z" fill="white"/>
<path d="M146.801 0.35791H160.99V2.05695H148.764V9.47906H160.187V11.1781H148.764V19.3156H161.169V21.0146H146.89V0.35791H146.801Z" fill="white"/>
<path d="M108.338 71.9858H121.367V73.6849H110.301V81.107H120.118V82.806H110.301V92.6426H108.338V71.9858Z" fill="white"/>
<path d="M132.343 71.5386C138.769 71.5386 141.981 76.6357 141.981 82.2693C141.981 87.903 138.769 93.0001 132.343 93.0001C125.918 93.0001 122.616 87.903 122.616 82.2693C122.705 76.6357 125.918 71.5386 132.343 71.5386ZM132.343 91.3011C137.787 91.3011 140.018 86.7405 140.018 82.2693C140.018 77.7982 137.698 73.2376 132.343 73.2376C126.9 73.2376 124.58 77.7982 124.58 82.2693C124.669 86.7405 126.989 91.3011 132.343 91.3011Z" fill="white"/>
<path d="M144.927 71.9858H146.89V84.6839C146.89 89.4233 149.121 91.3012 152.869 91.3012C156.707 91.3012 158.938 89.4233 158.938 84.6839V71.9858H160.901V85.131C160.901 89.3339 158.67 93.0003 152.869 93.0003C147.247 93.0003 144.927 89.4233 144.927 85.131V71.9858Z" fill="white"/>
<path d="M164.738 71.9858H166.88L178.838 89.4233H178.928V71.9858H180.891V92.5531H178.749L166.791 75.1156H166.702V92.5531H164.738V71.9858Z" fill="white"/>
<path d="M184.995 71.9858H192.134C198.381 72.1647 201.594 75.4733 201.594 82.2695C201.594 89.0656 198.381 92.3743 192.134 92.5531H184.995V71.9858ZM186.958 90.8541H191.153C197.043 90.8541 199.631 88.4397 199.631 82.2695C199.631 76.0993 197.043 73.6849 191.153 73.6849H186.958V90.8541Z" fill="white"/>
<path d="M210.697 71.9858H212.839L220.87 92.5531H218.728L216.23 86.1147H207.038L204.539 92.5531H202.397L210.697 71.9858ZM207.663 84.5051H215.784L211.857 73.9531L207.663 84.5051Z" fill="white"/>
<path d="M218.639 71.9858H234.88V73.6849H227.741V92.5531H225.778V73.5955H218.639V71.9858Z" fill="white"/>
<path d="M237.022 71.9858H238.986V92.5531H237.022V71.9858Z" fill="white"/>
<path d="M251.837 71.5386C258.262 71.5386 261.475 76.6357 261.475 82.2693C261.475 87.903 258.262 93.0001 251.837 93.0001C245.411 93.0001 242.109 87.903 242.109 82.2693C242.199 76.6357 245.411 71.5386 251.837 71.5386ZM251.837 91.3011C257.28 91.3011 259.511 86.7405 259.511 82.2693C259.511 77.7982 257.191 73.2376 251.837 73.2376C246.393 73.2376 244.073 77.7982 244.073 82.2693C244.073 86.7405 246.393 91.3011 251.837 91.3011Z" fill="white"/>
<path d="M264.509 71.9858H266.651L278.609 89.4233H278.698V71.9858H280.661V92.5531H278.52L266.561 75.1156H266.472V92.5531H264.509V71.9858Z" fill="white"/>
<path d="M108.338 27.0059H119.671V54.3693H135.913V63.7587H108.338V27.0059Z" fill="white"/>
<path d="M143.32 27.0059H154.654V63.8482H143.32V27.0059Z" fill="white"/>
<path d="M163.042 27.0059H174.643L185.352 46.6789H185.441V27.0059H196.15V63.8482H185.174L173.929 43.728H173.84V63.8482H163.131V27.0059H163.042Z" fill="white"/>
<path d="M237.915 49.6299C237.915 59.9135 232.472 64.7424 221.227 64.7424C209.894 64.7424 204.45 59.9135 204.45 49.6299V27.0059H215.784V47.0366C215.784 50.703 215.694 55.5318 221.317 55.5318C226.671 55.5318 226.671 50.7924 226.671 47.0366V27.0059H238.005V49.6299H237.915Z" fill="white"/>
<path d="M255.941 44.2645L243.894 27.0059H257.191L262.724 37.0212L268.167 27.0059H280.75L268.97 44.3539L282 63.8482H268.346L262.099 52.8491L255.584 63.8482H242.645L255.941 44.2645Z" fill="white"/>
<path opacity="0.8" d="M18.4728 74.0422V37.021H0V92.5527H55.4184V74.0422H18.4728Z" fill="white"/>
<path d="M92.3639 0H0V27.7212H18.4728V18.6H73.8911V74.0423H64.6101V92.5529H92.3639V0Z" fill="white"/>
</svg>
