<svg width="150" height="73" viewBox="0 0 150 73" fill="none" xmlns="http://www.w3.org/2000/svg">
<path d="M13.5648 63.3394L4.70959 54.4918L21.8328 37.3829L25.1381 34.0803L21.8327 30.7777L4.70954 13.6691L13.5647 4.82139L30.6934 21.9357L33.9932 25.2327L37.293 21.9357L54.4217 4.82126L63.277 13.669L46.1539 30.7777L42.8486 34.0803L46.1539 37.3829L63.2768 54.4917L54.4219 63.3392L37.2932 46.225L33.9933 42.928L30.6935 46.225L13.5648 63.3394ZM145.331 36.5C145.331 54.0763 131.07 68.3314 113.469 68.3314C95.8684 68.3314 81.6069 54.0763 81.6069 36.5C81.6069 18.9237 95.8684 4.66862 113.469 4.66862C131.07 4.66862 145.331 18.9237 145.331 36.5ZM113.47 51.5973C121.809 51.5973 128.576 44.8418 128.576 36.5001C128.576 28.1584 121.809 21.4029 113.47 21.4029C105.131 21.4029 98.3642 28.1584 98.3642 36.5001C98.3642 44.8418 105.131 51.5973 113.47 51.5973Z" fill="#0EB29F" stroke="#0E9384" stroke-width="9.33725"/>
</svg>
