<svg width="122" height="61" viewBox="0 0 122 61" fill="none" xmlns="http://www.w3.org/2000/svg">
<path d="M12.8497 56.4822C11.8735 56.4822 10.9559 56.1022 10.2658 55.4123L3.06958 48.2162C2.06006 47.2067 1.73085 45.6892 2.23086 44.3502C2.41305 43.8595 2.69501 43.4195 3.06753 43.0461L16.8263 29.2872L3.06958 15.5306C2.69484 15.1551 2.41258 14.7145 2.2291 14.2195C1.73098 12.885 2.06026 11.3677 3.06959 10.3583L10.2656 3.16232C10.9558 2.47227 11.8735 2.09234 12.8497 2.09234C13.289 2.09234 13.7202 2.17014 14.1313 2.3236C14.6217 2.5053 15.0622 2.78743 15.4359 3.16041L29.1944 16.919L42.951 3.16222C43.3265 2.78748 43.7672 2.5052 44.2624 2.32174C44.6689 2.17006 45.1 2.09229 45.5393 2.09229C46.5155 2.09229 47.4331 2.4722 48.1231 3.16205L55.3193 10.3581C56.3287 11.3675 56.658 12.8849 56.1582 14.2238C55.9767 14.7142 55.6943 15.1551 55.3209 15.529L41.5629 29.2872L55.3192 43.0439C55.6935 43.4184 55.9762 43.8593 56.1599 44.3547C56.658 45.6894 56.3287 47.2068 55.3193 48.2161L48.1234 55.4121C47.4338 56.102 46.516 56.4822 45.5394 56.4822C45.1001 56.4822 44.6689 56.4044 44.2579 56.251C43.7668 56.0688 43.3265 55.7867 42.953 55.4138L29.1946 41.6554L15.438 55.4121C15.0623 55.7869 14.6219 56.069 14.1271 56.2525C13.7202 56.4044 13.289 56.4822 12.8497 56.4822Z" fill="#0EB29F" stroke="#0E9384" stroke-width="3.19995"/>
<mask id="path-2-inside-1_960_695" fill="white">
<path fill-rule="evenodd" clip-rule="evenodd" d="M92.7749 60.4491C108.915 60.4491 121.999 47.3648 121.999 31.2246C121.999 15.0843 108.915 2 92.7749 2C76.6346 2 63.5503 15.0843 63.5503 31.2246C63.5503 47.3648 76.6346 60.4491 92.7749 60.4491ZM92.7756 39.5745C97.3871 39.5745 101.125 35.8361 101.125 31.2246C101.125 26.6131 97.3871 22.8747 92.7756 22.8747C88.1641 22.8747 84.4257 26.6131 84.4257 31.2246C84.4257 35.8361 88.1641 39.5745 92.7756 39.5745Z"/>
</mask>
<path fill-rule="evenodd" clip-rule="evenodd" d="M92.7749 60.4491C108.915 60.4491 121.999 47.3648 121.999 31.2246C121.999 15.0843 108.915 2 92.7749 2C76.6346 2 63.5503 15.0843 63.5503 31.2246C63.5503 47.3648 76.6346 60.4491 92.7749 60.4491ZM92.7756 39.5745C97.3871 39.5745 101.125 35.8361 101.125 31.2246C101.125 26.6131 97.3871 22.8747 92.7756 22.8747C88.1641 22.8747 84.4257 26.6131 84.4257 31.2246C84.4257 35.8361 88.1641 39.5745 92.7756 39.5745Z" fill="#0EB29F"/>
<path d="M118.799 31.2246C118.799 45.5976 107.148 57.2492 92.7749 57.2492V63.6491C110.682 63.6491 125.199 49.1321 125.199 31.2246H118.799ZM92.7749 5.19995C107.148 5.19995 118.799 16.8516 118.799 31.2246H125.199C125.199 13.317 110.682 -1.19995 92.7749 -1.19995V5.19995ZM66.7502 31.2246C66.7502 16.8516 78.4019 5.19995 92.7749 5.19995V-1.19995C74.8673 -1.19995 60.3503 13.317 60.3503 31.2246H66.7502ZM92.7749 57.2492C78.4019 57.2492 66.7502 45.5976 66.7502 31.2246H60.3503C60.3503 49.1321 74.8673 63.6491 92.7749 63.6491V57.2492ZM97.9255 31.2246C97.9255 34.0688 95.6198 36.3745 92.7756 36.3745V42.7744C99.1544 42.7744 104.325 37.6034 104.325 31.2246H97.9255ZM92.7756 26.0747C95.6198 26.0747 97.9255 28.3804 97.9255 31.2246H104.325C104.325 24.8458 99.1544 19.6748 92.7756 19.6748V26.0747ZM87.6257 31.2246C87.6257 28.3804 89.9314 26.0747 92.7756 26.0747V19.6748C86.3968 19.6748 81.2258 24.8458 81.2258 31.2246H87.6257ZM92.7756 36.3745C89.9314 36.3745 87.6257 34.0688 87.6257 31.2246H81.2258C81.2258 37.6034 86.3968 42.7744 92.7756 42.7744V36.3745Z" fill="#0E9384" mask="url(#path-2-inside-1_960_695)"/>
</svg>
