<svg width="46" height="45" viewBox="0 0 46 45" fill="none" xmlns="http://www.w3.org/2000/svg">
<path fill-rule="evenodd" clip-rule="evenodd" d="M22.8521 0C10.2301 0 0 10.3112 0 23.0334C0 33.2084 6.54587 41.8431 15.6281 44.8914C16.7714 45.0993 17.1838 44.3903 17.1838 43.7806C17.1838 43.2333 17.1654 41.783 17.1586 39.864C10.8006 41.2542 9.45794 36.7741 9.45794 36.7741C8.42233 34.1137 6.92162 33.4047 6.92162 33.4047C4.84811 31.9752 7.07971 32.0076 7.07971 32.0076C9.37546 32.1692 10.5783 34.3816 10.5783 34.3816C12.6175 37.901 15.9305 36.8849 17.2273 36.296C17.4358 34.8065 18.0315 33.7904 18.6822 33.2153C13.6095 32.6357 8.2757 30.6589 8.2757 21.8303C8.2757 19.32 9.16696 17.2601 10.6219 15.6528C10.3904 15.0685 9.6 12.7245 10.8487 9.55608C10.8487 9.55608 12.7664 8.93487 17.1311 11.9139C18.9951 11.4028 20.918 11.1419 22.8498 11.138C24.7817 11.1411 26.7046 11.4021 28.5686 11.9139C32.9355 8.93256 34.851 9.55608 34.851 9.55608C36.0996 12.7245 35.3161 15.0685 35.0778 15.6528C36.5441 17.2601 37.4239 19.3177 37.4239 21.8303C37.4239 30.682 32.0855 32.6265 26.9945 33.1969C27.8079 33.9082 28.5411 35.3122 28.5411 37.4599C28.5411 40.5406 28.5136 43.0255 28.5136 43.7806C28.5136 44.3972 28.9214 45.1131 30.0876 44.8868C39.1652 41.8338 45.7042 33.2061 45.7042 23.0334C45.7042 10.3112 35.4742 0 22.8521 0Z" fill="white"/>
</svg>
