<svg width="49" height="51" viewBox="0 0 49 51" fill="none" xmlns="http://www.w3.org/2000/svg">
<ellipse cx="24.6318" cy="26.2221" rx="19.7304" ry="24.2172" fill="white"/>
<path d="M16.3883 39.4542C16.3883 39.6569 16.1611 39.819 15.8746 39.819C15.5486 39.8494 15.3214 39.6873 15.3214 39.4542C15.3214 39.2516 15.5486 39.0895 15.8351 39.0895C16.1315 39.0591 16.3883 39.2212 16.3883 39.4542ZM13.316 38.9983C13.2468 39.2009 13.4444 39.434 13.7408 39.4948C13.9976 39.5961 14.294 39.4948 14.3533 39.2921C14.4125 39.0895 14.2248 38.8564 13.9285 38.7653C13.6716 38.6943 13.3851 38.7956 13.316 38.9983ZM17.6825 38.826C17.396 38.897 17.1984 39.0895 17.2281 39.3225C17.2577 39.5252 17.5145 39.6569 17.8109 39.586C18.0974 39.515 18.295 39.3225 18.2654 39.1199C18.2357 38.9274 17.969 38.7956 17.6825 38.826ZM24.1829 -0.000488281C10.4807 -0.000488281 -0.000976562 10.6687 -0.000976562 24.722C-0.000976562 35.9586 6.89459 45.5741 16.744 48.9582C18.0085 49.1913 18.4531 48.3908 18.4531 47.7322C18.4531 47.104 18.4234 43.6388 18.4234 41.5111C18.4234 41.5111 11.5081 43.0309 10.0559 38.4917C10.0559 38.4917 8.92967 35.5432 7.30951 34.7833C7.30951 34.7833 5.04721 33.1925 7.46757 33.2229C7.46757 33.2229 9.92745 33.4256 11.2809 35.8371C13.4444 39.7481 17.07 38.6234 18.4827 37.9547C18.7099 36.3335 19.352 35.2089 20.0633 34.5401C14.541 33.9119 8.96918 33.0912 8.96918 23.3441C8.96918 20.5577 9.71999 19.1595 11.3006 17.3762C11.0438 16.7176 10.2041 14.0022 11.5575 10.4965C13.6222 9.83786 18.374 13.2321 18.374 13.2321C20.3498 12.6647 22.4738 12.3709 24.5781 12.3709C26.6823 12.3709 28.8063 12.6647 30.7821 13.2321C30.7821 13.2321 35.5339 9.82773 37.5986 10.4965C38.952 14.0123 38.1123 16.7176 37.8555 17.3762C39.4361 19.1696 40.4043 20.5678 40.4043 23.3441C40.4043 33.1216 34.5855 33.9018 29.0631 34.5401C29.972 35.3406 30.7426 36.8604 30.7426 39.2415C30.7426 42.656 30.7129 46.8811 30.7129 47.712C30.7129 48.3706 31.1674 49.171 32.422 48.938C42.301 45.5741 48.999 35.9586 48.999 24.722C48.999 10.6687 37.8851 -0.000488281 24.1829 -0.000488281ZM9.60144 34.9454C9.47302 35.0467 9.50265 35.2798 9.6706 35.4723C9.82866 35.6344 10.0559 35.7053 10.1843 35.5736C10.3127 35.4723 10.2831 35.2393 10.1152 35.0467C9.95709 34.8846 9.72987 34.8137 9.60144 34.9454ZM8.53451 34.1247C8.46535 34.2564 8.56414 34.4185 8.76173 34.5199C8.91979 34.6212 9.11737 34.5908 9.18652 34.4489C9.25568 34.3172 9.15689 34.1551 8.95931 34.0538C8.76173 33.993 8.60366 34.0234 8.53451 34.1247ZM11.7353 37.7318C11.5772 37.8635 11.6365 38.1674 11.8637 38.36C12.091 38.593 12.3775 38.6234 12.5059 38.4613C12.6343 38.3296 12.575 38.0256 12.3775 37.8331C12.1601 37.6 11.8637 37.5697 11.7353 37.7318ZM10.6091 36.2423C10.451 36.3437 10.451 36.6071 10.6091 36.8401C10.7672 37.0732 11.0339 37.1745 11.1623 37.0732C11.3204 36.9415 11.3204 36.678 11.1623 36.445C11.024 36.2119 10.7672 36.1106 10.6091 36.2423Z" fill="#0A0F21"/>
</svg>
