<svg width="628" height="628" viewBox="0 0 628 628" fill="none" xmlns="http://www.w3.org/2000/svg">
<path d="M404.283 192.641L404.556 187.937L400.17 186.215C382.212 179.163 370.064 162.559 370.064 143.618C370.064 118.721 391.737 97.5 419.058 97.5C446.379 97.5 468.052 118.721 468.052 143.618C468.052 162.53 455.938 179.128 437.479 186.194L433.303 187.793V192.265C433.303 196.429 432.158 218.205 417.814 243.473C403.565 268.575 376.043 297.579 322.533 316.181L322.522 316.185C275.098 332.76 250.103 356.857 237.054 378.116C224.074 399.262 223.257 417.035 223.257 420.607V436.492V440.963L227.433 442.562C245.687 449.55 256.969 466.015 256.969 485.139C256.969 509.959 234.858 531.257 207.456 531.257C180.776 531.257 159.5 510.153 159.5 485.139C159.5 466.426 172.447 449.707 191.11 442.562L195.286 440.963V436.492V192.265V187.793L191.11 186.194C172.549 179.089 160.019 162.429 160.019 143.618C160.019 118.564 180.817 97.5 207.975 97.5C234.818 97.5 256.969 118.759 256.969 143.618C256.969 162.852 246.103 179.245 227.952 186.194L223.776 187.793V192.265V333.241V350.606L235.178 337.51C249.741 320.784 276.092 303.915 312.289 291.227C354.295 276.628 377.306 254.762 389.812 234.879C402.257 215.092 403.985 197.776 404.283 192.641ZM237.813 143.618C237.813 127.443 224.353 114.284 207.456 114.284C190.56 114.284 177.099 127.443 177.099 143.618C177.099 159.793 190.56 172.952 207.456 172.952C223.741 172.952 237.813 159.883 237.813 143.618ZM177.099 485.139C177.099 501.313 190.56 514.473 207.456 514.473C223.741 514.473 237.813 501.404 237.813 485.139C237.813 468.964 224.353 455.804 207.456 455.804C191.172 455.804 177.099 468.873 177.099 485.139ZM388.701 143.618C388.701 159.793 402.161 172.952 419.058 172.952C435.955 172.952 449.415 159.793 449.415 143.618C449.415 127.443 435.955 114.284 419.058 114.284C402.774 114.284 388.701 127.353 388.701 143.618Z" fill="white" stroke="white" stroke-width="13"/>
<path d="M467.994 485.188C467.994 510.42 446.767 531.25 420.112 531.25C393.457 531.25 372.229 510.42 372.229 485.188C372.229 459.956 393.457 439.126 420.112 439.126C446.767 439.126 467.994 459.956 467.994 485.188ZM420.338 455.884C404.693 455.339 388.997 468.485 390.102 485.607C390.595 493.246 393.367 500.42 398.595 505.787C403.875 511.21 411.225 514.335 419.949 514.553C438.398 515.014 449.916 501.12 450.195 485.303C450.495 468.371 435.502 456.413 420.338 455.884Z" fill="white" stroke="white" stroke-width="13"/>
<path d="M282.88 334.338L316.549 310.997L420.203 450.674L386.458 474.068L282.88 334.338Z" fill="white" stroke="white" stroke-width="13"/>
<path d="M237.349 161.002V125.569L389.768 125.569V161.083L237.349 161.002Z" fill="white" stroke="white" stroke-width="8"/>
<path d="M367.049 124.091C372.173 124.644 376.47 125.267 379.809 125.93C376.47 126.593 372.173 127.216 367.049 127.769C353.44 129.238 334.538 130.156 313.59 130.156C292.642 130.156 273.74 129.238 260.131 127.769C255.007 127.216 250.71 126.593 247.371 125.93C250.71 125.267 255.007 124.644 260.131 124.091C273.74 122.622 292.642 121.705 313.59 121.705C334.538 121.705 353.44 122.622 367.049 124.091Z" fill="white" stroke="white" stroke-width="8"/>
</svg>
