<svg width="124" height="124" viewBox="0 0 124 124" fill="none" xmlns="http://www.w3.org/2000/svg">
<g clip-path="url(#clip0_822_219)">
<path d="M2.72727 50.7273L8.35227 68.4091H8.56818L14.2045 50.7273H19.6591L11.6364 74H5.29545L-2.73864 50.7273H2.72727ZM23.3778 74H18.1051L26.1392 50.7273H32.4801L40.5028 74H35.2301L29.4006 56.0455H29.2188L23.3778 74ZM23.0483 64.8523H35.5028V68.6932H23.0483V64.8523ZM43.304 74V50.7273H48.2244V69.9432H58.2017V74H43.304ZM69.3381 65.9091H73.5199L75.6222 68.6136L77.6903 71.0227L81.5881 75.9091H76.9972L74.3153 72.6136L72.9403 70.6591L69.3381 65.9091ZM81.9403 62.3636C81.9403 64.9015 81.4593 67.0606 80.4972 68.8409C79.5426 70.6212 78.2396 71.9811 76.5881 72.9205C74.9441 73.8523 73.0956 74.3182 71.0426 74.3182C68.9744 74.3182 67.1184 73.8485 65.4744 72.9091C63.8305 71.9697 62.5313 70.6098 61.5767 68.8295C60.6222 67.0492 60.1449 64.8939 60.1449 62.3636C60.1449 59.8258 60.6222 57.6667 61.5767 55.8864C62.5313 54.1061 63.8305 52.75 65.4744 51.8182C67.1184 50.8788 68.9744 50.4091 71.0426 50.4091C73.0956 50.4091 74.9441 50.8788 76.5881 51.8182C78.2396 52.75 79.5426 54.1061 80.4972 55.8864C81.4593 57.6667 81.9403 59.8258 81.9403 62.3636ZM76.9517 62.3636C76.9517 60.7197 76.7055 59.3333 76.2131 58.2045C75.7282 57.0758 75.0426 56.2197 74.1562 55.6364C73.2699 55.053 72.232 54.7614 71.0426 54.7614C69.8532 54.7614 68.8153 55.053 67.929 55.6364C67.0426 56.2197 66.3532 57.0758 65.8608 58.2045C65.3759 59.3333 65.1335 60.7197 65.1335 62.3636C65.1335 64.0076 65.3759 65.3939 65.8608 66.5227C66.3532 67.6515 67.0426 68.5076 67.929 69.0909C68.8153 69.6742 69.8532 69.9659 71.0426 69.9659C72.232 69.9659 73.2699 69.6742 74.1562 69.0909C75.0426 68.5076 75.7282 67.6515 76.2131 66.5227C76.7055 65.3939 76.9517 64.0076 76.9517 62.3636ZM99.9602 50.7273H104.881V65.8409C104.881 67.5379 104.475 69.0227 103.665 70.2955C102.862 71.5682 101.737 72.5606 100.29 73.2727C98.8428 73.9773 97.1572 74.3295 95.233 74.3295C93.3011 74.3295 91.6117 73.9773 90.1648 73.2727C88.7178 72.5606 87.5928 71.5682 86.7898 70.2955C85.9867 69.0227 85.5852 67.5379 85.5852 65.8409V50.7273H90.5057V65.4205C90.5057 66.3068 90.6989 67.0947 91.0852 67.7841C91.4792 68.4735 92.0322 69.0152 92.7443 69.4091C93.4564 69.803 94.286 70 95.233 70C96.1875 70 97.017 69.803 97.7216 69.4091C98.4337 69.0152 98.983 68.4735 99.3693 67.7841C99.7633 67.0947 99.9602 66.3068 99.9602 65.4205V50.7273ZM108.929 74V50.7273H124.611V54.7841H113.849V60.3295H123.804V64.3864H113.849V69.9432H124.656V74H108.929Z" fill="white"/>
</g>
<defs>
<clipPath id="clip0_822_219">
<rect width="124" height="124" fill="white"/>
</clipPath>
</defs>
</svg>
