<svg width="122" height="32" viewBox="0 0 122 32" fill="none" xmlns="http://www.w3.org/2000/svg">
<path d="M9.33665 4.72727L14.9616 22.4091H15.1776L20.8139 4.72727H26.2685L18.2457 28H11.9048L3.87074 4.72727H9.33665ZM29.9872 28H24.7145L32.7486 4.72727H39.0895L47.1122 28H41.8395L36.0099 10.0455H35.8281L29.9872 28ZM29.6577 18.8523H42.1122V22.6932H29.6577V18.8523ZM49.9134 28V4.72727H54.8338V23.9432H64.8111V28H49.9134ZM68.0696 28V4.72727H77.2514C79.009 4.72727 80.509 5.04167 81.7514 5.67045C83.0014 6.29167 83.9522 7.17424 84.6037 8.31818C85.2628 9.45454 85.5923 10.7917 85.5923 12.3295C85.5923 13.875 85.259 15.2045 84.5923 16.3182C83.9257 17.4242 82.9598 18.2727 81.6946 18.8636C80.437 19.4545 78.9143 19.75 77.1264 19.75H70.9787V15.7955H76.331C77.2704 15.7955 78.0507 15.6667 78.6719 15.4091C79.2931 15.1515 79.7552 14.7652 80.0582 14.25C80.3688 13.7348 80.5241 13.0947 80.5241 12.3295C80.5241 11.5568 80.3688 10.9053 80.0582 10.375C79.7552 9.8447 79.2893 9.44318 78.6605 9.17045C78.0393 8.89015 77.2552 8.75 76.3082 8.75H72.9901V28H68.0696ZM80.6378 17.4091L86.4219 28H80.9901L75.331 17.4091H80.6378ZM93.9901 4.72727V28H89.0696V4.72727H93.9901ZM102.652 4.72727L107.345 12.6591H107.527L112.243 4.72727H117.8L110.697 16.3636L117.959 28H112.3L107.527 20.0568H107.345L102.572 28H96.9361L104.22 16.3636L97.0724 4.72727H102.652Z" fill="white"/>
</svg>
