<svg width="148" height="29" viewBox="0 0 148 29" fill="none" xmlns="http://www.w3.org/2000/svg">
<path d="M12.845 13.46C10.85 12.515 8.89 12.515 8.715 12.515C6.93 12.515 5.215 11.465 5.215 9.435C5.215 7.195 6.79 6.04 8.715 6.04C10.535 6.04 12.075 6.985 12.145 8.98C12.145 9.085 12.32 9.26 12.53 9.26H16.905C17.15 9.26 17.325 9.085 17.29 8.98C17.22 4.22 13.51 0.999999 8.715 0.999999C4.235 0.999999 0 4.185 0 9.435C0 12.69 1.645 15.175 4.55 16.505C6.58 17.45 8.47 17.45 8.715 17.45C10.29 17.52 12.215 18.78 12.215 20.845C12.215 22.7 10.57 23.96 8.715 23.96C8.715 23.96 8.715 23.96 8.68 23.96V29C8.715 29 8.715 29 8.715 29C13.195 29 17.395 26.095 17.395 20.845C17.395 17.555 15.785 14.825 12.845 13.46ZM40.2661 28.58L29.6261 1.21C29.5211 0.929998 29.0311 0.929998 28.9261 1.21L18.3211 28.58C18.2161 28.79 18.3561 29 18.6711 29H23.4661C23.6061 29 23.7811 28.93 23.8161 28.79L29.2761 13.18L34.8061 28.79C34.8411 28.93 35.0161 29 35.1211 29H39.9511C40.1961 29 40.3711 28.79 40.2661 28.58ZM60.5016 28.545C58.7516 24.66 56.8616 20.81 55.1116 16.855C57.9116 15.84 60.2566 13.6 60.2566 9.33C60.2566 1.07 52.3816 0.999999 50.8066 0.999999H41.7416C41.5666 0.999999 41.3916 1.175 41.3916 1.315V6.075H46.7116H50.8066C51.6466 6.075 54.9366 6.25 54.9366 9.33C54.9366 12.41 51.9616 12.55 50.8066 12.55H46.7116H41.3916V28.685C41.3916 28.825 41.5666 29 41.7416 29H46.3266C46.5366 29 46.7116 28.825 46.7116 28.685V17.695H49.7216L54.8316 28.79C54.8666 28.895 55.0766 29 55.1816 29H60.1866C60.4666 29 60.6066 28.79 60.5016 28.545ZM67.2984 11.15V28.685C67.2984 28.825 67.4384 29 67.6834 29H72.1984C72.4434 29 72.6184 28.825 72.6184 28.685V11.15H67.2984ZM61.9084 5.795H77.9734C78.2184 5.795 78.3584 5.655 78.3584 5.48V1.315C78.3584 1.175 78.2184 0.999999 77.9734 0.999999H61.9084C61.6984 0.999999 61.5234 1.175 61.5234 1.315V5.48C61.5234 5.655 61.6984 5.795 61.9084 5.795ZM84.5493 13.145V12.375V1.315C84.5493 1.175 84.4093 0.999999 84.1643 0.999999H79.5793C79.3693 0.999999 79.1943 1.175 79.1943 1.315V13.145H84.5493ZM100.124 0.999999H95.5393C95.3293 0.999999 95.1543 1.175 95.1543 1.315V12.375V17.59V18.535H84.5493V18.5H79.1943V28.685C79.1943 28.825 79.3693 29 79.5793 29H84.1643C84.4093 29 84.5493 28.825 84.5493 28.685V23.75H95.1543V28.685C95.1543 28.825 95.3293 29 95.5393 29H100.124C100.369 29 100.509 28.825 100.509 28.685V1.315C100.509 1.175 100.369 0.999999 100.124 0.999999ZM123.562 28.58L112.922 1.21C112.817 0.929998 112.327 0.929998 112.222 1.21L101.617 28.58C101.512 28.79 101.652 29 101.967 29H106.762C106.902 29 107.077 28.93 107.112 28.79L112.572 13.18L118.102 28.79C118.137 28.93 118.312 29 118.417 29H123.247C123.492 29 123.667 28.79 123.562 28.58ZM147.017 28.475L135.782 15.245L146.912 1.525C147.157 1.28 146.982 0.999999 146.597 0.999999H140.892C140.822 0.999999 140.612 1.07 140.577 1.105L130.042 14.055V1.315C130.042 1.175 129.902 0.999999 129.692 0.999999H125.072C124.862 0.999999 124.687 1.175 124.687 1.315V27.285C124.687 27.285 131.512 19.55 132.212 18.815L140.367 28.895C140.402 28.93 140.612 29 140.682 29H146.702C147.052 29 147.227 28.755 147.017 28.475Z" fill="#FFFEFE"/>
</svg>
