<?xml version="1.0" standalone="no"?>
<!DOCTYPE svg PUBLIC "-//W3C//DTD SVG 20010904//EN"
 "http://www.w3.org/TR/2001/REC-SVG-20010904/DTD/svg10.dtd">
<svg version="1.0" xmlns="http://www.w3.org/2000/svg"
 width="1000.000000pt" height="1000.000000pt" viewBox="0 0 1000.000000 1000.000000"
 preserveAspectRatio="xMidYMid meet">
<metadata>
Created by potrace 1.14, written by Peter Selinger 2001-2017
</metadata>
<g transform="translate(0.000000,1000.000000) scale(0.100000,-0.100000)"
fill="#000000" stroke="none">
<path d="M5868 9852 c9 -6 -7 -10 -45 -11 -52 -1 -94 -6 -100 -11 -2 -2 -7 -3
-12 -4 -5 0 -12 -4 -16 -8 -4 -4 -13 -4 -20 -2 -7 3 -23 0 -35 -6 -13 -7 -20
-8 -17 -3 4 5 0 10 -8 10 -8 0 -12 -3 -10 -7 4 -7 -31 -9 -182 -10 -45 -1 -85
-5 -89 -11 -4 -6 -11 -6 -20 2 -9 7 -18 8 -26 2 -14 -11 -50 -12 -325 -14
-101 -1 -181 -4 -178 -8 2 -4 -7 -7 -20 -7 -13 0 -21 4 -19 8 3 4 1 8 -4 8 -6
0 -12 -6 -15 -13 -5 -13 -56 -15 -77 -2 -10 6 -12 4 -6 -10 6 -16 4 -16 -11
-4 -11 9 -14 10 -9 2 5 -9 0 -13 -14 -13 -12 0 -29 -7 -37 -16 -11 -11 -18
-12 -23 -4 -5 8 -12 7 -23 -4 -8 -9 -23 -16 -31 -16 -9 0 -16 -4 -16 -10 0 -5
-9 -10 -21 -10 -11 0 -17 -4 -14 -10 3 -5 2 -10 -4 -10 -5 0 -12 6 -14 13 -3
7 -6 5 -6 -5 -1 -12 -8 -16 -22 -13 -12 3 -19 2 -16 -1 9 -10 -27 -41 -42 -36
-10 4 -12 1 -6 -8 6 -9 4 -11 -4 -6 -7 5 -20 1 -31 -9 -10 -9 -27 -17 -38 -18
-11 0 -18 -5 -16 -9 5 -8 -18 -12 -46 -8 -11 1 -10 -2 4 -13 18 -13 16 -14
-15 -10 -26 3 -30 2 -19 -6 12 -9 11 -11 -8 -11 -16 0 -21 -4 -16 -12 6 -10 5
-10 -7 -1 -11 9 -18 8 -31 -1 -10 -7 -14 -17 -10 -22 4 -4 -2 -2 -12 6 -13 10
-17 10 -12 3 6 -12 -5 -18 -26 -14 -5 0 -8 -3 -8 -9 0 -5 -8 -10 -18 -10 -10
0 -24 -9 -32 -20 -8 -11 -20 -20 -28 -20 -7 0 -24 -11 -38 -25 -14 -14 -30
-23 -35 -19 -5 3 -9 2 -8 -3 1 -4 1 -15 0 -23 -1 -13 -2 -13 -11 0 -8 13 -10
13 -10 -2 0 -10 -9 -22 -19 -28 -11 -5 -23 -19 -26 -31 -5 -15 -10 -17 -20 -9
-10 8 -15 8 -21 -1 -4 -8 -3 -9 4 -5 7 4 12 3 12 -2 0 -6 -7 -12 -15 -16 -8
-3 -15 -12 -15 -21 0 -9 -9 -15 -22 -15 -19 0 -20 -2 -8 -10 12 -8 12 -10 -5
-10 -15 0 -17 -2 -6 -9 16 -10 3 -20 -21 -16 -10 2 -17 0 -17 -3 3 -21 -3 -32
-17 -32 -8 0 -13 -4 -10 -9 4 -5 0 -12 -6 -14 -10 -4 -9 -6 1 -6 8 -1 -5 -15
-27 -31 -23 -17 -42 -37 -42 -45 0 -8 -5 -15 -11 -15 -5 0 -7 -4 -4 -10 3 -5
2 -10 -4 -10 -5 0 -12 6 -15 13 -4 6 -4 2 -2 -11 3 -18 1 -22 -10 -18 -10 4
-14 0 -12 -12 2 -10 -6 -21 -19 -27 -21 -9 -24 -14 -22 -31 0 -3 -9 -14 -20
-23 -11 -10 -18 -21 -14 -25 3 -3 -1 -6 -10 -6 -10 0 -17 -7 -17 -16 0 -8 -4
-13 -9 -9 -6 3 -8 -4 -6 -16 3 -14 0 -19 -9 -16 -7 3 -19 1 -27 -4 -10 -6 -10
-9 -1 -9 20 0 14 -20 -10 -30 -14 -5 -17 -9 -8 -10 9 -1 6 -5 -7 -10 -13 -5
-23 -17 -23 -25 0 -10 -5 -13 -12 -9 -8 5 -7 0 2 -11 9 -11 10 -16 3 -11 -7 4
-13 3 -13 -3 0 -6 -7 -8 -15 -5 -11 5 -13 2 -9 -9 3 -10 -6 -27 -25 -46 -19
-19 -26 -31 -18 -35 7 -2 2 -5 -10 -5 -21 -1 -28 -11 -24 -34 0 -4 -5 -6 -11
-5 -7 2 -12 -3 -10 -9 1 -7 -2 -13 -8 -13 -5 0 -10 -8 -10 -17 0 -15 -2 -16
-10 -3 -6 9 -10 10 -10 3 0 -15 -50 -69 -61 -66 -4 2 -6 -6 -4 -17 2 -12 0
-18 -6 -15 -5 4 -9 1 -9 -5 0 -6 -5 -8 -12 -4 -6 4 -8 3 -4 -4 3 -6 0 -17 -8
-25 -8 -8 -12 -17 -9 -21 4 -3 -2 -6 -11 -6 -13 0 -17 -6 -13 -20 3 -11 0 -23
-5 -27 -7 -3 -8 -1 -4 5 4 7 2 12 -3 12 -6 0 -11 -7 -11 -16 0 -8 -5 -12 -11
-9 -6 4 -10 1 -8 -6 3 -24 -1 -39 -8 -37 -5 2 -9 -1 -10 -5 -1 -5 -11 -17 -22
-26 -12 -10 -21 -25 -21 -32 0 -8 -7 -22 -14 -32 -11 -14 -15 -15 -19 -5 -4
10 -6 10 -6 -1 -1 -8 -9 -24 -18 -35 -17 -20 -17 -20 1 -6 18 14 18 14 6 -7
-8 -11 -20 -19 -27 -16 -8 3 -13 2 -12 -3 2 -17 -13 -54 -23 -54 -6 0 -8 -7
-5 -14 4 -10 1 -13 -9 -9 -9 3 -14 -1 -14 -12 0 -10 -8 -25 -17 -34 -10 -9
-19 -23 -21 -31 -2 -8 -8 -16 -13 -18 -5 -2 -9 -12 -9 -23 0 -10 -5 -19 -11
-19 -5 0 -7 -4 -4 -10 3 -5 1 -10 -5 -10 -6 0 -8 -4 -5 -10 3 -5 1 -10 -6 -10
-6 0 -9 -8 -6 -20 3 -11 1 -22 -3 -25 -4 -3 -6 -15 -2 -27 3 -11 1 -19 -4 -16
-5 4 -10 -5 -11 -19 -1 -19 1 -22 8 -12 6 11 9 8 9 -9 0 -13 -4 -21 -8 -18 -5
3 -9 -1 -9 -9 0 -8 4 -12 9 -9 4 3 8 1 8 -5 0 -5 -5 -13 -10 -16 -8 -5 -8 -11
0 -20 8 -10 7 -16 -7 -25 -16 -10 -16 -11 0 -6 20 6 22 -4 5 -23 -9 -10 -9
-12 -1 -7 8 4 12 -5 11 -31 0 -164 5 -213 21 -214 9 0 11 -3 5 -5 -7 -3 -10
-14 -7 -24 3 -11 10 -17 16 -13 6 4 8 0 4 -10 -3 -10 -2 -17 4 -17 6 0 8 -3 6
-7 -7 -11 19 -33 29 -25 4 4 4 -1 1 -10 -4 -12 -1 -18 8 -18 8 0 14 -3 14 -7
-3 -20 2 -34 11 -28 6 3 10 2 10 -3 0 -5 21 -30 46 -55 25 -25 43 -51 39 -57
-4 -6 -3 -9 2 -8 14 4 54 -23 48 -33 -4 -5 1 -9 10 -9 9 0 14 -4 11 -8 -3 -5
6 -16 20 -26 13 -11 24 -25 24 -32 0 -8 4 -14 10 -14 5 0 9 -3 9 -7 -3 -20 2
-34 11 -28 6 3 10 1 10 -5 0 -6 7 -18 15 -27 8 -8 12 -19 9 -25 -4 -7 -2 -8 4
-4 7 4 12 2 12 -4 0 -7 9 -19 21 -29 11 -9 22 -29 22 -43 1 -14 4 -25 6 -22 8
8 27 -43 29 -81 2 -22 7 -44 12 -49 6 -6 10 -21 10 -34 0 -13 4 -21 9 -18 5 3
8 -16 8 -44 -1 -28 3 -52 8 -54 6 -3 5 -5 -2 -5 -7 -1 -10 -7 -7 -15 6 -14
-53 -49 -82 -49 -8 0 -14 -5 -14 -11 0 -6 -5 -4 -10 4 -8 12 -10 10 -10 -10 0
-20 -2 -22 -10 -10 -8 12 -10 10 -11 -10 0 -14 -3 -19 -6 -12 -2 6 -10 12 -15
12 -6 0 -8 -3 -5 -6 10 -10 -53 -65 -66 -57 -5 3 -7 1 -4 -4 4 -6 -1 -17 -10
-24 -14 -12 -16 -12 -8 1 8 13 6 13 -8 2 -9 -8 -16 -17 -15 -20 2 -20 -3 -25
-12 -12 -8 13 -10 12 -10 -2 0 -10 -4 -18 -10 -18 -5 0 -10 -7 -10 -16 0 -8
-4 -12 -10 -9 -9 6 -14 -8 -11 -28 1 -5 -3 -6 -9 -2 -5 3 -10 1 -10 -5 0 -6
-4 -8 -10 -5 -5 3 -10 -3 -10 -14 0 -12 -5 -21 -11 -21 -5 0 -8 -4 -4 -9 3 -5
-8 -19 -25 -31 -17 -12 -28 -26 -25 -31 4 -5 1 -9 -6 -9 -9 0 -9 -3 0 -14 9
-10 9 -16 1 -21 -8 -5 -8 -11 1 -21 6 -8 9 -17 6 -20 -3 -3 6 -17 21 -31 15
-14 20 -22 12 -17 -11 6 -10 4 2 -7 9 -9 14 -19 11 -23 -4 -3 -1 -6 6 -6 7 0
10 -4 7 -9 -3 -5 1 -14 9 -21 8 -7 15 -18 15 -26 0 -7 5 -25 12 -39 8 -18 14
-22 20 -13 5 8 8 1 8 -20 0 -24 4 -31 13 -26 7 5 6 0 -3 -11 -8 -10 -10 -16
-4 -12 15 9 26 -17 17 -40 -4 -11 -3 -14 5 -9 8 5 12 -1 12 -16 0 -13 6 -30
13 -37 10 -11 10 -13 0 -7 -20 11 -19 6 18 -65 7 -14 7 -19 0 -15 -7 4 -10 -6
-9 -28 1 -19 5 -33 10 -30 4 3 8 -5 8 -18 0 -17 -3 -19 -9 -9 -6 9 -9 5 -8
-14 0 -20 2 -24 9 -14 7 10 8 8 5 -8 -3 -14 0 -23 6 -23 8 0 7 -4 -2 -9 -7 -5
-11 -14 -7 -20 4 -5 7 -70 8 -143 0 -82 5 -139 12 -147 7 -10 7 -13 0 -8 -6 3
-11 0 -11 -8 0 -8 4 -12 8 -10 3 3 9 -6 11 -20 3 -14 1 -25 -4 -25 -5 0 -2 -7
6 -16 18 -18 21 -28 5 -19 -7 5 -8 1 -1 -11 5 -11 16 -32 23 -49 8 -16 18 -33
22 -36 4 -3 9 -15 10 -27 0 -11 5 -18 9 -16 4 3 8 -4 8 -16 0 -12 5 -18 10
-15 9 6 14 -8 11 -27 0 -5 6 -8 15 -8 8 0 12 -4 9 -10 -3 -5 -1 -10 5 -10 6 0
9 -4 6 -9 -3 -5 1 -11 9 -15 8 -3 15 -12 15 -20 0 -7 7 -17 16 -20 8 -3 12
-11 8 -17 -4 -7 -3 -9 3 -6 6 4 16 0 23 -8 7 -8 9 -15 4 -15 -5 0 5 -8 23 -16
18 -9 35 -25 38 -35 4 -10 12 -18 18 -16 7 1 11 -4 9 -12 -3 -12 -1 -12 14 0
12 9 15 9 10 2 -4 -8 -1 -13 8 -13 9 0 15 -4 13 -9 -1 -5 7 -17 18 -26 11 -9
13 -13 5 -9 -12 6 -13 5 -3 -7 7 -9 14 -24 16 -35 1 -10 6 -25 10 -31 5 -8 4
-13 -2 -13 -6 0 -11 -5 -11 -11 0 -5 5 -7 10 -4 14 9 12 -18 -2 -34 -10 -11
-10 -13 0 -7 7 5 12 1 13 -11 1 -10 2 -31 3 -48 1 -16 -2 -36 -7 -42 -6 -9 -4
-15 7 -19 9 -3 16 -10 16 -16 0 -5 -4 -6 -10 -3 -5 3 -10 2 -10 -4 0 -5 4 -12
9 -16 5 -3 9 -27 9 -53 -1 -115 2 -157 12 -142 8 12 10 8 11 -15 1 -16 0 -38
-1 -49 -1 -12 2 -16 11 -10 9 5 10 2 6 -9 -3 -10 -2 -17 2 -17 5 0 8 -8 7 -17
-2 -10 7 -26 18 -36 12 -10 15 -15 7 -11 -7 4 -3 -7 10 -25 12 -17 27 -31 31
-31 5 0 6 -4 3 -10 -3 -5 1 -10 10 -10 9 0 14 -4 10 -9 -3 -5 5 -17 17 -25 12
-9 18 -16 13 -16 -6 0 1 -6 15 -13 13 -7 30 -24 37 -37 7 -14 13 -21 13 -16 0
5 17 -8 38 -30 21 -21 50 -48 64 -59 14 -11 24 -23 21 -27 -2 -5 8 -8 24 -8
19 0 24 -3 15 -9 -10 -6 -4 -12 20 -24 18 -9 29 -17 23 -17 -5 0 1 -6 15 -13
14 -8 24 -19 22 -25 -1 -7 7 -12 19 -12 11 0 17 -4 14 -10 -3 -5 1 -10 10 -10
9 0 13 -4 10 -10 -3 -5 -1 -10 5 -10 6 0 8 -5 4 -12 -5 -7 -2 -9 8 -5 10 3 19
-3 27 -19 6 -14 16 -22 21 -19 6 4 9 1 8 -7 -2 -7 3 -12 10 -10 6 1 12 -5 12
-14 0 -8 5 -12 10 -9 6 3 10 -1 10 -9 0 -8 9 -18 20 -21 11 -4 19 -12 18 -18
-2 -7 0 -12 3 -12 6 0 27 -21 49 -49 12 -16 12 -18 1 -11 -10 5 -12 4 -7 -3 4
-7 15 -12 24 -12 15 0 15 -2 2 -10 -9 -6 -10 -10 -3 -10 8 0 13 -28 15 -85 2
-47 -1 -85 -5 -85 -5 0 -5 -5 -2 -11 5 -8 10 -404 5 -404 -1 0 -2 -64 -3 -142
-1 -79 -5 -143 -9 -143 -5 0 -8 -5 -8 -11 0 -5 6 -7 13 -3 10 6 10 4 0 -7 -16
-17 -17 -43 -1 -33 6 4 4 -3 -5 -16 -12 -18 -14 -27 -5 -37 7 -9 7 -13 0 -13
-6 0 -9 -7 -5 -16 3 -9 0 -20 -8 -25 -10 -6 -10 -9 -1 -9 6 0 12 -6 12 -14 0
-8 -6 -17 -12 -19 -10 -4 -10 -6 0 -6 6 -1 12 -6 12 -12 0 -5 -6 -7 -12 -3 -8
5 -7 0 2 -11 12 -15 12 -17 1 -10 -11 6 -13 3 -9 -13 4 -12 2 -25 -4 -28 -5
-3 -7 -13 -4 -21 3 -8 1 -11 -4 -8 -6 3 -10 1 -10 -6 0 -14 -87 -99 -94 -91
-4 3 -6 0 -6 -7 0 -7 -4 -9 -10 -6 -5 3 -10 1 -10 -4 0 -6 -8 -11 -17 -11 -15
0 -16 -2 -3 -10 12 -8 9 -10 -13 -10 -16 0 -26 -4 -22 -9 3 -5 1 -12 -5 -16
-5 -3 -10 0 -10 7 0 7 -6 2 -13 -12 -8 -14 -19 -24 -25 -22 -7 1 -12 -6 -12
-15 0 -15 -2 -16 -10 -3 -8 12 -10 10 -10 -8 0 -13 -4 -21 -9 -18 -10 6 -45
-31 -55 -57 -3 -11 -15 -21 -27 -24 -16 -4 -17 -8 -7 -14 10 -7 10 -9 0 -9 -7
0 -23 -9 -35 -20 -12 -11 -27 -18 -34 -16 -7 3 -13 -2 -13 -10 0 -8 -4 -12
-10 -9 -5 3 -10 1 -10 -5 0 -6 -4 -8 -10 -5 -5 3 -10 1 -10 -5 0 -6 -4 -8 -10
-5 -5 3 -10 1 -10 -5 0 -6 -7 -18 -15 -26 -12 -12 -15 -12 -15 -2 0 10 -3 9
-10 -2 -7 -11 -10 -11 -10 -2 0 7 -5 10 -11 7 -6 -4 -8 -13 -5 -21 3 -9 -2
-14 -14 -14 -12 0 -20 -7 -20 -17 0 -9 -3 -13 -7 -10 -3 4 -15 -5 -25 -20 -10
-16 -18 -25 -18 -21 0 3 -24 -17 -53 -45 -30 -29 -50 -55 -45 -58 6 -3 0 -9
-12 -12 -16 -4 -21 -11 -16 -23 6 -14 4 -15 -9 -4 -9 7 -15 9 -14 4 4 -22 -2
-34 -17 -34 -8 0 -12 -4 -9 -10 3 -6 -4 -10 -17 -10 -18 0 -20 -2 -8 -10 13
-8 12 -10 -3 -10 -10 0 -15 -4 -12 -10 3 -5 -1 -10 -10 -10 -10 0 -13 -5 -9
-12 5 -9 2 -8 -9 1 -15 12 -17 12 -11 -4 5 -13 4 -16 -4 -11 -8 4 -12 0 -12
-11 0 -15 -2 -16 -10 -3 -8 13 -10 12 -10 -3 0 -10 -4 -16 -9 -13 -4 3 -19 -3
-31 -14 -12 -11 -27 -17 -31 -14 -5 3 -9 0 -9 -5 0 -6 -6 -11 -14 -11 -8 0
-18 -5 -22 -12 -4 -7 -3 -8 4 -4 18 11 14 0 -5 -15 -11 -10 -14 -10 -9 -2 4 7
2 13 -3 13 -6 0 -11 -5 -11 -10 0 -6 -3 -9 -7 -9 -21 3 -33 -3 -33 -17 0 -8
-5 -12 -10 -9 -6 3 -10 -1 -10 -9 0 -10 -6 -13 -17 -9 -11 4 -14 3 -9 -5 7
-11 -6 -17 -27 -13 -5 1 -6 -3 -2 -9 3 -5 1 -10 -5 -10 -6 0 -8 -5 -4 -12 4
-6 3 -8 -4 -4 -6 3 -17 0 -25 -8 -8 -8 -17 -12 -21 -9 -3 4 -6 -1 -6 -11 0 -9
-4 -14 -10 -11 -5 3 -19 -6 -32 -20 -12 -14 -28 -23 -35 -21 -7 3 -15 0 -19
-6 -5 -7 -2 -8 7 -4 8 4 6 1 -3 -7 -10 -8 -14 -18 -10 -23 4 -4 -2 -2 -12 6
-11 8 -17 11 -14 5 6 -10 -21 -42 -32 -39 -3 1 -4 -2 -2 -8 1 -5 -2 -7 -7 -3
-6 3 -16 -3 -22 -14 -7 -11 -19 -17 -27 -13 -10 3 -13 1 -8 -6 5 -8 1 -10 -10
-5 -13 5 -16 3 -11 -10 3 -9 3 -16 -1 -16 -26 4 -43 -5 -61 -34 -11 -17 -21
-26 -21 -19 0 6 -5 12 -11 12 -5 0 -7 -4 -4 -10 3 -5 -1 -10 -10 -10 -9 0 -13
-5 -10 -10 4 -6 3 -10 -2 -9 -4 1 -17 1 -28 0 -15 -1 -17 -3 -6 -10 10 -6 4
-12 -23 -22 -30 -11 -34 -15 -19 -20 16 -7 16 -8 1 -8 -9 -1 -19 -7 -21 -13
-4 -10 -6 -10 -6 0 -1 6 -6 12 -12 12 -5 0 -7 -5 -4 -10 3 -6 -2 -10 -12 -10
-14 0 -15 -2 -5 -9 11 -7 10 -10 -3 -15 -9 -3 -22 -3 -27 1 -7 3 -8 1 -4 -5 4
-7 3 -12 -2 -12 -6 0 -24 -13 -42 -30 -18 -16 -38 -30 -45 -30 -7 0 -18 -7
-25 -15 -10 -12 -10 -15 1 -15 12 0 12 -2 0 -9 -8 -5 -21 -7 -28 -4 -8 3 -21
-4 -29 -16 -9 -12 -19 -19 -24 -16 -4 3 -14 -3 -21 -12 -12 -14 -12 -16 0 -8
10 6 12 4 7 -4 -5 -7 -14 -10 -20 -8 -7 3 -23 -8 -36 -23 -13 -16 -27 -27 -32
-24 -4 3 -8 0 -8 -6 0 -6 -5 -8 -10 -5 -6 4 -9 1 -8 -7 2 -8 -6 -12 -22 -11
-14 1 -19 0 -12 -3 17 -8 15 -25 -2 -18 -8 3 -17 0 -22 -7 -5 -8 -3 -10 6 -4
9 6 11 4 6 -4 -5 -7 -15 -10 -23 -7 -9 4 -11 2 -7 -6 5 -8 2 -9 -11 -4 -16 6
-16 4 -4 -11 7 -10 9 -15 4 -10 -4 4 -17 -1 -28 -10 -15 -13 -19 -14 -13 -3 5
9 2 8 -7 -2 -8 -10 -17 -14 -21 -10 -4 4 -6 0 -4 -8 1 -8 -3 -14 -9 -12 -7 1
-13 -1 -13 -6 0 -4 -18 -18 -40 -32 -26 -16 -35 -27 -27 -32 7 -4 1874 -8
4150 -8 l4137 0 0 456 -1 456 -39 37 c-22 21 -40 43 -40 50 0 7 -4 9 -10 6 -5
-3 -10 1 -10 10 0 9 -5 13 -10 10 -6 -3 -10 3 -10 15 0 12 -4 18 -10 15 -5 -3
-10 -1 -10 5 0 6 -5 8 -10 5 -6 -4 -9 -1 -8 7 2 7 -3 12 -10 10 -6 -1 -11 1
-11 5 3 20 -2 34 -11 28 -5 -3 -10 1 -10 9 0 9 -7 16 -16 16 -8 0 -13 4 -9 9
3 6 -4 15 -15 21 -11 6 -18 15 -15 21 4 5 2 9 -3 9 -17 0 -73 61 -66 72 4 7 3
8 -4 4 -7 -4 -12 -1 -12 8 0 9 -6 15 -12 14 -7 -2 -12 3 -10 10 1 6 -1 11 -5
10 -5 -2 -10 2 -13 7 -2 6 -18 21 -35 35 -37 30 -45 42 -39 52 3 4 -4 8 -16 8
-12 0 -19 4 -16 9 3 4 -26 36 -64 71 -39 35 -70 70 -70 78 0 9 -3 13 -6 9 -8
-8 -34 18 -34 33 0 6 -4 8 -10 5 -5 -3 -10 1 -10 9 0 8 -9 20 -20 26 -11 6
-20 18 -20 28 0 15 -2 15 -10 2 -8 -13 -10 -12 -11 5 -1 11 -1 23 -1 26 1 4
-8 4 -20 1 -14 -3 -19 -1 -14 6 4 7 3 12 -2 12 -16 0 -62 45 -62 60 0 13 -2
13 -10 0 -8 -12 -10 -11 -10 7 0 17 -4 21 -17 16 -10 -3 -15 -3 -12 1 7 7 -55
76 -69 76 -5 0 -17 11 -26 25 -9 14 -21 23 -26 20 -6 -4 -10 -1 -10 4 0 6 -6
10 -12 9 -7 -2 -12 3 -10 10 1 6 -5 12 -14 12 -9 0 -12 5 -8 12 4 6 3 8 -3 5
-6 -4 -21 2 -33 13 -12 11 -27 17 -31 14 -5 -3 -9 2 -9 11 0 9 -4 13 -10 10
-5 -3 -10 -2 -10 2 0 5 -10 9 -22 10 -11 1 -24 6 -27 10 -14 19 -53 33 -95 35
-25 0 -43 5 -40 10 8 13 -10 10 -25 -4 -8 -7 -11 -8 -8 -2 3 6 -7 10 -28 10
-19 0 -31 -4 -28 -10 4 -5 1 -6 -8 0 -22 13 -51 16 -43 3 4 -7 -1 -7 -16 1
-16 9 -25 9 -33 1 -6 -6 -33 -11 -59 -11 -32 0 -48 -4 -48 -12 0 -9 -4 -8 -10
2 -8 12 -13 13 -30 3 -24 -16 -41 -17 -20 -2 12 9 11 9 -5 3 -18 -7 -65 -10
-255 -13 -101 -2 -102 -2 -94 12 6 9 5 9 -7 0 -12 -10 -18 -10 -29 0 -10 10
-11 9 -5 -3 7 -12 6 -13 -6 -4 -15 12 -54 15 -186 16 -55 0 -83 4 -83 12 0 7
-3 7 -8 1 -11 -15 -65 -16 -74 -2 -5 9 -8 9 -8 0 0 -13 -18 -12 -39 1 -10 6
-12 5 -7 -2 5 -8 -1 -12 -14 -12 -14 0 -19 4 -14 13 6 9 4 9 -7 1 -8 -6 -21
-11 -29 -12 -81 -2 -129 -6 -125 -12 2 -4 -2 -7 -10 -7 -8 0 -12 4 -9 9 3 4
-2 8 -11 8 -9 0 -14 -4 -11 -9 6 -9 -20 -8 -44 2 -8 3 -24 6 -35 5 -55 -2 -96
3 -90 11 3 6 -4 8 -15 6 -11 -2 -23 2 -27 8 -8 13 -11 13 -69 16 -19 0 -33 5
-30 9 3 5 -1 9 -9 9 -8 0 -11 -5 -8 -11 3 -6 0 -5 -8 2 -15 14 -33 16 -24 2 3
-5 -7 -3 -21 5 -15 8 -31 12 -36 9 -4 -3 -17 0 -29 7 -12 6 -19 7 -16 2 4 -5
0 -10 -8 -10 -8 0 -11 5 -8 10 4 6 0 8 -10 4 -10 -3 -17 -2 -17 4 0 6 -6 6
-17 1 -20 -10 -46 -5 -39 7 3 4 -1 8 -9 8 -8 0 -12 -4 -9 -9 3 -4 -5 -8 -18
-8 -18 0 -20 2 -8 10 12 7 10 9 -7 7 -12 0 -20 -4 -18 -7 2 -4 -2 -7 -10 -7
-8 0 -12 4 -9 9 3 4 1 8 -5 8 -5 0 -12 -6 -14 -12 -4 -10 -6 -10 -6 0 -1 7
-14 12 -31 12 -16 0 -30 5 -30 11 0 6 -5 9 -12 7 -15 -5 -58 39 -58 59 0 8 -4
12 -8 9 -7 -4 -12 12 -15 56 -1 9 -5 14 -9 12 -4 -3 -8 4 -8 16 0 14 -4 19
-12 14 -7 -4 -10 -3 -5 1 4 5 1 18 -6 29 -7 12 -14 41 -16 65 -1 24 -9 54 -18
67 -8 13 -11 24 -5 24 13 0 3 42 -12 52 -7 5 -6 8 3 8 11 0 11 3 0 17 -12 14
-12 16 0 8 10 -6 12 -4 5 6 -11 18 -17 192 -6 186 4 -3 9 6 10 21 1 14 8 29
15 34 9 6 8 8 -3 8 -13 0 -13 2 0 9 8 6 18 7 22 5 5 -3 7 0 6 8 -2 7 3 12 10
10 8 -1 11 2 8 7 -3 5 1 11 9 15 8 3 15 12 15 21 0 8 5 15 11 15 5 0 7 -6 3
-12 -5 -9 -3 -9 9 1 9 7 14 17 11 22 -3 5 0 9 6 9 6 0 8 5 5 10 -4 6 -3 10 2
9 20 -3 34 2 28 11 -3 6 1 10 9 10 18 0 47 40 39 53 -4 6 -1 7 7 2 8 -5 18 -2
25 8 6 9 17 17 25 19 18 4 48 31 43 40 -1 3 7 4 19 2 13 -2 17 -2 11 2 -17 8
9 35 36 37 11 0 17 7 14 14 -3 8 2 11 17 8 13 -2 20 -2 17 1 -8 8 32 46 42 39
5 -3 7 5 5 17 -2 13 -2 17 2 11 3 -7 10 -13 15 -13 6 0 7 5 4 10 -6 9 8 14 28
11 5 -1 6 2 3 7 -2 4 -1 14 5 22 7 12 9 12 9 1 0 -11 3 -11 15 -1 8 7 12 16 9
21 -3 5 -1 9 5 9 5 0 12 -6 15 -12 4 -7 4 -3 2 10 -4 20 -2 21 12 10 12 -10
14 -10 8 0 -4 7 -2 12 4 12 6 0 8 4 5 10 -3 6 1 7 9 4 11 -4 19 2 25 17 5 13
10 20 10 16 1 -4 7 -2 15 5 8 7 12 16 9 21 -2 4 3 7 12 7 10 0 13 5 9 12 -5 8
-2 9 9 5 9 -3 19 -2 22 3 4 6 0 10 -7 10 -7 0 2 10 19 21 18 12 30 26 26 32
-3 6 -1 7 5 3 7 -4 12 -2 12 4 0 6 5 8 10 5 6 -3 10 1 10 9 0 9 5 16 10 16 6
0 10 7 10 16 0 8 4 13 9 10 11 -7 33 19 23 28 -4 4 0 6 8 4 8 -2 14 3 12 10
-1 7 5 12 15 10 10 -2 17 2 16 10 -2 6 2 12 7 12 6 0 10 7 10 16 0 8 5 12 11
9 6 -4 9 0 7 11 -2 11 2 18 10 17 6 -2 12 5 12 15 0 10 9 28 20 40 11 12 20
27 20 35 0 7 6 19 13 26 10 11 9 12 -3 6 -12 -6 -13 -5 -2 6 6 7 12 33 12 57
0 32 3 41 13 36 7 -5 6 0 -3 11 -9 11 -10 16 -2 11 6 -4 12 -3 12 3 0 5 -4 13
-10 16 -5 3 -10 12 -10 18 0 7 4 6 10 -3 6 -10 9 -5 8 18 -1 18 2 35 5 39 4 3
2 12 -4 19 -7 8 -7 14 1 19 5 3 7 18 4 32 -4 16 -2 28 7 34 10 6 11 9 2 9 -7
0 -13 5 -13 11 0 5 4 8 8 5 4 -2 9 5 9 17 2 17 0 19 -7 7 -6 -9 -10 -10 -10
-3 0 6 5 15 11 19 8 4 7 9 -2 15 -10 6 -11 9 -1 9 6 0 12 12 12 26 0 17 4 23
13 18 7 -5 6 0 -3 11 -9 11 -10 16 -2 11 8 -5 12 1 12 21 0 22 2 25 10 13 8
-13 10 -12 11 5 1 11 1 23 0 28 0 4 6 7 14 7 9 0 12 6 9 15 -5 11 -2 13 10 9
12 -5 15 -2 9 12 -4 11 -3 15 5 10 6 -4 17 2 24 14 7 11 19 20 27 20 8 0 12 3
8 6 -3 3 12 22 33 42 22 19 37 39 34 44 -3 4 5 8 18 8 14 0 19 3 11 8 -14 9
-5 26 20 35 9 3 17 13 17 22 0 8 5 15 11 15 5 0 7 5 4 11 -4 5 -1 18 7 27 8 9
20 29 27 44 8 15 18 25 23 22 5 -3 8 -2 7 3 -4 20 2 44 9 39 7 -4 12 22 15 71
0 7 4 10 9 7 5 -4 9 0 7 7 -4 36 2 60 14 53 9 -6 9 -5 -1 8 -10 12 -10 18 2
27 8 7 12 19 9 27 -3 8 0 21 7 29 11 13 10 14 -3 9 -12 -4 -14 -1 -10 18 3 13
11 29 17 37 8 11 8 13 0 8 -7 -4 -18 1 -25 10 -8 10 -9 14 -2 10 6 -4 14 -3
18 3 3 5 2 10 -3 10 -6 0 -8 9 -5 20 3 11 0 26 -6 33 -6 8 -8 17 -4 21 11 10
12 37 2 30 -5 -3 -9 4 -9 16 0 14 4 19 13 14 9 -5 9 -4 0 6 -9 9 -9 19 -2 33
8 14 8 18 0 13 -6 -4 -11 0 -11 9 0 9 4 14 9 11 10 -7 9 20 -2 30 -4 4 -2 13
4 21 6 7 8 13 5 13 -4 0 0 10 8 22 12 17 13 25 3 37 -10 12 -9 13 2 6 11 -6
13 -2 9 18 -3 17 0 28 9 31 9 4 13 17 11 33 -1 16 2 27 8 26 6 -1 11 4 11 12
0 8 -5 11 -11 8 -6 -3 -5 0 2 8 6 7 12 24 12 37 0 14 4 21 11 16 7 -4 9 2 7
17 -2 17 1 23 11 21 12 -3 12 -1 0 14 -9 12 -9 15 -1 10 7 -4 12 -2 12 4 0 6
5 8 13 4 8 -5 8 -2 -2 9 -9 12 -10 17 -2 17 7 0 9 5 6 10 -5 9 6 14 26 12 3 0
4 12 3 28 -1 18 3 28 10 27 6 -1 10 6 8 15 -2 12 2 16 11 12 11 -4 13 2 10 23
-4 22 -2 25 6 13 9 -12 11 -11 12 10 1 14 1 28 0 33 0 4 4 7 9 7 6 0 10 5 10
11 0 5 -4 7 -10 4 -6 -3 -10 1 -10 10 0 10 5 13 12 9 7 -4 2 7 -11 24 -12 18
-26 32 -31 32 -5 0 -7 9 -5 20 2 11 0 19 -4 17 -5 -1 -18 9 -30 23 -13 14 -20
18 -16 10 4 -10 2 -9 -8 2 -8 10 -17 15 -20 11 -4 -3 -7 5 -7 18 0 19 -2 21
-10 9 -8 -12 -10 -10 -10 9 0 19 -3 21 -15 11 -12 -10 -14 -8 -10 9 2 11 1 20
-3 20 -20 -3 -32 2 -29 14 1 6 -4 11 -10 10 -7 -2 -13 2 -13 7 0 6 -10 10 -22
10 -16 0 -19 3 -10 9 10 6 7 12 -12 25 -14 9 -26 14 -26 11 0 -3 -10 3 -22 15
-20 18 -39 25 -60 21 -5 0 -8 4 -8 9 0 6 -15 10 -32 10 -18 0 -41 7 -51 14
-10 8 -26 12 -36 9 -10 -3 -22 1 -26 8 -6 8 -4 10 6 4 11 -7 11 -6 -1 9 -18
22 -23 53 -10 61 6 3 10 22 10 41 0 26 3 33 13 28 7 -5 6 0 -3 11 -12 15 -12
17 -1 10 11 -6 13 -3 9 12 -3 12 -2 27 3 34 7 12 9 11 10 -1 0 -10 3 -8 8 5 5
12 4 23 -3 27 -8 5 -7 8 2 8 7 0 10 5 7 10 -4 6 -3 9 2 8 4 -2 10 2 12 7 3 6
11 16 18 23 7 8 10 18 7 24 -4 6 -3 9 2 6 5 -3 21 19 36 49 15 30 23 51 18 48
-15 -9 -12 0 8 23 11 12 18 34 17 51 -1 17 1 28 5 26 4 -2 7 12 8 32 1 19 6
41 12 48 5 6 8 14 5 17 -3 3 1 11 10 18 18 15 20 36 3 43 -8 3 -6 6 5 6 9 1
16 4 15 9 -1 7 4 23 23 70 5 13 9 31 9 42 0 10 6 21 13 23 9 4 8 6 -2 6 -11 1
-11 4 0 18 8 9 9 14 3 10 -6 -3 -11 0 -11 8 0 8 4 12 9 9 7 -4 13 52 9 79 0 4
3 7 9 7 5 0 10 5 10 11 0 5 -5 7 -11 3 -8 -4 -8 -1 -1 12 11 21 12 25 12 55 0
11 4 18 8 15 5 -3 9 1 9 9 0 8 -4 12 -9 9 -4 -3 -8 0 -8 5 0 6 5 11 12 11 6 0
8 3 5 7 -4 3 -2 12 4 20 6 7 8 13 3 13 -5 0 -2 5 6 10 13 8 12 10 -4 10 -20 0
-20 0 0 14 10 8 16 18 11 22 -4 4 1 16 10 26 16 18 16 18 -3 12 -18 -7 -18 -7
-2 12 14 16 15 23 5 34 -9 10 -9 11 1 6 8 -5 12 1 12 18 0 14 -6 26 -12 26 -8
0 -9 3 -3 8 10 7 16 30 19 67 0 11 6 23 11 27 6 5 5 8 -2 8 -7 0 -13 5 -13 11
0 5 6 7 13 3 10 -6 10 -4 0 7 -7 7 -13 18 -13 24 0 5 5 3 11 -5 8 -12 10 -10
8 10 -3 58 1 81 14 74 7 -5 6 0 -3 11 -8 10 -10 16 -4 13 6 -4 10 8 11 33 0
22 6 45 12 52 6 7 11 27 13 44 1 18 5 30 9 27 4 -2 10 0 14 6 3 5 1 10 -5 10
-6 0 -8 5 -5 10 4 6 11 8 16 5 5 -4 9 1 9 10 0 9 5 13 10 10 9 -6 14 8 11 28
0 4 3 7 9 7 5 0 10 9 10 20 0 11 4 20 9 20 6 0 10 17 9 38 0 20 2 44 4 52 1 8
-3 14 -9 12 -7 -1 -13 5 -13 14 0 20 -25 45 -36 36 -5 -4 -2 2 6 12 10 13 10
17 3 12 -9 -5 -13 -1 -13 10 0 10 -3 15 -6 11 -8 -8 -34 18 -34 33 0 6 -4 9
-10 5 -5 -3 -17 6 -26 20 -9 14 -21 25 -27 25 -5 0 -19 10 -31 23 -28 30 -72
57 -91 57 -9 0 -14 4 -11 9 3 5 -5 12 -19 15 -14 4 -25 11 -25 16 0 5 -6 7
-13 4 -7 -2 -23 5 -35 16 -12 11 -24 20 -27 20 -35 -1 -45 2 -40 11 4 6 1 10
-6 8 -31 -4 -50 1 -43 12 4 7 1 10 -7 7 -8 -3 -32 5 -54 18 -22 13 -44 23 -50
22 -5 0 -16 10 -22 23 -7 13 -13 18 -13 11 0 -10 -3 -10 -14 0 -8 7 -11 17 -8
22 3 5 0 6 -6 2 -6 -3 -17 1 -25 9 -9 8 -25 15 -37 15 -12 0 -19 4 -15 9 3 5
-9 20 -27 32 -17 13 -28 16 -23 8 4 -7 -3 -2 -18 14 -14 15 -33 27 -42 27 -9
0 -14 4 -10 9 3 6 -4 8 -15 6 -11 -2 -18 0 -15 6 4 5 -3 9 -14 9 -12 0 -20 3
-20 8 3 19 -2 25 -11 12 -8 -13 -10 -13 -10 1 0 9 -11 22 -25 29 -13 7 -22 17
-19 22 3 5 2 8 -3 7 -21 -4 -34 2 -27 13 5 7 2 9 -9 5 -10 -4 -18 1 -22 13 -3
10 -13 21 -21 24 -8 3 -12 11 -9 16 4 6 1 9 -7 8 -7 -2 -12 3 -10 11 2 9 -3
11 -14 7 -12 -5 -15 -2 -10 9 3 9 2 13 -4 10 -6 -3 -10 -1 -10 4 0 6 -7 11
-16 11 -10 0 -14 5 -10 15 4 11 0 15 -12 13 -12 -2 -16 3 -14 15 2 12 -4 21
-17 24 -12 3 -18 10 -15 15 3 5 -2 8 -12 6 -11 -2 -18 2 -17 9 2 6 -7 15 -18
18 -13 4 -18 12 -15 21 3 9 1 12 -4 9 -6 -3 -13 1 -16 10 -6 13 -8 14 -15 3
-7 -10 -9 -9 -9 5 0 10 -7 20 -15 23 -8 4 -12 10 -9 15 3 5 -2 6 -10 3 -11 -4
-16 0 -16 10 0 9 -4 15 -9 13 -5 -1 -10 3 -11 8 -2 14 -28 27 -40 20 -6 -4
-10 -3 -9 2 4 21 -2 33 -17 33 -8 0 -13 4 -9 9 3 5 -4 12 -15 16 -11 3 -20 13
-20 21 0 8 -3 13 -7 13 -5 -1 -17 -1 -28 0 -17 1 -18 3 -5 11 13 9 7 14 -12
11 -5 0 -8 6 -8 15 0 8 -4 13 -9 9 -5 -3 -16 3 -23 13 -7 11 -17 19 -23 19 -5
0 -16 11 -22 24 -7 13 -13 19 -13 12 0 -7 -10 -2 -23 10 -13 12 -22 25 -20 30
2 4 -5 7 -17 7 -12 0 -18 5 -15 10 3 6 1 10 -5 10 -6 0 -8 5 -4 13 5 7 1 7
-12 -3 -10 -8 -16 -10 -12 -6 10 11 -28 45 -58 52 -12 3 -25 13 -28 21 -4 9
-13 13 -22 9 -8 -3 -12 -2 -9 4 3 6 -3 10 -15 10 -12 0 -19 4 -16 9 3 5 -1 12
-10 15 -10 4 -13 2 -8 -7 4 -6 -1 -5 -12 4 -24 20 -161 28 -148 8 4 -7 3 -10
-3 -6 -16 10 -80 18 -65 9z m-91 -28 c-3 -3 -12 -4 -19 -1 -8 3 -5 6 6 6 11 1
17 -2 13 -5z m1993 -2639 c0 -8 -4 -15 -10 -15 -5 0 -7 7 -4 15 4 8 8 15 10
15 2 0 4 -7 4 -15z m97 -1627 c-3 -8 -6 -5 -6 6 -1 11 2 17 5 13 3 -3 4 -12 1
-19z m-1326 -2481 c-10 -9 -11 -8 -5 6 3 10 9 15 12 12 3 -3 0 -11 -7 -18z
m-2741 -1451 c0 -2 -8 -10 -17 -17 -16 -13 -17 -12 -4 4 13 16 21 21 21 13z"/>
<path d="M7811 4874 c0 -11 3 -14 6 -6 3 7 2 16 -1 19 -3 4 -6 -2 -5 -13z"/>
</g>
</svg>
