<svg width="200" height="200" viewBox="0 0 200 200" fill="none" xmlns="http://www.w3.org/2000/svg">
<g clip-path="url(#clip0_1067_195)">
<path d="M200 100C200 155.231 155.231 200 100 200C44.7688 200 0 155.231 0 100C0 44.7688 44.775 0 100 0C155.225 0 200 44.775 200 100Z" fill="#1A1918"/>
<path d="M101.687 61.0874L127.562 124.956L88.475 94.1655L101.687 61.0874ZM147.625 139.672L107.85 43.8749C106.712 41.1124 104.412 39.6499 101.684 39.6499C98.9562 39.6499 96.4844 41.1124 95.3469 43.8749L51.625 148.95H66.5719L83.8656 105.628L135.475 147.325C137.55 149.003 139.05 149.762 140.997 149.762C144.897 149.762 148.303 146.837 148.303 142.619C148.303 141.931 148.059 140.837 147.622 139.669L147.625 139.672Z" fill="white"/>
</g>
<defs>
<clipPath id="clip0_1067_195">
<rect width="200" height="200" fill="white"/>
</clipPath>
</defs>
</svg>
