<svg width="200" height="200" viewBox="0 0 200 200" fill="none" xmlns="http://www.w3.org/2000/svg">
<path d="M56.8422 83.6299C56.8422 86.0611 57.1053 88.0323 57.5658 89.4779C58.0922 90.9234 58.75 92.5004 59.6711 94.2088C60 94.7345 60.1316 95.2601 60.1316 95.7201C60.1316 96.3771 59.7369 97.0342 58.8816 97.6913L54.7369 100.451C54.1448 100.845 53.5527 101.042 53.0264 101.042C52.3685 101.042 51.7106 100.714 51.0527 100.122C50.1316 99.1369 49.3422 98.0855 48.6843 97.0342C48.0264 95.9172 47.3685 94.6687 46.6448 93.1575C41.5132 99.2026 35.0658 102.225 27.3027 102.225C21.7764 102.225 17.3685 100.648 14.1448 97.4942C10.9211 94.3402 9.27637 90.1349 9.27637 84.8783C9.27637 79.2932 11.2501 74.7594 15.2632 71.3426C19.2764 67.9258 24.6053 66.2174 31.3816 66.2174C33.6185 66.2174 35.9211 66.4145 38.3553 66.7431C40.7895 67.0716 43.2895 67.5973 45.9211 68.1886V63.392C45.9211 58.3982 44.8685 54.9157 42.829 52.8788C40.7237 50.8419 37.1711 49.8562 32.1053 49.8562C29.8027 49.8562 27.4343 50.1191 25.0001 50.7104C22.5658 51.3018 20.1974 52.0246 17.8948 52.9445C16.8422 53.4044 16.0527 53.6673 15.5922 53.7987C15.1316 53.9301 14.8027 53.9958 14.5395 53.9958C13.6185 53.9958 13.1579 53.3387 13.1579 51.9589V48.7392C13.1579 47.6879 13.2895 46.8994 13.6185 46.4395C13.9474 45.9795 14.5395 45.5195 15.4606 45.0596C17.7632 43.8769 20.5264 42.8912 23.7501 42.1028C26.9737 41.2486 30.3948 40.8543 34.0132 40.8543C41.8422 40.8543 47.5658 42.6284 51.2501 46.1766C54.8685 49.7248 56.7106 55.1128 56.7106 62.3407V83.6299H56.8422ZM30.1316 93.6174C32.3027 93.6174 34.5395 93.2232 36.9079 92.4347C39.2764 91.6462 41.3816 90.2006 43.1579 88.2294C44.2106 86.981 45.0001 85.6011 45.3948 84.0241C45.7895 82.4472 46.0527 80.5416 46.0527 78.3076V75.5479C44.1448 75.0879 42.1053 74.6937 40 74.4308C37.8948 74.168 35.8553 74.0366 33.8158 74.0366C29.4079 74.0366 26.1843 74.8908 24.0132 76.6649C21.8422 78.439 20.7895 80.9359 20.7895 84.2213C20.7895 87.3095 21.579 89.6093 23.2237 91.1863C24.8027 92.8289 27.1053 93.6174 30.1316 93.6174ZM82.9606 100.714C81.7764 100.714 80.9869 100.517 80.4606 100.057C79.9343 99.6625 79.4737 98.7426 79.079 97.4942L63.6185 46.7023C63.2237 45.3881 63.0264 44.5339 63.0264 44.074C63.0264 43.0227 63.5527 42.4313 64.6053 42.4313H71.0527C72.3027 42.4313 73.1579 42.6284 73.6185 43.0884C74.1448 43.4826 74.5395 44.4025 74.9343 45.651L85.9869 89.1493L96.25 45.651C96.579 44.3368 96.9737 43.4826 97.5 43.0884C98.0264 42.6941 98.9474 42.4313 100.132 42.4313H105.395C106.645 42.4313 107.5 42.6284 108.026 43.0884C108.553 43.4826 109.013 44.4025 109.276 45.651L119.671 89.675L131.053 45.651C131.447 44.3368 131.908 43.4826 132.368 43.0884C132.895 42.6941 133.75 42.4313 134.934 42.4313H141.053C142.105 42.4313 142.697 42.957 142.697 44.074C142.697 44.4025 142.632 44.7311 142.566 45.1253C142.5 45.5195 142.368 46.0452 142.105 46.768L126.25 97.5599C125.855 98.874 125.395 99.7282 124.868 100.122C124.342 100.517 123.487 100.78 122.368 100.78H116.711C115.461 100.78 114.605 100.582 114.079 100.122C113.553 99.6625 113.092 98.8083 112.829 97.4942L102.632 55.1128L92.5001 97.4285C92.1711 98.7426 91.7764 99.5968 91.25 100.057C90.7237 100.517 89.8027 100.714 88.6185 100.714H82.9606ZM167.5 102.488C164.079 102.488 160.658 102.094 157.368 101.305C154.079 100.517 151.513 99.6625 149.803 98.6769C148.75 98.0855 148.026 97.4285 147.763 96.8371C147.5 96.2457 147.368 95.5887 147.368 94.9973V91.6462C147.368 90.2663 147.895 89.6093 148.882 89.6093C149.276 89.6093 149.671 89.675 150.066 89.8064C150.461 89.9378 151.053 90.2006 151.711 90.4635C153.947 91.4491 156.382 92.2376 158.947 92.7632C161.579 93.2889 164.145 93.5517 166.776 93.5517C170.921 93.5517 174.145 92.8289 176.382 91.3834C178.618 89.9378 179.803 87.8352 179.803 85.1412C179.803 83.3014 179.211 81.7901 178.026 80.5416C176.842 79.2932 174.605 78.1762 171.382 77.1248L161.842 74.168C157.04 72.6567 153.487 70.4227 151.316 67.4658C149.145 64.5747 148.026 61.3551 148.026 57.9383C148.026 55.1785 148.618 52.7474 149.803 50.6447C150.987 48.5421 152.566 46.7023 154.54 45.2567C156.513 43.7454 158.75 42.6284 161.382 41.8399C164.013 41.0514 166.776 40.7229 169.671 40.7229C171.118 40.7229 172.632 40.7886 174.079 40.9857C175.592 41.1829 176.974 41.4457 178.355 41.7085C179.671 42.0371 180.921 42.3656 182.105 42.7598C183.29 43.1541 184.211 43.5483 184.868 43.9426C185.79 44.4682 186.447 44.9939 186.842 45.5853C187.237 46.1109 187.434 46.8337 187.434 47.7536V50.8419C187.434 52.2217 186.908 52.9445 185.921 52.9445C185.395 52.9445 184.54 52.6817 183.421 52.156C179.671 50.4476 175.461 49.5934 170.79 49.5934C167.04 49.5934 164.079 50.1848 162.04 51.4332C160 52.6817 158.947 54.5872 158.947 57.2812C158.947 59.121 159.605 60.698 160.921 61.9464C162.237 63.1949 164.671 64.4433 168.158 65.5603L177.5 68.5172C182.237 70.0284 185.658 72.1311 187.697 74.8251C189.737 77.5191 190.724 80.6073 190.724 84.0241C190.724 86.8496 190.132 89.4121 189.013 91.6462C187.829 93.8803 186.25 95.8515 184.211 97.4285C182.171 99.0712 179.737 100.254 176.908 101.108C173.947 102.028 170.855 102.488 167.5 102.488Z" fill="#252F3E"/>
<path fill-rule="evenodd" clipRule="evenodd" d="M179.935 134.422C158.29 150.389 126.842 158.865 99.8029 158.865C61.9082 158.865 27.7635 144.869 1.97398 121.609C-0.0654904 119.769 1.77661 117.272 4.21083 118.718C32.1056 134.882 66.5135 144.672 102.106 144.672C126.119 144.672 152.5 139.679 176.777 129.428C180.395 127.785 183.487 131.794 179.935 134.422Z" fill="#FF9900"/>
<path fill-rule="evenodd" clipRule="evenodd" d="M188.948 124.171C186.185 120.623 170.659 122.463 163.619 123.317C161.514 123.58 161.185 121.74 163.093 120.36C175.461 111.687 195.79 114.184 198.159 117.075C200.527 120.032 197.501 140.336 185.922 150.06C184.145 151.572 182.435 150.783 183.224 148.812C185.856 142.307 191.711 127.654 188.948 124.171Z" fill="#FF9900"/>
</svg>
