<svg width="200" height="200" viewBox="0 0 200 200" fill="none" xmlns="http://www.w3.org/2000/svg">
<g clip-path="url(#clip0_1067_198)">
<path fill-rule="evenodd" clip-rule="evenodd" d="M97.6875 196.175L53.0937 180.175V114.831L97.6875 130.019V196.175ZM105.813 196.175L150.406 180.175V114.831L105.813 130.031V196.175ZM57.6875 109.925L102.688 97.2188L144.537 110.719L102.688 124.925L57.6875 109.925ZM44.6125 104.925L0 88.875V23.4375L44.5938 38.625L44.6125 104.925ZM52.7812 104.925L97.375 88.925V23.4375L52.7687 38.7L52.7812 104.925ZM4.65625 18.675L49.6563 5.90625L91.5062 19.4063L49.6563 33.6125L4.65625 18.675ZM148.731 104.925L104.138 88.925V23.4375L148.731 38.625V104.925ZM156.856 104.925L201.45 88.925V23.4375L156.856 38.625V104.925ZM108.731 18.675L153.731 5.96875L195.581 19.4688L153.731 33.675L108.731 18.675Z" fill="#FF9900"/>
</g>
<defs>
<clipPath id="clip0_1067_198">
<rect width="200" height="200" fill="white"/>
</clipPath>
</defs>
</svg>
