<svg width="200" height="200" viewBox="0 0 200 200" fill="none" xmlns="http://www.w3.org/2000/svg">
<g clip-path="url(#clip0_1067_193)">
<path fill-rule="evenodd" clip-rule="evenodd" d="M175.357 40.8124L112.2 3.32486C108.531 1.1463 104.343 -0.00341797 100.075 -0.00341797C95.8081 -0.00341797 91.6196 1.1463 87.9504 3.32486L24.7816 40.8124C21.0273 43.0525 17.9207 46.2313 15.7674 50.036C13.6141 53.8408 12.4881 58.1405 12.5004 62.5124V137.487C12.4772 141.849 13.587 146.142 15.7212 149.946C17.8554 153.75 20.9408 156.934 24.6754 159.187L87.8316 196.675C91.5009 198.853 95.6893 200.003 99.9566 200.003C104.224 200.003 108.412 198.853 112.082 196.675L175.25 159.187C178.985 156.934 182.07 153.75 184.205 149.946C186.339 146.142 187.449 141.849 187.425 137.487V62.5124C187.46 58.1615 186.367 53.8758 184.254 50.0729C182.14 46.2699 179.077 43.0795 175.363 40.8124H175.357ZM126.438 157.887V163.262C126.432 163.937 126.082 164.556 125.513 164.919L122.313 166.75C121.813 167.012 121.388 166.75 121.388 166.044V160.75C119.129 161.86 116.543 162.111 114.113 161.456C113.725 161.194 113.575 160.694 113.763 160.206L114.907 155.331C115.007 154.919 115.219 154.55 115.544 154.269C115.635 154.178 115.741 154.104 115.857 154.05C116.017 153.987 116.196 153.987 116.357 154.05C118.587 154.649 120.964 154.348 122.975 153.212C124.404 152.514 125.617 151.443 126.487 150.112C127.356 148.78 127.849 147.239 127.913 145.65C127.913 142.912 126.413 141.775 122.788 141.744C118.2 141.744 114.038 140.869 113.85 134.094C113.957 128.237 116.675 122.737 121.263 119.094V113.644C121.257 113.019 121.613 112.394 122.188 111.969L125.275 110.006C125.775 109.744 126.2 110.006 126.2 110.731V116.181C128.092 115.321 130.203 115.068 132.244 115.456C132.682 115.706 132.857 116.256 132.644 116.706L131.563 121.537C131.469 121.912 131.282 122.244 131.013 122.506C130.925 122.6 130.825 122.681 130.7 122.756C130.575 122.831 130.388 122.806 130.238 122.756C128.248 122.32 126.167 122.66 124.419 123.706C123.144 124.256 122.052 125.158 121.271 126.305C120.489 127.453 120.051 128.8 120.007 130.187C120.007 132.656 121.307 133.406 125.675 133.5C131.519 133.5 134.032 136.144 134.1 142.012C133.988 148.156 131.182 153.937 126.425 157.825L126.438 157.887ZM159.519 148.825C159.594 149.287 159.407 149.762 159.032 150.037L143.125 159.737C142.975 159.862 142.75 159.881 142.582 159.781C142.413 159.681 142.332 159.469 142.375 159.281V155.156C142.394 154.706 142.688 154.306 143.1 154.144L158.825 144.725C158.975 144.6 159.2 144.581 159.369 144.681C159.538 144.781 159.619 144.994 159.575 145.181V148.819L159.519 148.825ZM170.55 56.6249L110.788 93.5374C103.332 97.9499 97.8504 102.775 97.8504 111.75V185.362C97.8504 190.737 100.057 194.112 103.363 195.237C102.27 195.441 101.162 195.552 100.05 195.569C96.5403 195.561 93.0971 194.609 90.0816 192.812L26.9254 155.331C20.6254 151.562 16.8879 144.781 16.9129 137.5V62.5124C16.8754 55.2124 20.6254 48.4374 26.9254 44.6499L90.0816 7.16236C96.2066 3.53736 103.807 3.53736 109.932 7.16236L173.088 44.6499C178.294 47.7999 181.838 53.0874 182.788 59.0249C180.738 54.5686 176.019 53.3999 170.525 56.5561H170.544L170.55 56.6249Z" fill="#1B1B1F"/>
</g>
<defs>
<clipPath id="clip0_1067_193">
<rect width="200" height="200" fill="white"/>
</clipPath>
</defs>
</svg>
