<svg width="200" height="200" viewBox="0 0 200 200" fill="none" xmlns="http://www.w3.org/2000/svg">
<g clip-path="url(#clip0_1067_214)">
<path d="M170 0H30C13.4315 0 0 13.4315 0 30V170C0 186.569 13.4315 200 30 200H170C186.569 200 200 186.569 200 170V30C200 13.4315 186.569 0 170 0Z" fill="#066DA5"/>
<path d="M115.625 95.7031H132.032V80.8594H115.625V95.7031ZM96.0942 95.7031H112.5V80.8594H96.0942V95.7031ZM76.9536 95.7031H93.3599V80.8594H76.9536V95.7031ZM57.813 95.7031H73.8286V80.8594H57.813V95.7031ZM38.2817 95.7031H54.688V80.8594H38.2817V95.7031ZM57.813 77.7344H73.8286V62.8906H57.813V77.7344ZM76.9536 77.7344H93.3599V62.8906H76.9536V77.7344ZM96.0942 77.7344H112.5V62.8906H96.0942V77.7344ZM96.0942 59.7656H112.5V44.9219H96.0942V59.7656ZM184.375 89.0625C184.375 89.0625 177.344 82.4219 162.891 84.7656C161.329 73.4375 149.219 66.7969 149.219 66.7969C149.219 66.7969 137.891 80.4688 146.094 95.7031C143.75 96.875 139.844 98.4375 133.985 98.4375H26.563C24.6099 105.859 24.6099 155.078 78.5161 155.078C117.188 155.078 146.094 137.109 159.766 104.297C180.079 105.859 184.375 89.0625 184.375 89.0625Z" fill="white"/>
</g>
<defs>
<clipPath id="clip0_1067_214">
<rect width="200" height="200" fill="white"/>
</clipPath>
</defs>
</svg>
