<svg width="200" height="200" viewBox="0 0 200 200" fill="none" xmlns="http://www.w3.org/2000/svg">
<path d="M200 154.969C192.725 156.819 188.225 155.05 184.187 148.988L155.475 109.263L151.325 103.763L117.794 149.119C113.963 154.575 109.944 156.95 102.794 155.019L145.731 97.3815L105.756 45.319C112.631 43.9815 117.381 44.6627 121.6 50.819L151.381 91.0377L181.381 51.0377C185.225 45.5815 189.356 43.5065 196.256 45.519L180.756 66.069L159.756 93.4127C157.256 96.5377 157.6 98.6752 159.9 101.694L200 154.969ZM0.05 96.419L3.5625 79.144C13.125 44.9565 52.3125 30.7502 79.3375 51.8752C95.1313 64.3002 99.0562 81.8752 98.275 101.563H9.25C7.9125 137 33.4188 158.388 65.9375 147.475C77.3438 143.644 84.0625 134.713 87.425 123.538C89.1312 117.938 91.9563 117.063 97.2188 118.663C94.5313 132.638 88.4687 144.313 75.6562 151.619C56.5125 162.556 29.1875 159.019 14.8125 143.819C6.25 135 2.7125 123.825 1.125 111.875C0.875 109.9 0.375 108.019 0 106.125C0.0333333 102.892 0.05 99.6585 0.05 96.4252V96.419ZM9.4125 94.044H89.8625C89.3375 68.419 73.3812 50.219 51.575 50.0627C27.6375 49.8752 10.45 67.644 9.4125 94.044Z" fill="black"/>
</svg>
