<svg width="200" height="200" viewBox="0 0 200 200" fill="none" xmlns="http://www.w3.org/2000/svg">
<g clip-path="url(#clip0_1067_208)">
<path d="M196.225 91.094L108.906 3.7752C107.71 2.57898 106.291 1.63004 104.728 0.982613C103.166 0.335186 101.491 0.00195313 99.7998 0.00195312C98.1085 0.00195313 96.4338 0.335186 94.8713 0.982613C93.3088 1.63004 91.8892 2.57898 90.6936 3.7752L72.5686 21.9002L95.5686 44.9002C100.919 43.0252 107.044 44.3065 111.306 48.569C113.335 50.6017 114.752 53.164 115.394 55.9634C116.036 58.7628 115.878 61.6864 114.937 64.4002L137.106 86.569C142.469 84.719 148.656 85.9127 152.937 90.2065C154.361 91.6301 155.489 93.3201 156.259 95.1799C157.03 97.0398 157.426 99.0332 157.425 101.046C157.425 103.059 157.028 105.052 156.258 106.912C155.487 108.772 154.358 110.461 152.934 111.885C151.511 113.308 149.821 114.437 147.961 115.207C146.101 115.977 144.107 116.373 142.094 116.373C140.081 116.372 138.088 115.976 136.229 115.205C134.369 114.434 132.679 113.305 131.256 111.881C126.756 107.381 125.644 100.756 127.919 95.2127L107.244 74.5377V128.944C108.744 129.687 110.116 130.666 111.306 131.844C112.729 133.267 113.858 134.957 114.628 136.816C115.399 138.676 115.795 140.669 115.795 142.681C115.795 144.694 115.399 146.687 114.628 148.547C113.858 150.406 112.729 152.096 111.306 153.519C109.883 154.942 108.193 156.071 106.334 156.841C104.474 157.612 102.481 158.008 100.469 158.008C98.4559 158.008 96.4629 157.612 94.6034 156.841C92.7439 156.071 91.0543 154.942 89.6311 153.519C88.2062 152.097 87.0758 150.407 86.3045 148.548C85.5332 146.688 85.1362 144.695 85.1362 142.681C85.1362 140.668 85.5332 138.675 86.3045 136.815C87.0758 134.956 88.2062 133.266 89.6311 131.844C91.1123 130.369 92.7561 129.25 94.6498 128.5V73.5877C92.8248 72.8377 91.1123 71.7315 89.6311 70.244C87.479 68.0945 86.0158 65.3529 85.4281 62.3686C84.8404 59.3843 85.1547 56.2926 86.3311 53.4877L63.6436 30.8127L3.76857 90.6252C2.5714 91.821 1.62167 93.241 0.973694 94.804C0.325713 96.3671 -0.0078125 98.0425 -0.0078125 99.7346C-0.0078125 101.427 0.325713 103.102 0.973694 104.665C1.62167 106.228 2.5714 107.648 3.76857 108.844L91.0936 196.156C92.2892 197.353 93.7088 198.302 95.2713 198.949C96.8338 199.596 98.5085 199.93 100.2 199.93C101.891 199.93 103.566 199.596 105.128 198.949C106.691 198.302 108.11 197.353 109.306 196.156L196.225 109.375C197.422 108.179 198.372 106.759 199.02 105.196C199.668 103.633 200.001 101.958 200.001 100.266C200.001 98.5738 199.668 96.8983 199.02 95.3353C198.372 93.7722 197.422 92.3522 196.225 91.1565" fill="#F03C2E"/>
</g>
<defs>
<clipPath id="clip0_1067_208">
<rect width="200" height="200" fill="white"/>
</clipPath>
</defs>
</svg>
