<svg width="200" height="200" viewBox="0 0 200 200" fill="none" xmlns="http://www.w3.org/2000/svg">
<g clip-path="url(#clip0_1067_202)">
<mask id="mask0_1067_202" style="mask-type:luminance" maskUnits="userSpaceOnUse" x="7" y="0" width="186" height="201">
<path d="M89.9382 22.8325C89.9382 22.8325 89.8679 23.1237 89.7776 23.6156C88.9442 23.8566 88.1108 24.0876 87.2774 24.3587C86.1227 24.7101 84.9882 25.1318 83.8335 25.5435C82.6989 25.9852 81.5442 26.427 80.4197 26.9291C78.1505 27.903 75.9014 28.9974 73.7025 30.2324C71.5738 31.4273 69.4753 32.7426 67.4371 34.1684C67.1459 34.0278 66.915 33.9274 66.915 33.9274C46.1007 25.9752 27.6158 35.544 27.6158 35.544C25.929 57.6836 35.9295 71.6401 37.9075 74.1704C37.4155 75.5359 36.9536 76.9215 36.5319 78.3172C34.9957 83.3375 33.841 88.4884 33.1281 93.8099C33.0277 94.573 32.9374 95.3462 32.847 96.1193C13.6191 105.618 7.91602 125.087 7.91602 125.087C23.971 143.551 42.6868 144.696 42.6868 144.696C42.7069 144.686 42.717 144.666 42.737 144.656C45.1167 148.903 47.8678 152.949 50.9704 156.715C52.2656 158.291 53.6312 159.817 55.0469 161.293C49.1932 178.031 55.8702 191.957 55.8702 191.957C73.7426 192.63 85.4802 184.136 87.9502 182.178C89.7274 182.78 91.5347 183.312 93.352 183.784C98.8443 185.2 104.467 186.033 110.09 186.274C111.496 186.335 112.901 186.365 114.297 186.355H114.98L115.421 186.345L116.305 186.315L117.179 186.274L117.199 186.305C125.613 198.313 140.423 200.01 140.423 200.01C150.955 188.905 151.558 177.89 151.558 175.511C151.558 175.511 151.558 175.43 151.558 175.35C151.558 175.149 151.548 175.019 151.548 175.019C151.538 174.848 151.538 174.687 151.518 174.507C153.727 172.96 155.835 171.294 157.833 169.507C162.05 165.691 165.735 161.353 168.788 156.664C169.079 156.223 169.36 155.781 169.631 155.329C181.549 156.012 189.953 147.949 189.953 147.949C187.975 135.529 180.897 129.474 179.421 128.33C179.421 128.33 179.36 128.28 179.27 128.219C179.19 128.159 179.129 128.119 179.129 128.119C179.059 128.069 178.969 128.008 178.868 127.948C178.939 127.195 179.009 126.452 179.049 125.709C179.139 124.374 179.17 123.028 179.18 121.703L179.17 120.709L179.16 120.207V119.956C179.16 119.614 179.15 119.745 179.15 119.614L179.109 118.781L179.049 117.657C179.029 117.265 178.999 116.934 178.969 116.582C178.939 116.241 178.909 115.889 178.868 115.548L178.748 114.514L178.607 113.49C178.407 112.124 178.145 110.769 177.834 109.433C176.589 104.082 174.501 99.0009 171.74 94.4324C168.978 89.8639 165.544 85.8176 161.679 82.4138C157.813 78.9999 153.476 76.2588 148.927 74.2106C144.379 72.1623 139.599 70.8469 134.84 70.2445C132.46 69.9332 130.091 69.8127 127.741 69.8429L126.868 69.8629L126.647 69.873C126.587 69.873 126.316 69.883 126.346 69.883L125.984 69.9031L125.111 69.9634C124.779 69.9834 124.438 70.0136 124.147 70.0437C122.942 70.1642 121.747 70.3248 120.562 70.5457C115.843 71.4293 111.385 73.1362 107.459 75.4857C103.533 77.8352 100.119 80.7771 97.3382 84.1106C94.567 87.4341 92.4082 91.119 90.9222 94.9345C89.4362 98.7499 88.6028 102.686 88.3719 106.511C88.3116 107.465 88.2915 108.419 88.3116 109.363C88.3116 109.594 88.3217 109.835 88.3317 110.066L88.3618 110.829C88.3919 111.291 88.4321 111.743 88.4723 112.194C88.663 114.132 89.0145 115.99 89.5366 117.787C90.5708 121.372 92.2375 124.615 94.2858 127.366C96.3341 130.127 98.784 132.406 101.385 134.183C103.985 135.961 106.766 137.236 109.517 138.049C112.279 138.862 115.02 139.214 117.6 139.204C117.922 139.204 118.243 139.194 118.564 139.184C118.735 139.184 118.906 139.164 119.076 139.164C119.247 139.154 119.418 139.144 119.588 139.133C119.859 139.103 120.141 139.083 120.412 139.053C120.472 139.053 120.562 139.033 120.643 139.023L120.894 138.993C121.064 138.973 121.225 138.943 121.396 138.923C121.737 138.882 122.028 138.812 122.329 138.762C122.631 138.702 122.932 138.641 123.233 138.561C123.825 138.431 124.398 138.25 124.97 138.079C126.095 137.708 127.149 137.256 128.133 136.754C129.117 136.252 130.021 135.68 130.864 135.087C131.105 134.916 131.336 134.736 131.567 134.555C132.47 133.852 132.611 132.527 131.888 131.643C131.256 130.87 130.171 130.669 129.308 131.151C129.097 131.272 128.876 131.382 128.655 131.493C127.902 131.854 127.119 132.195 126.285 132.466C125.452 132.728 124.589 132.948 123.685 133.109C123.233 133.169 122.781 133.24 122.319 133.28C122.088 133.31 121.857 133.32 121.616 133.32C121.386 133.33 121.135 133.35 120.924 133.34C120.703 133.34 120.482 133.33 120.251 133.33C119.97 133.32 119.689 133.3 119.408 133.29C119.408 133.29 119.267 133.29 119.377 133.28L119.287 133.27L119.096 133.25C118.966 133.24 118.845 133.23 118.715 133.21C118.464 133.179 118.213 133.149 117.962 133.109C115.944 132.828 113.895 132.236 111.927 131.342C109.949 130.448 108.062 129.223 106.355 127.687C104.648 126.161 103.162 124.313 101.997 122.225C100.832 120.147 100.019 117.827 99.6375 115.397C99.4467 114.182 99.3664 112.927 99.3965 111.702C99.4166 111.361 99.4266 111.03 99.4467 110.688C99.4467 110.779 99.4568 110.638 99.4568 110.628L99.4668 110.508L99.4869 110.257C99.4969 110.086 99.517 109.925 99.5371 109.755C99.6074 109.092 99.7078 108.419 99.8283 107.766C100.762 102.475 103.413 97.3141 107.509 93.3882C108.534 92.4143 109.638 91.5006 110.813 90.6973C111.988 89.8941 113.243 89.1711 114.548 88.5687C115.853 87.9663 117.219 87.4743 118.614 87.0927C120.01 86.7212 121.446 86.4702 122.902 86.3397C123.625 86.2794 124.358 86.2493 125.091 86.2493C125.281 86.2493 125.432 86.2593 125.583 86.2593L126.175 86.2794L126.546 86.2895C126.697 86.2895 126.546 86.2895 126.617 86.2995L126.767 86.3096L127.36 86.3497C128.936 86.4802 130.513 86.7011 132.059 87.0526C135.161 87.7454 138.174 88.88 140.985 90.4363C146.608 93.5489 151.397 98.4186 154.339 104.292C155.825 107.214 156.849 110.367 157.371 113.62C157.492 114.433 157.592 115.257 157.662 116.08L157.713 116.703L157.743 117.325C157.753 117.536 157.753 117.737 157.763 117.948C157.763 118.149 157.773 118.379 157.773 118.53V119.062L157.763 119.665C157.743 120.066 157.713 120.719 157.693 121.121C157.622 122.014 157.552 122.918 157.432 123.811C157.321 124.695 157.17 125.579 157.01 126.462C156.829 127.336 156.648 128.209 156.417 129.073C155.986 130.81 155.423 132.507 154.771 134.173C153.455 137.507 151.698 140.67 149.58 143.592C145.333 149.425 139.539 154.194 132.952 157.187C129.659 158.673 126.185 159.767 122.611 160.359C120.823 160.661 119.016 160.841 117.209 160.902L116.877 160.912H116.586L116.004 160.922H115.11H114.668C114.919 160.922 114.628 160.922 114.638 160.912L114.458 160.902C113.484 160.882 112.52 160.831 111.556 160.761C107.69 160.47 103.865 159.787 100.16 158.703C96.4546 157.628 92.86 156.193 89.4563 154.385C82.6587 150.751 76.5841 145.77 71.8248 139.766C69.4352 136.774 67.3467 133.561 65.6197 130.177C63.8927 126.794 62.5372 123.249 61.5332 119.624C60.5391 116 59.9166 112.285 59.6756 108.55L59.6355 107.847L59.6254 107.676V107.525L59.6154 107.214L59.5953 106.602L59.5853 106.451V106.24V105.809L59.5752 104.935V104.764C59.5752 104.794 59.5752 104.794 59.5752 104.704V104.363C59.5752 103.911 59.5953 103.449 59.6054 102.997C59.6756 101.15 59.8262 99.252 60.0672 97.3543C60.3082 95.4566 60.6195 93.5489 61.011 91.6512C61.4026 89.7635 61.8645 87.8859 62.3866 86.0485C63.4409 82.3636 64.7562 78.7891 66.3125 75.4154C69.4352 68.6581 73.5318 62.704 78.4517 57.9045C79.6766 56.6996 80.9518 55.565 82.2772 54.5007C83.6025 53.4364 84.9781 52.4524 86.3939 51.5287C87.7995 50.5949 89.2554 49.7515 90.7515 48.9683C91.4945 48.5667 92.2576 48.2153 93.0207 47.8438C93.4022 47.6731 93.7938 47.5024 94.1754 47.3317C94.5569 47.161 94.9485 46.9903 95.3401 46.8397C96.8964 46.177 98.5029 45.6248 100.109 45.1027C100.521 44.9822 100.923 44.8516 101.324 44.7312C101.726 44.6006 102.148 44.5103 102.549 44.3898C103.363 44.1588 104.196 43.9681 105.019 43.7572C105.431 43.6468 105.853 43.5765 106.264 43.4861C106.686 43.3958 107.098 43.3054 107.519 43.2251C107.941 43.1447 108.363 43.0745 108.774 42.9941L109.407 42.8837L110.04 42.7833C110.461 42.723 110.883 42.6527 111.305 42.5925C111.777 42.5122 112.259 42.472 112.731 42.4017C113.122 42.3515 113.755 42.2812 114.146 42.231C114.447 42.2009 114.739 42.1708 115.04 42.1407L115.632 42.0804L115.933 42.0503L116.285 42.0302C116.767 42.0001 117.239 41.97 117.721 41.9399L118.434 41.8897C118.434 41.8897 118.695 41.8796 118.464 41.8796L118.614 41.8696L118.916 41.8595C119.327 41.8394 119.729 41.8194 120.141 41.7993C121.767 41.7491 123.384 41.7491 124.98 41.7993C128.183 41.9298 131.326 42.2812 134.378 42.8435C140.493 43.9781 146.246 45.9461 151.447 48.5165C156.658 51.0668 161.327 54.1995 165.384 57.6033C165.635 57.8141 165.886 58.035 166.137 58.2459C166.388 58.4668 166.629 58.6776 166.87 58.8985C167.362 59.3303 167.834 59.7821 168.306 60.2139C168.777 60.6557 169.229 61.1075 169.691 61.5493C170.133 62.0011 170.585 62.4429 171.017 62.9048C172.734 64.7221 174.33 66.5696 175.766 68.4271C178.647 72.1321 180.947 75.8673 182.784 79.4016C182.905 79.6225 183.015 79.8434 183.126 80.0643C183.236 80.2852 183.347 80.506 183.447 80.7269C183.658 81.1587 183.879 81.5904 184.069 82.0222C184.27 82.4539 184.471 82.8756 184.662 83.2974C184.843 83.7191 185.023 84.1408 185.204 84.5424C185.887 86.1991 186.509 87.7654 187.021 89.2615C187.865 91.6612 188.477 93.83 188.959 95.7076C189.15 96.4607 189.863 96.9627 190.636 96.8924C191.439 96.8221 192.052 96.1594 192.072 95.3562C192.112 93.338 192.062 90.9584 191.831 88.2474C191.53 84.8938 190.957 81.0081 189.823 76.7408C188.708 72.4735 187.052 67.8046 184.642 62.955C182.222 58.1154 179.069 53.075 174.973 48.2052C173.376 46.2975 171.629 44.4099 169.741 42.5724C172.553 31.3871 166.318 21.6878 166.318 21.6878C155.554 21.0151 148.706 25.0314 146.166 26.8688C145.744 26.6881 145.312 26.5074 144.881 26.3266C143.043 25.5836 141.166 24.8908 139.228 24.2783C137.29 23.6658 135.312 23.1036 133.294 22.6317C131.266 22.1597 129.207 21.7581 127.109 21.4368C126.737 21.3866 126.376 21.3364 126.004 21.2762C121.325 6.27542 107.841 0 107.841 0C92.7998 9.48843 89.9382 22.8325 89.9382 22.8325Z" fill="white"/>
</mask>
<g mask="url(#mask0_1067_202)">
<path d="M192.102 -0.0400391H7.91602V200H192.102V-0.0400391Z" fill="url(#paint0_linear_1067_202)"/>
</g>
</g>
<defs>
<linearGradient id="paint0_linear_1067_202" x1="99.9875" y1="244.991" x2="99.9875" y2="62.2338" gradientUnits="userSpaceOnUse">
<stop stop-color="#FFF200"/>
<stop offset="1" stop-color="#F15A29"/>
</linearGradient>
<clipPath id="clip0_1067_202">
<rect width="200" height="200" fill="white"/>
</clipPath>
</defs>
</svg>
