<svg width="200" height="200" viewBox="0 0 200 200" fill="none" xmlns="http://www.w3.org/2000/svg">
<g clip-path="url(#clip0_1067_228)">
<path d="M27.2035 152.427L19.8701 148.187L101.657 6.5332L108.99 10.7732L27.2035 152.427Z" fill="#E10098"/>
<path d="M18.1836 136.867H181.77V145.347H18.1836V136.867Z" fill="#E10098"/>
<path d="M103.243 188.88L21.4229 141.64L25.6629 134.307L107.483 181.547L103.243 188.88ZM174.323 65.7468L92.4962 18.5135L96.7362 11.1802L178.556 58.4202L174.323 65.7468Z" fill="#E10098"/>
<path d="M25.6834 65.72L21.4434 58.3866L103.337 11.1333L107.577 18.4666L25.6834 65.72Z" fill="#E10098"/>
<path d="M172.817 152.427L91.0166 10.76L98.3499 6.52002L180.15 148.187L172.817 152.427ZM24.6699 52.76H33.1499V147.24H24.6699V52.76ZM166.857 52.76H175.337V147.24H166.857V52.76Z" fill="#E10098"/>
<path d="M101.804 185.287L98.1035 178.873L169.27 137.787L172.97 144.2L101.804 185.287Z" fill="#E10098"/>
<path d="M186.57 150C184.201 154.091 180.307 157.077 175.741 158.303C171.175 159.528 166.31 158.895 162.21 156.54C158.119 154.171 155.133 150.277 153.907 145.711C152.682 141.145 153.315 136.28 155.67 132.18C158.039 128.089 161.933 125.103 166.499 123.878C171.065 122.652 175.93 123.286 180.03 125.64C188.61 130.593 191.523 141.473 186.563 150M44.2833 67.8268C41.9143 71.918 38.0204 74.9035 33.4544 76.1293C28.8885 77.3551 24.0229 76.7213 19.9233 74.3668C15.8303 71.9977 12.8435 68.1025 11.6176 63.535C10.3917 58.9675 11.0267 54.1002 13.3833 50.0001C15.7524 45.9089 19.6463 42.9234 24.2122 41.6976C28.7782 40.4717 33.6438 41.1055 37.7433 43.4601C41.8345 45.8291 44.82 49.7231 46.0459 54.289C47.2717 58.8549 46.6379 63.7272 44.2833 67.8268ZM13.4367 150C11.0821 145.901 10.4483 141.035 11.6741 136.469C12.9 131.903 15.8855 128.009 19.9767 125.64C24.0762 123.286 28.9419 122.652 33.5078 123.878C38.0737 125.103 41.9676 128.089 44.3367 132.18C46.6912 136.28 47.325 141.145 46.0992 145.711C44.8734 150.277 41.8879 154.171 37.7967 156.54C29.2167 161.44 18.33 158.533 13.4367 150ZM155.723 67.8334C153.369 63.7339 152.735 58.8682 153.961 54.3023C155.187 49.7364 158.172 45.8424 162.263 43.4734C166.363 41.1189 171.229 40.4851 175.794 41.7109C180.36 42.9367 184.254 45.9222 186.623 50.0134C188.978 54.113 189.612 58.9786 188.386 63.5445C187.16 68.1104 184.175 72.0044 180.083 74.3734C175.984 76.728 171.118 77.3618 166.552 76.136C161.986 74.9101 158.092 71.9246 155.723 67.8334ZM100.003 200C96.4773 200 93.0304 198.954 90.0987 196.995C87.167 195.036 84.8821 192.252 83.533 188.994C82.184 185.736 81.8313 182.151 82.5197 178.693C83.2081 175.235 84.9066 172.059 87.4003 169.566C89.8941 167.073 93.0712 165.376 96.5296 164.688C99.9881 164.001 103.573 164.355 106.83 165.706C110.087 167.056 112.871 169.342 114.829 172.274C116.787 175.207 117.831 178.654 117.83 182.18C117.818 186.904 115.935 191.43 112.595 194.769C109.254 198.109 104.727 199.99 100.003 200ZM100.003 35.6534C97.6613 35.6569 95.3416 35.1982 93.1772 34.3036C91.0128 33.409 89.0462 32.096 87.3902 30.4399C85.7341 28.7839 84.4211 26.8173 83.5265 24.6529C82.6319 22.4885 82.1732 20.1688 82.1767 17.8268C82.1767 13.0997 84.0545 8.56628 87.397 5.22375C90.7395 1.88123 95.273 0.00341797 100 0.00341797C104.727 0.00341797 109.26 1.88123 112.603 5.22375C115.946 8.56628 117.823 13.0997 117.823 17.8268C117.826 20.1676 117.367 22.4861 116.472 24.6493C115.578 26.8125 114.265 28.778 112.61 30.4333C110.955 32.0885 108.989 33.401 106.826 34.2956C104.663 35.1903 102.344 35.6561 100.003 35.6534Z" fill="#E10098"/>
</g>
<defs>
<clipPath id="clip0_1067_228">
<rect width="200" height="200" fill="white"/>
</clipPath>
</defs>
</svg>
