<svg width="200" height="200" viewBox="0 0 200 200" fill="none" xmlns="http://www.w3.org/2000/svg">
<g clip-path="url(#clip0_1067_150)">
<path fill-rule="evenodd" clip-rule="evenodd" d="M170.594 96.375C170.594 136 139.188 168.125 100.45 168.125C61.7125 168.125 30.3125 136 30.3125 96.375C30.3125 56.75 61.7125 24.625 100.45 24.625C139.188 24.625 170.594 56.75 170.594 96.375Z" fill="#D33833"/>
<path d="M33.1617 114.144C33.1617 114.144 28.0867 39.3252 97.0242 37.1877L92.2117 29.1689L54.7992 41.6689L44.1742 53.9627L34.8242 71.8689L29.4805 92.7127L31.0867 106.606" fill="#EF3D3A"/>
<path d="M52.4059 47.4373C40.0934 60.0311 32.4809 77.4186 32.4809 96.6498C32.4809 115.881 40.1059 133.275 52.4059 145.856C64.7059 158.437 81.6871 166.212 100.45 166.212C119.212 166.212 136.181 158.444 148.493 145.856C160.806 133.269 168.418 115.875 168.418 96.6498C168.418 77.4248 160.793 60.0248 148.493 47.4373C136.193 34.8498 119.212 27.0811 100.45 27.0811C81.6871 27.0811 64.7184 34.8498 52.4059 47.4373ZM49.2934 148.906C36.2121 135.531 28.1309 117.044 28.1309 96.6561C28.1309 76.2686 36.2184 57.7811 49.2934 44.4061C62.3684 31.0311 80.4684 22.7311 100.45 22.7373C120.431 22.7436 138.531 31.0311 151.606 44.4061C164.681 57.7811 172.775 76.2686 172.775 96.6561C172.775 117.044 164.687 135.531 151.606 148.906C138.525 162.281 120.431 170.575 100.45 170.575C80.4684 170.575 62.3684 162.281 49.2934 148.906Z" fill="#231F20"/>
<path fill-rule="evenodd" clip-rule="evenodd" d="M129.975 96.7752L119.35 98.3814L104.912 99.9877L95.5625 100.256L86.475 99.9877L79.525 97.8502L73.3813 91.1627L68.5687 77.5377L67.5062 74.6002L61.0937 72.4627L57.3438 66.3189L54.625 57.5002L57.5625 49.7502L64.5125 47.3439L70.125 50.0189L72.8 55.8939L76.0063 55.3564L77.0688 54.0189L76.0063 47.8752L75.7375 40.1252L77.3438 29.5002L77.2812 23.3939L82.1563 15.6064L90.7062 9.4627L105.656 2.98145L122.219 5.3877L136.656 15.8064L143.344 26.4314L147.619 34.1814L148.681 53.4189L145.475 69.9814L139.6 84.6689L133.987 92.4189" fill="#F0D6B7"/>
<path fill-rule="evenodd" clip-rule="evenodd" d="M120.887 143L82.675 144.607V151.019L85.8813 173.457L84.275 175.332L57.5625 166.25L55.6875 163.044L53.0125 132.857L46.8688 114.688L45.5312 110.413L66.9063 95.7253L73.5937 93.0503L79.4688 100.263L84.5438 104.807L90.4188 106.682L93.0875 107.482L96.2937 121.375L98.7 124.313L104.844 122.175L100.569 130.457L123.819 141.413L120.881 143.019" fill="#335061"/>
<path fill-rule="evenodd" clip-rule="evenodd" d="M57.5629 49.7503L64.5129 47.344L70.1254 50.019L72.8004 55.894L76.0066 55.3565L76.8066 52.1503L75.2004 46.0065L76.8066 31.3065L75.4691 23.2878L80.2816 17.6753L90.7004 9.39404L87.7629 5.39404L73.0629 12.6065L66.9191 17.419L63.4441 24.9003L58.1004 32.1128L56.4941 40.6628L57.5566 49.7503" fill="#6D6B6D"/>
<path fill-rule="evenodd" clip-rule="evenodd" d="M68.5121 24.6251C68.5121 24.6251 72.5121 14.7376 88.5559 9.93757C104.6 5.13757 89.3559 6.46257 89.3559 6.46257L71.9809 13.1501L65.2934 19.8376L62.3559 25.1813L68.4996 24.6438M60.4996 47.8751C60.4996 47.8751 54.8871 29.1688 76.2684 26.5001L75.4684 23.2938L60.7809 26.7688L56.5059 40.6626L57.5684 49.7501L60.4996 47.8751Z" fill="#DCD9D8"/>
<path fill-rule="evenodd" clip-rule="evenodd" d="M69.0508 72.7254L72.5508 69.3379C72.5859 69.8368 72.7862 70.3098 73.12 70.6822C73.4539 71.0546 73.9024 71.3051 74.3945 71.3942C74.6633 73.2692 75.457 90.1004 86.8945 99.1879C87.9445 100.019 78.3445 97.8504 78.3445 97.8504L69.7945 84.4879M118.157 67.6442C118.157 67.6442 118.782 59.5442 120.97 60.1692C123.157 60.7942 123.157 62.9817 123.157 62.9817C123.157 62.9817 117.857 66.4067 118.17 67.6567" fill="#F7E4CD"/>
<path d="M140.4 37.9814C140.4 37.9814 135.994 38.9189 135.587 42.7939C135.181 46.6689 140.4 43.5939 141.2 43.3314M108.125 38.2502C108.125 38.2502 102.25 39.0502 102.25 42.7939C102.25 46.5377 108.938 46.2689 110.8 44.6689" fill="#F7E4CD"/>
<path fill-rule="evenodd" clip-rule="evenodd" d="M71.7176 55.6248C71.7176 55.6248 61.5613 49.4748 60.4988 55.3561C59.4363 61.2373 57.0238 65.5123 62.1051 71.6561L58.6301 70.5936L55.4238 62.3123L54.3613 54.2936L60.5051 47.8811L67.4551 48.4186L71.4551 51.6248L71.7176 55.6248ZM76.5363 38.7873C76.5363 38.7873 81.0801 15.2748 104.061 10.6623C122.98 6.92483 132.918 11.4623 136.661 15.7373C136.661 15.7373 119.824 -4.30017 103.786 1.84358C87.7488 7.98733 75.9988 19.3436 76.2488 26.4873L76.5176 38.7811M138.518 18.4686C138.518 18.4686 130.768 18.1998 130.499 25.1561C130.526 25.8976 130.707 26.6254 131.03 27.2936C131.03 27.2936 137.18 20.3436 140.918 24.0873M104.586 28.0123C104.586 28.0123 103.255 17.3498 94.1613 23.5498C88.2863 27.5498 88.8176 33.1748 89.8863 34.1748C90.9551 35.1748 90.6676 37.3936 91.4801 35.9248C92.2926 34.4561 92.0238 29.6373 94.9676 28.2998C97.9113 26.9623 102.718 25.4686 104.593 27.9561" fill="#F7E4CD"/>
<path fill-rule="evenodd" clip-rule="evenodd" d="M79.4684 100.25L54.3434 111.475C54.3434 111.475 64.7621 152.894 59.4184 165.725L55.6684 164.387L55.3996 148.619L48.4746 118.75L45.5371 110.469L71.7871 92.8311L79.5371 100.312M82.0621 123.156L85.6246 127.506V143.537H81.3496L80.8184 131.037C80.8184 129.7 81.3496 124.894 81.3496 124.894M82.1434 145.937L70.1184 146.469L73.5934 148.875L82.1434 150.212" fill="#49728B"/>
<path fill-rule="evenodd" clip-rule="evenodd" d="M123.293 143.269L133.18 143L135.587 167.587L125.43 168.925L123.293 143.269Z" fill="#335061"/>
<path fill-rule="evenodd" clip-rule="evenodd" d="M125.967 143.269L140.93 142.469L147.073 126.169C147.073 125.369 152.417 103.731 152.417 103.731L140.392 91.1685L137.986 89.031L131.573 95.4435V120.294L125.961 143.275" fill="#335061"/>
<path fill-rule="evenodd" clip-rule="evenodd" d="M132.649 141.4L123.299 143.275L124.636 150.756C128.111 152.362 133.986 148.081 133.986 148.081M132.911 94.6435L151.618 108.537L152.155 102.125L137.993 89.031L132.911 94.6435Z" fill="#49728B"/>
<path fill-rule="evenodd" clip-rule="evenodd" d="M91.4191 195.912L85.8879 173.462L83.1379 156.9L82.6816 144.606L107.719 143.275H123.3L121.882 171.4L124.288 193.044L124.019 197.044L103.707 198.65L91.4129 195.975" fill="white"/>
<path fill-rule="evenodd" clip-rule="evenodd" d="M119.813 143C119.813 143 118.475 170.793 122.488 190.5C122.488 190.5 114.469 195.575 102.713 196.912L125.15 196.112L127.825 194.506L124.619 150.681L123.819 141.325" fill="#DCD9D8"/>
<path fill-rule="evenodd" clip-rule="evenodd" d="M136.044 165.45L146.463 162.512L166.238 161.45L169.175 152.362L163.832 136.593L157.688 135.793L149.138 138.468L140.932 142.468L136.575 141.668L133.182 143" fill="white"/>
<path fill-rule="evenodd" clip-rule="evenodd" d="M135.855 160.1C135.855 160.1 142.805 156.894 143.874 157.162L140.937 142.462L144.412 141.125L146.818 156.625L163.118 157.425C163.118 157.425 166.324 151.281 165.524 144.925L168.462 153.475L168.73 158.287L164.455 164.7L159.643 165.762L151.624 165.494L148.949 162.019L139.599 163.356L136.662 164.419" fill="#DCD9D8"/>
<path d="M125.351 141.125L119.476 126.163L113.332 117.35C113.332 117.35 114.67 113.6 116.538 113.6H122.682L128.557 115.738L128.026 125.625L125.351 141.125Z" fill="white"/>
<path fill-rule="evenodd" clip-rule="evenodd" d="M126.5 136.063C126.5 136.063 119.019 121.625 119.019 119.5C119.019 119.5 120.357 116.294 122.225 117.094C124.094 117.894 128.1 120.031 128.1 120.031V114.956L119.013 113.081L112.869 113.881L123.288 138.469L125.425 138.738" fill="#DCD9D8"/>
<path d="M93.8129 100.781L86.4129 99.9688L79.4629 97.8313V100.238L82.8566 103.988L93.4816 108.8" fill="white"/>
<path fill-rule="evenodd" clip-rule="evenodd" d="M81.8742 101.587C81.8742 101.587 90.1555 105.062 92.8305 104.262L93.0992 107.469L85.618 105.869L81.0742 102.662L81.8742 101.6" fill="#DCD9D8"/>
<path fill-rule="evenodd" clip-rule="evenodd" d="M136.012 114.519C131.481 114.394 127.387 113.85 123.794 112.831C124.044 111.362 123.581 109.919 123.95 108.856C124.95 108.137 126.625 108.15 128.138 107.981C126.825 107.337 124.994 107.087 123.487 107.456C123.45 106.437 122.988 105.806 122.719 105.006C125.269 104.094 131.281 98.1312 134.669 100.106C136.281 101.044 136.969 106.419 137.094 109.019C137.2 111.181 136.906 113.369 136.012 114.519Z" fill="#D33833"/>
<path d="M136.012 114.519C131.481 114.394 127.387 113.85 123.794 112.831C124.044 111.362 123.581 109.919 123.95 108.856C124.95 108.137 126.625 108.15 128.138 107.981C126.825 107.337 124.994 107.087 123.487 107.456C123.45 106.437 122.988 105.806 122.719 105.006C125.269 104.094 131.281 98.1312 134.669 100.106C136.281 101.044 136.969 106.419 137.094 109.019C137.2 111.181 136.906 113.369 136.012 114.519Z" stroke="#D33833" stroke-width="0.514"/>
<path fill-rule="evenodd" clip-rule="evenodd" d="M114.331 107.106L114.293 108.144C112.875 109.081 110.593 109.063 109.043 109.844C111.331 109.944 113.137 110.494 114.7 111.281L114.6 113.875C112.006 115.65 109.637 118.3 106.581 119.963C105.143 120.75 100.068 122.775 98.5309 122.419C97.6559 122.219 97.5809 121.138 97.2371 120.119C96.4996 117.931 94.7996 114.475 94.6434 111.194C94.4559 107.05 94.0371 100.113 98.4996 100.963C102.19 101.745 105.75 103.048 109.075 104.831C110.781 105.769 111.762 106.913 114.35 107.113" fill="#D33833"/>
<path d="M114.331 107.106L114.293 108.144C112.875 109.081 110.593 109.063 109.043 109.844C111.331 109.944 113.137 110.494 114.7 111.281L114.6 113.875C112.006 115.65 109.637 118.3 106.581 119.963C105.143 120.75 100.068 122.775 98.5309 122.419C97.6559 122.219 97.5809 121.138 97.2371 120.119C96.4996 117.931 94.7996 114.475 94.6434 111.194C94.4559 107.05 94.0371 100.113 98.4996 100.963C102.19 101.745 105.75 103.048 109.075 104.831C110.781 105.769 111.762 106.913 114.35 107.113L114.331 107.106Z" stroke="#D33833" stroke-width="0.514"/>
<path fill-rule="evenodd" clip-rule="evenodd" d="M116.907 112.05C116.513 109.8 116.051 109.15 116.232 107.175C122.251 103.163 123.376 114.063 116.907 112.05Z" fill="#D33833"/>
<path d="M116.907 112.05C116.513 109.8 116.051 109.15 116.232 107.175C122.251 103.163 123.376 114.063 116.907 112.05Z" stroke="#D33833" stroke-width="0.514"/>
<path fill-rule="evenodd" clip-rule="evenodd" d="M125.625 113.875C125.625 113.875 123.75 111.2 125.087 110.4C126.425 109.6 127.762 110.4 128.562 109.062C129.362 107.725 128.562 106.925 128.831 105.312C129.1 103.7 130.437 103.437 131.768 103.175C133.1 102.912 136.843 102.375 137.381 103.712L135.775 98.8999L132.568 97.8374L122.412 103.712L121.875 106.65V112.525M97.4995 122.687L96.462 110.187C95.837 103.969 97.962 105.05 103.35 105.05C104.175 105.05 108.35 106.031 108.725 106.656C110.181 109.631 106.225 108.969 110.412 111.219C113.887 113.112 120.025 110.069 118.618 105.856C117.831 104.919 114.525 105.562 113.337 104.95L107.075 101.7C104.418 100.325 98.2808 98.3124 95.4495 100.237C88.2745 105.112 95.8995 117.312 98.462 122.4" fill="#EF3D3A"/>
<path fill-rule="evenodd" clip-rule="evenodd" d="M104.593 28.0186C97.3117 26.3311 93.693 31.0686 91.4805 35.9873C89.5117 35.5123 90.2305 32.8311 90.8555 31.4623C92.1055 27.8748 97.418 23.1061 101.705 23.7498C103.555 24.0311 106.055 25.7186 104.655 28.0186M140.08 36.2498L140.424 36.2623C142.068 39.6811 143.549 43.3061 145.568 46.2623C144.174 49.4998 135.037 52.3686 135.174 46.5498C137.149 45.6873 140.562 46.3748 142.318 45.2686C141.305 42.4873 139.843 40.1186 140.068 36.1873M108.318 36.3998C109.88 39.2623 110.38 42.2748 112.605 44.4311C113.605 45.4061 115.543 46.5936 114.587 49.3061C113.904 50.3505 112.925 51.1668 111.774 51.6498C108.305 52.6748 100.212 51.8623 103.024 47.5373C105.899 47.6623 109.749 49.3998 111.899 47.3186C110.249 44.6936 107.318 39.4748 108.399 36.4061M138.837 65.4998C133.612 68.8561 127.787 72.4998 119.224 71.6623C117.393 70.0748 116.699 66.5373 118.474 64.1936C119.399 65.7811 118.818 68.7123 121.399 69.1498C126.255 69.9811 131.912 66.1811 135.399 64.8498C137.568 61.1936 135.212 59.8498 133.262 57.4998C129.262 52.6873 123.905 46.7123 124.099 39.4998C125.712 38.3311 125.849 41.2873 126.087 41.8248C128.174 46.6998 133.424 52.9498 137.255 57.1373C138.193 58.1686 139.755 59.1561 139.918 59.8373C140.418 61.8186 138.624 64.1873 138.83 65.5061M69.893 61.9623C68.2555 61.0248 67.868 56.9123 65.943 56.7936C63.193 56.6248 63.693 62.1373 63.7055 65.3561C61.8117 63.6373 61.4805 58.3561 62.868 55.6373C61.2867 54.8623 60.5742 56.4936 59.6992 57.0748C60.8242 48.8748 71.6992 53.3248 69.8867 61.9686M142.105 68.8436C139.605 73.4686 136.23 78.5686 129.093 78.7186C128.949 77.2186 128.843 74.9498 129.099 74.0498C134.555 73.5248 137.93 70.7498 142.105 68.8436ZM107.912 71.8436C112.462 74.2373 120.83 74.4936 127.018 74.3123C127.349 75.6686 127.343 77.3436 127.355 78.9998C119.399 79.3936 109.999 77.4373 107.98 71.8436M107.105 76.3061C110.255 84.2123 121.074 83.3061 130.199 83.0811C129.799 84.1061 128.924 85.3186 127.843 85.7561C124.918 87.0061 116.855 87.8498 112.799 85.6936C110.224 84.3186 108.574 81.2311 107.162 79.4186C106.537 78.5436 103.087 76.3061 107.112 76.2936" fill="#231F20"/>
<path fill-rule="evenodd" clip-rule="evenodd" d="M138.4 119.975L126.787 138.381C128.625 132.981 129.412 123.944 129.687 117.044C133.531 115.244 136.825 117.45 138.4 119.981" fill="#81B0C4"/>
<path fill-rule="evenodd" clip-rule="evenodd" d="M158.274 142.712C154.137 143.537 151.23 147.562 147.199 147.3C149.418 144.175 153.299 142.925 158.274 142.712ZM160.099 149.187C156.724 149.544 152.768 150.087 149.349 149.812C150.974 147.337 157.205 148.187 160.099 149.187ZM161.268 154.762C157.48 154.844 152.768 154.769 149.168 154.469C151.293 152.181 158.812 153.619 161.268 154.762Z" fill="#231F20"/>
<path fill-rule="evenodd" clip-rule="evenodd" d="M131.27 170.037C131.813 174.787 133.707 179.619 133.457 184.825C131.363 185.531 130.157 186.15 127.351 186.137L126.738 170.719C128.113 170.812 130.157 169.731 131.263 170.094" fill="#DCD9D8"/>
<path fill-rule="evenodd" clip-rule="evenodd" d="M125.162 99.9126C123.262 101.163 121.637 102.706 119.812 104.038C115.762 104.238 113.549 103.756 110.574 101.431C110.624 101.244 110.924 101.325 110.93 101.1C115.268 103.038 120.78 100.313 125.162 99.9126Z" fill="#F0D6B7"/>
<path fill-rule="evenodd" clip-rule="evenodd" d="M102.395 129.475C103.582 124.313 108.257 121.638 112.495 118.788C116.87 124.35 119.532 131.475 122.463 138.375C115.538 136.288 108.463 132.9 102.401 129.469" fill="#81B0C4"/>
<path fill-rule="evenodd" clip-rule="evenodd" d="M126.749 170.725C126.574 174.944 127.162 181.725 127.362 186.144C130.174 186.15 131.374 185.531 133.468 184.831C133.706 179.619 131.818 174.8 131.281 170.044C130.174 169.75 128.137 170.825 126.756 170.669L126.749 170.725ZM83.0495 146.725C84.8995 163.738 87.5807 177.975 92.4995 193.1C103.412 196.413 116.562 196.7 126.212 193.713C124.443 185.213 125.212 174.856 124.181 165.775L122.731 145.131C111.043 142.694 94.5245 144.569 83.0557 146.706L83.0495 146.725ZM125.549 145.256C125.449 152.569 125.874 159.769 126.437 167.088L133.749 165.813C132.906 158.769 132.999 150.844 131.281 144.613C129.281 144.631 127.537 144.588 125.549 145.256ZM139.781 144.081C138.449 143.769 136.906 144.069 135.624 144.094L138.124 162.875C140.124 162.938 141.187 162 142.843 161.675C142.931 156.188 142.362 148.625 139.718 144.081H139.781ZM161.331 163.769C165.506 162.756 168.124 157.644 166.956 152.394C166.174 148.869 164.781 142.225 163.287 139.969C162.187 138.3 159.193 136.113 156.806 137.644C152.918 140.131 146.074 140.856 143.243 143.863C144.662 148.594 145.106 155.088 145.693 161.081C150.549 161.381 156.518 159.744 160.556 161.481C157.743 162.394 154.081 162.4 151.649 163.731C153.637 164.694 158.299 164.5 161.337 163.763L161.331 163.769ZM122.531 138.394C119.593 131.5 116.937 124.356 112.562 118.806C108.324 121.65 103.656 124.325 102.462 129.494C108.524 132.931 115.606 136.306 122.524 138.4L122.531 138.394ZM129.756 117.05C129.481 123.944 128.693 132.988 126.856 138.388C131.231 132.806 134.774 126.306 138.468 119.981C136.893 117.456 133.593 115.25 129.756 117.044V117.05ZM121.631 114.138C119.968 113.95 118.568 116.044 116.399 115.138L114.949 116.813C119.718 122.563 121.824 130.713 125.574 137.463C127.549 130.975 127.324 123.869 127.762 116.788C125.049 116.963 123.543 114.331 121.637 114.131L121.631 114.138ZM116.362 107.188C116.187 109.156 116.643 109.8 117.037 112.063C123.506 114.088 122.374 103.188 116.362 107.188ZM109.187 104.831C105.863 103.048 102.302 101.746 98.612 100.963C94.1495 100.106 94.5682 107.05 94.7557 111.194C94.9057 114.475 96.612 117.944 97.3495 120.119C97.6995 121.138 97.7745 122.213 98.6432 122.419C100.181 122.775 105.249 120.75 106.693 119.963C109.756 118.294 112.118 115.588 114.712 113.875L114.812 111.281C113.249 110.506 111.449 109.95 109.156 109.844C110.718 109.063 112.993 109.075 114.406 108.144L114.443 107.106C111.856 106.906 110.881 105.756 109.168 104.825L109.187 104.831ZM82.562 99.9939C80.2495 102.344 89.0495 105.544 91.8557 105.719C91.837 104.231 92.7057 102.831 92.5307 101.763C89.1995 101.175 84.8245 101.563 82.5682 99.9939H82.562ZM111.062 101.094C111.049 101.325 110.749 101.238 110.706 101.425C113.681 103.75 115.893 104.238 119.943 104.031L125.293 99.9064C120.918 100.3 115.399 103.019 111.062 101.094ZM137.224 109.031C137.099 106.419 136.412 101.056 134.799 100.119C131.412 98.1439 125.393 104.106 122.849 105.019C123.124 105.819 123.587 106.456 123.618 107.469C125.118 107.094 126.962 107.344 128.268 107.994C126.756 108.163 125.143 108.15 124.081 108.869C123.706 109.931 124.168 111.369 123.924 112.844C127.512 113.856 131.612 114.394 136.143 114.531C137.018 113.388 137.331 111.2 137.224 109.031ZM78.662 102.269C77.937 101.75 73.0182 95.3564 72.412 95.6189C63.5182 99.1189 55.2057 105.181 47.7745 110.931C54.862 126.131 57.712 144.763 58.2245 162.713C66.3495 166.506 73.4745 171.981 84.4745 172.55L81.312 147C78.5432 145.831 74.5745 147.05 71.987 146.638C71.962 143.513 75.9432 145.263 76.2745 143.175C76.5245 141.588 74.087 141.469 74.8807 138.969C76.9057 139.706 77.9682 141.331 80.1307 141.938C82.1057 137.625 80.1057 129.988 80.3807 126.313C80.4432 125.638 80.7182 122.563 82.237 123.1C83.5807 123.575 82.162 131.288 82.2995 134.694C82.4245 137.838 81.9245 140.944 83.1932 142.856C93.837 141.406 104.649 140.469 116.162 140.156C113.631 139.069 110.618 138.031 107.318 136.181C105.531 135.181 99.8932 133.075 99.3807 131.369C98.5557 128.663 101.543 127.219 102.049 124.9C96.6745 127.838 95.6307 122.088 94.362 118.025C93.212 114.338 92.5495 111.588 92.2745 109.463C87.6495 107.256 82.6995 105.088 78.712 102.194L78.662 102.269ZM132.518 96.3939C139.931 92.8002 141.268 109.831 138.362 115.306C138.812 116.944 140.362 117.569 140.987 119.038L128.049 140.681C131.187 138.725 135.674 140.331 139.299 138.806C140.649 138.275 141.624 135.181 142.649 132.713C145.462 125.913 148.412 117.338 149.724 110.838C150.018 109.356 150.831 106.138 150.649 104.819C150.324 102.463 147.131 100.713 145.499 99.1939L137.499 91.6189C136.231 93.4939 133.512 94.7439 132.474 96.2689L132.518 96.3939ZM61.5932 30.6752C58.062 34.5627 58.7995 41.8377 59.2307 47.0189C65.6057 43.0064 74.0807 47.3314 74.0057 54.1627C77.0557 54.0814 75.1432 50.3502 74.5932 47.9564C72.7932 40.1189 77.6307 31.6064 74.812 24.4377C69.3432 24.8502 64.8557 27.0877 61.5995 30.6752H61.5932ZM86.8557 8.12517C78.8557 10.3877 68.6182 16.2002 65.337 23.3752C67.8807 23.0002 69.6495 21.7252 72.1495 21.5002C73.0995 21.4377 74.337 21.9002 75.4307 21.6252C77.5995 21.0877 79.4307 16.2189 81.0745 14.4064C82.6745 12.6377 84.5932 11.8814 85.9057 10.2689C86.7495 9.86267 87.9995 9.89392 88.0432 8.62517C87.6682 8.23142 87.2932 8.00017 86.7932 8.00017L86.8557 8.12517ZM128.462 10.2502C120.168 5.58142 106.124 2.06267 97.2995 6.45642C90.1745 10.0064 80.5495 15.8814 77.2682 23.3314C80.3307 30.5189 76.362 37.1002 76.1057 44.3939C75.9682 48.2689 77.9307 51.6627 78.0807 55.8939C77.0307 57.6252 73.8307 57.8314 71.6057 57.7189C70.8557 53.9814 69.5432 49.7814 65.7057 49.3564C60.2682 48.7627 56.2807 53.2689 56.0307 57.9814C55.737 63.5189 60.2807 72.7002 66.7307 72.0627C69.2182 71.8127 69.8307 69.3127 72.5432 69.3439C74.012 72.2814 70.2745 73.2002 69.8932 75.2939C69.7932 75.8377 70.2057 77.9564 70.4432 78.9502C71.612 83.7877 74.2245 90.0439 76.7932 93.7252C80.0557 98.3939 86.4557 99.1002 93.3557 99.5564C94.587 96.9064 99.1182 97.1189 102.074 97.8189C98.537 96.4189 95.2432 93.0189 92.512 90.0064C89.387 86.5564 86.1995 82.8502 86.0432 78.3377C91.962 86.5502 96.8557 93.7252 107.618 97.3377C115.762 100.069 125.281 96.0877 131.537 91.6877C134.137 89.8627 135.687 86.9627 137.537 84.3127C144.443 74.3127 147.662 60.1877 146.962 46.4377C146.668 40.7689 146.681 35.1252 144.774 31.3127C142.787 27.3252 136.062 23.7502 132.124 27.3627C131.393 23.4877 135.399 21.0877 140.099 22.4877C136.749 18.1627 133.224 12.9627 128.462 10.2752V10.2502ZM143.918 138.169C150.399 134.944 162.512 129.494 166.581 138.181C168.081 141.381 169.843 146.794 170.618 150.1C171.718 154.763 169.368 164.563 164.637 166.131C160.406 167.506 155.462 167.431 150.362 166.406C149.762 165.906 149.093 165.031 148.624 164.131C144.981 163.988 141.574 164.319 138.699 165.819C138.974 168.506 137.149 168.944 135.449 169.506C134.181 174.525 137.981 181.081 137.074 185.656C136.424 188.919 132.412 189.419 129.468 190.031C129.374 191.906 129.593 193.356 129.799 194.888C129.124 197.369 126.099 198.788 123.237 199.138C113.812 200.263 99.4995 200.781 90.4245 197.513C87.8932 191.306 85.8995 183.763 83.7995 176.669C74.9557 177.606 67.7995 172.856 61.062 169.731C58.7245 168.65 55.437 168.044 54.6245 166.194C53.7807 164.394 54.1245 160.944 53.9182 157.694C53.387 149.381 52.9182 141.35 50.7932 132.831C49.8057 129.006 48.087 125.644 46.887 121.956C45.7807 118.544 43.8432 114.331 43.337 110.919C42.587 105.875 47.337 105.594 50.3745 103.406C55.062 100.031 58.7495 98.1564 63.8432 95.1064C65.3432 94.2002 69.8932 91.9814 70.4057 90.8564C71.4307 88.7689 68.6432 85.8252 67.9057 84.1877C66.7182 81.6002 66.112 79.4002 65.9432 76.8439C61.6745 76.1689 58.4432 73.6314 56.487 70.7689C53.2557 66.0314 51.012 57.2689 53.812 50.6002C54.0307 50.0752 55.062 49.0377 55.287 48.2377C55.5995 46.6502 54.687 44.5377 54.6307 42.8502C54.337 34.1814 56.0995 26.7252 61.9307 24.1002C64.3057 14.7252 72.7745 11.5377 80.762 6.83767C83.7495 5.08767 87.037 3.96267 90.437 2.71267C102.624 -1.77483 121.337 -0.931078 131.456 6.72517C135.743 9.97517 142.606 16.8189 145.056 21.7877C151.537 34.8814 151.074 56.7689 146.543 72.7002C145.937 74.8377 145.043 77.9814 143.818 80.5502C142.956 82.3439 140.287 85.9252 140.612 87.5189C140.943 89.1564 146.706 93.5314 147.943 94.7252C150.168 96.8689 154.393 99.7252 154.737 102.425C155.112 105.3 153.468 109.25 152.637 112.031L144.012 138.156" fill="#231F20"/>
<path fill-rule="evenodd" clip-rule="evenodd" d="M100.668 73.9376C101.018 73.4688 102.955 72.7501 105.668 74.0626C105.668 74.0626 102.462 74.6001 102.73 79.9376L101.393 79.6688C101.393 79.6688 100.018 74.8188 100.68 73.9313" fill="#F7E4CD"/>
<path fill-rule="evenodd" clip-rule="evenodd" d="M124.1 119.887C124.1 120.7 123.443 121.356 122.631 121.356C121.818 121.356 121.162 120.7 121.162 119.887C121.162 119.075 121.818 118.419 122.631 118.419C123.443 118.419 124.1 119.075 124.1 119.887ZM125.562 126.762C125.562 127.575 124.906 128.231 124.093 128.231C123.281 128.231 122.625 127.575 122.625 126.762C122.625 125.95 123.281 125.294 124.093 125.294C124.906 125.294 125.562 125.95 125.562 126.762Z" fill="#1D1919"/>
</g>
<defs>
<clipPath id="clip0_1067_150">
<rect width="200" height="200" fill="white"/>
</clipPath>
</defs>
</svg>
