<svg width="200" height="200" viewBox="0 0 200 200" fill="none" xmlns="http://www.w3.org/2000/svg">
<g clip-path="url(#clip0_1067_41)">
<path d="M141.404 70.7933C143.584 75.5398 146.017 80.1678 148.179 84.923C152.34 94.0745 155.501 103.737 156.814 113.703C158.126 123.669 157.555 133.961 154.442 143.517C150.922 154.304 144.24 163.901 136.052 171.755C126.366 181.047 113.933 188.21 100.521 188.739C91.782 189.083 83.0817 186.585 75.3427 182.511C68.8389 179.088 62.9014 174.527 58.1643 168.908C53.4272 163.289 49.9098 156.598 48.281 149.431C46.2753 140.606 47.1831 131.236 50.2185 122.71C52.3895 116.613 55.6076 110.936 57.8985 104.882C60.4023 98.2681 61.8002 91.2052 65.1173 84.9591C68.1232 79.2955 72.6327 74.458 75.0281 68.5105C76.4587 64.9583 77.0793 61.143 78.0032 57.4262C78.927 53.7093 80.2204 49.9657 82.7363 47.0783C85.7689 43.5991 90.33 41.7132 94.9138 41.1837C99.4976 40.6541 104.138 41.3691 108.636 42.3954C112.218 43.2121 115.756 44.2264 119.217 45.4575C122.172 46.5086 125.099 47.7323 127.654 49.5506C131.135 52.0276 133.786 55.5155 135.898 59.2297C138.01 62.9439 139.627 66.9118 141.411 70.794L141.404 70.7933Z" fill="#020204"/>
<path d="M102.918 188.824C106.6 189.038 110.275 189.395 113.924 189.946C117.132 190.434 120.317 191.062 123.47 191.829C128.409 193.026 133.33 194.552 138.41 194.697C139.747 194.735 141.088 194.675 142.4 194.385C143.712 194.094 144.972 193.565 146.019 192.731C147.579 191.488 148.563 189.613 148.936 187.652C149.308 185.691 149.075 183.651 148.5 181.741C147.352 177.921 144.885 174.661 142.852 171.233C141.684 169.27 140.643 167.229 139.378 165.328C138.112 163.427 136.599 161.646 134.678 160.408C132.022 158.695 128.728 158.137 125.583 158.45C122.439 158.763 119.424 159.899 116.618 161.353C112.684 163.389 108.981 166.186 106.837 170.063C106.091 171.412 105.548 172.861 104.914 174.267C104.28 175.673 103.538 177.056 102.464 178.162C101.266 179.395 99.7113 180.226 98.4721 181.417C97.8528 182.02 97.3106 182.706 96.9993 183.505C96.688 184.303 96.603 185.216 96.8922 186.025C97.091 186.581 97.4545 187.068 97.9031 187.451C98.3516 187.834 98.8818 188.114 99.4381 188.308C100.549 188.699 101.748 188.757 102.924 188.825L102.918 188.824Z" fill="#020204"/>
<path d="M91.9732 188.586C88.9044 188.657 85.8677 189.206 82.8685 189.827C79.9952 190.421 77.1352 191.082 74.2967 191.827C69.5074 193.085 64.712 194.59 59.7614 194.695C58.4586 194.722 57.1464 194.652 55.8765 194.358C54.6065 194.064 53.3774 193.541 52.3584 192.728C50.8019 191.487 49.8125 189.615 49.4463 187.659C49.0801 185.703 49.3037 183.667 49.8714 181.759C51.0075 177.943 53.4436 174.676 55.4386 171.231C56.572 169.273 57.5722 167.237 58.798 165.335C60.0238 163.433 61.4999 161.648 63.3905 160.405C65.9666 158.711 69.1794 158.137 72.2475 158.439C75.3156 158.741 78.2559 159.872 80.9619 161.35C84.7818 163.437 88.2704 166.308 90.479 170.053C92.0288 172.684 92.9225 175.693 94.7341 178.152C95.7095 179.476 96.9433 180.62 97.7467 182.051C98.1523 182.766 98.4496 183.553 98.5185 184.374C98.5875 185.194 98.4181 186.046 97.9562 186.727C97.6516 187.177 97.2285 187.541 96.7559 187.81C96.2832 188.078 95.7617 188.255 95.2295 188.366C94.1583 188.588 93.0671 188.553 91.9792 188.58L91.9732 188.586ZM74.8256 60.7955C74.3945 55.6072 74.4909 50.39 74.3034 45.187C74.1173 40.1841 73.6567 35.1839 73.8248 30.1803C73.9961 25.0924 74.849 19.9375 77.1145 15.3651C79.38 10.7927 83.0593 6.92451 87.5481 4.50507C91.7657 2.2289 96.63 1.25617 101.429 1.30839C107.936 1.37935 114.459 3.34489 119.728 7.16216C123.032 9.55348 125.81 12.6364 128.002 16.0754C129.871 19.011 131.324 22.217 132.236 25.5818C134.106 32.4772 133.662 39.7396 134.026 46.868C134.371 53.6242 135.452 60.3644 135.084 67.1192C135.004 68.592 134.846 70.0876 134.192 71.4038C133.554 72.6858 132.472 73.7168 131.229 74.4277C129.986 75.1387 128.587 75.5431 127.172 75.7613C124.342 76.1978 121.448 75.9099 118.598 76.1744C114.46 76.558 110.514 78.0924 106.408 78.7277C101.521 79.4842 96.5289 78.9486 91.5809 78.7505C89.5993 78.6715 87.611 78.6467 85.6441 78.3997C83.6772 78.1526 81.7144 77.6766 79.9644 76.7434C78.8933 76.169 77.8937 75.4212 77.089 74.5007C76.2844 73.5802 75.6698 72.4923 75.3638 71.3027C74.9039 69.5266 75.1463 67.6568 75.153 65.8218C75.1597 64.1441 74.9642 62.4725 74.8182 60.8008L74.8256 60.7955Z" fill="#020204"/>
<path d="M82.6117 58.7965C81.9114 59.6735 81.4549 60.7292 81.179 61.8184C80.9032 62.9076 80.8028 64.033 80.7593 65.155C80.6736 67.3997 80.8102 69.6873 80.217 71.8537C79.581 74.17 78.1578 76.1757 76.7639 78.1319C74.3505 81.5194 71.9103 84.9939 70.7207 88.9785C69.9997 91.3919 69.7593 93.9479 70.0191 96.4531C67.3178 100.42 64.978 104.634 63.0413 109.026C60.105 115.681 58.0899 122.768 57.381 130.007C56.5134 138.872 57.6474 147.99 61.148 156.181C63.6786 162.103 67.453 167.524 72.3187 171.744C74.7924 173.889 77.5405 175.72 80.4861 177.164C90.6707 182.17 103.257 182.178 113.272 176.843C118.506 174.054 122.924 169.975 127.183 165.849C129.749 163.364 132.301 160.82 134.257 157.831C138.024 152.079 139.337 145.088 140.152 138.26C141.578 126.322 141.623 113.711 136.39 102.887C134.582 99.1535 132.191 95.7317 129.306 92.7509C128.539 87.5425 127.026 82.4432 124.826 77.6599C123.239 74.2088 121.299 70.9238 119.825 67.4238C119.22 65.9865 118.687 64.515 118.022 63.1078C117.357 61.7006 116.523 60.3463 115.395 59.2684C114.242 58.1638 112.804 57.3819 111.287 56.8811C109.77 56.3804 108.174 56.1534 106.581 56.0731C103.391 55.9124 100.194 56.3295 97.0038 56.203C94.4632 56.1026 91.9306 55.6567 89.392 55.8067C88.1227 55.8816 86.8547 56.1079 85.6765 56.5866C84.4982 57.0652 83.4124 57.803 82.6197 58.7958L82.6117 58.7965Z" fill="#FDFDFB"/>
<g filter="url(#filter0_f_1067_41)">
<path d="M81.0476 70.7036C82.1877 74.0094 84.482 76.8305 87.1973 79.0344C88.1011 79.7675 89.0598 80.443 90.1202 80.9203C91.1806 81.3976 92.3508 81.6701 93.509 81.571C94.6438 81.4746 95.7229 81.0287 96.7157 80.4691C97.7086 79.9094 98.6277 79.2326 99.5897 78.6234C101.239 77.579 103.004 76.7355 104.716 75.7982C106.779 74.6688 108.779 73.3882 110.517 71.8082C111.312 71.0819 112.054 70.2899 112.932 69.666C113.81 69.042 114.862 68.5908 115.937 68.6638C116.743 68.7187 117.499 69.0614 118.288 69.2315C118.69 69.3165 119.091 69.3587 119.491 69.2971C119.891 69.2355 120.281 69.0668 120.561 68.7749C120.903 68.4181 121.053 67.9046 121.029 67.4092C121.005 66.9138 120.839 66.4365 120.608 65.9986C120.146 65.123 119.446 64.3685 119.135 63.4292C118.858 62.5924 118.914 61.6886 118.938 60.809C118.962 59.9293 118.943 59.0081 118.536 58.2268C118.227 57.631 117.709 57.1591 117.116 56.8451C116.522 56.5311 115.857 56.3765 115.19 56.3068C113.855 56.1816 112.516 56.4407 111.177 56.5164C109.399 56.6168 107.615 56.3945 105.837 56.5016C103.621 56.6355 101.448 57.2782 99.2269 57.2822C96.6923 57.2869 94.1604 56.4575 91.6566 56.8538C90.5821 57.0238 89.5578 57.4148 88.5262 57.7589C87.4946 58.103 86.4288 58.4063 85.3416 58.3909C84.1071 58.3728 82.9114 57.9457 81.6796 57.8573C81.0637 57.8131 80.4331 57.8573 79.8547 58.0735C79.2762 58.2898 78.7534 58.6921 78.4702 59.2404C78.3075 59.5551 78.2272 59.9079 78.2118 60.2613C78.1964 60.6148 78.2453 60.969 78.331 61.3124C78.5017 61.9993 78.8157 62.6399 79.0674 63.2987C79.9999 65.678 80.2001 68.2849 81.0336 70.7003L81.0476 70.7036Z" fill="black" fill-opacity="0.26"/>
</g>
<g opacity="0.3" filter="url(#filter1_f_1067_41)">
<path d="M77.8697 61.282C80.0843 62.6509 82.0719 64.3307 83.7409 66.2472C85.2894 68.0256 86.6062 70.042 88.628 71.3592C90.0559 72.2891 91.7711 72.8132 93.511 72.9723C95.5542 73.1592 97.6215 72.857 99.5911 72.3236C101.417 71.8291 103.181 71.1335 104.801 70.2147C107.879 68.4659 110.451 65.9025 113.839 64.7531C114.58 64.5021 115.352 64.3226 116.066 64.0131C116.78 63.7035 117.452 63.2398 117.793 62.5837C118.128 61.9535 118.108 61.2258 118.215 60.5333C118.329 59.7934 118.586 59.0768 118.726 58.3406C118.867 57.6043 118.884 56.8162 118.539 56.1391C118.252 55.578 117.732 55.1352 117.133 54.8534C116.534 54.5716 115.861 54.444 115.189 54.4131C113.846 54.3515 112.519 54.669 111.18 54.7819C109.406 54.9311 107.62 54.7202 105.84 54.7696C103.625 54.8312 101.443 55.2937 99.2296 55.3893C96.7044 55.499 94.1859 55.1315 91.6593 55.0501C90.5667 55.0144 89.4668 55.0316 88.3897 55.2061C87.3125 55.3807 86.2554 55.713 85.3436 56.2705C84.4599 56.8113 83.7389 57.5451 82.9288 58.1759C82.5238 58.4916 82.0934 58.7833 81.6207 59.0053C81.1481 59.2273 80.6299 59.3784 80.101 59.4018C79.8286 59.4141 79.5534 59.3926 79.2843 59.4308C79.0585 59.4657 78.8425 59.5415 78.6487 59.6538C78.455 59.766 78.2872 59.9125 78.1552 60.0848C78.0232 60.2571 77.9295 60.4517 77.8796 60.6575C77.8297 60.8633 77.8245 61.0762 77.8644 61.2838L77.8697 61.282Z" fill="black"/>
</g>
<path d="M83.635 31.046C82.4434 31.1109 81.3019 31.6619 80.4296 32.4766C79.5573 33.2913 78.9434 34.3591 78.5645 35.4919C77.808 37.7573 77.9787 40.2129 78.1494 42.5882C78.3054 44.7452 78.4641 46.943 79.2721 48.9494C79.6758 49.9523 80.2428 50.8909 80.9993 51.6701C81.7558 52.4494 82.7078 53.0371 83.7562 53.2996C84.7403 53.5459 85.79 53.4951 86.7574 53.1911C87.7248 52.8872 88.6078 52.3342 89.3321 51.6259C90.3899 50.5916 91.1015 49.2386 91.5099 47.8167C91.9183 46.3947 92.0348 44.9032 92.0133 43.425C91.9866 41.5746 91.7455 39.7162 91.1658 37.9595C90.586 36.2028 89.6622 34.5432 88.3721 33.2157C87.7475 32.573 87.0345 32.0073 86.2298 31.611C85.4251 31.2147 84.5274 30.9917 83.6323 31.0399L83.635 31.046Z" fill="url(#paint0_radial_1067_41)"/>
<path d="M104.735 31.0459C102.873 32.3179 101.314 34.1087 100.55 36.2343C99.589 38.9135 99.9572 41.9113 100.885 44.6026C101.836 47.3587 103.425 49.985 105.826 51.6399C107.026 52.4674 108.415 53.0344 109.863 53.2065C111.31 53.3785 112.815 53.1429 114.107 52.4701C115.682 51.6493 116.884 50.212 117.63 48.6006C118.375 46.9892 118.694 45.2064 118.793 43.4323C118.927 41.1729 118.7 38.876 117.956 36.7377C117.15 34.4147 115.68 32.2724 113.623 30.9355C112.592 30.2674 111.419 29.8081 110.202 29.6401C108.985 29.472 107.722 29.5979 106.576 30.0431C105.923 30.2975 105.313 30.6503 104.735 31.0473L104.735 31.0459Z" fill="url(#paint1_radial_1067_41)"/>
<g opacity="0.3" filter="url(#filter2_f_1067_41)">
<path d="M83.2382 50.3211L79.7998 53.4575C79.1946 54.0667 78.5881 54.7188 78.317 55.5328C78.076 56.2559 78.1215 57.0411 78.0023 57.7956C77.9622 58.054 77.9019 58.3111 77.9006 58.5722C77.8984 58.7031 77.916 58.8335 77.9528 58.9592C77.9909 59.0843 78.0532 59.2022 78.1436 59.2979C78.2922 59.4566 78.5038 59.5429 78.7166 59.5858C78.9295 59.6286 79.1485 59.634 79.3647 59.6574C80.3394 59.7625 81.2378 60.2351 82.0452 60.7921L84.4218 62.5227C86.2494 63.6836 88.4339 64.1997 90.5983 64.282C92.7626 64.3644 94.9217 64.0344 97.0452 63.6092C98.7322 63.2718 100.415 62.8728 102.016 62.2409C104.468 61.2742 106.678 59.7859 108.79 58.2094C109.749 57.493 110.695 56.7546 111.556 55.9231C111.849 55.6406 112.132 55.3474 112.446 55.089C112.759 54.8306 113.107 54.6056 113.494 54.4811C114.083 54.2917 114.723 54.3459 115.334 54.4476C115.793 54.5246 116.255 54.6284 116.721 54.6083C116.954 54.5989 117.187 54.5588 117.404 54.4718C117.62 54.3847 117.82 54.2508 117.968 54.0701C118.161 53.8284 118.265 53.5279 118.264 53.2185C118.265 52.9119 118.17 52.6093 118.016 52.3449C117.705 51.816 117.167 51.4592 116.607 51.2101C115.84 50.8687 115.01 50.7013 114.193 50.5032C111.686 49.898 109.249 49.0036 106.939 47.8561C105.79 47.2857 104.673 46.6538 103.543 46.0486C102.381 45.426 101.197 44.8275 99.9346 44.4452C97.1141 43.5903 94.0299 43.8708 91.247 44.8375C88.1541 45.9113 85.3577 47.8253 83.2362 50.3191L83.2382 50.3211Z" fill="black"/>
</g>
<path d="M89.2363 46.7782C90.4192 45.448 91.2286 43.8259 92.3653 42.4555C92.9344 41.7706 93.5891 41.1467 94.3617 40.7035C95.1342 40.2603 96.03 40.0072 96.917 40.0836C97.9038 40.1692 98.8283 40.6606 99.5507 41.3388C100.273 42.017 100.809 42.8786 101.238 43.7656C101.647 44.6212 101.973 45.533 102.563 46.2761C103.193 47.0687 104.076 47.6097 104.873 48.2329C105.272 48.5442 105.654 48.8823 105.969 49.2773C106.285 49.6723 106.532 50.1315 106.632 50.6276C106.731 51.1353 106.688 51.6603 106.508 52.1453C106.333 52.6273 106.035 53.0638 105.665 53.4199C104.924 54.1329 103.915 54.5178 102.897 54.6618C100.862 54.9496 98.8036 54.3431 96.749 54.4007C94.669 54.4576 92.6371 55.1933 90.5578 55.117C89.5181 55.0788 88.4637 54.8251 87.6095 54.2313C87.1787 53.9362 86.8147 53.554 86.541 53.1093C86.2719 52.6641 86.1079 52.152 86.0905 51.6325C86.0737 51.1371 86.1895 50.6417 86.3877 50.1864C86.5859 49.7312 86.865 49.3148 87.179 48.9305C87.8083 48.162 88.5762 47.5206 89.2356 46.7789L89.2363 46.7782Z" fill="url(#paint2_radial_1067_41)"/>
<g filter="url(#filter3_f_1067_41)">
<path d="M112.429 9.9493C110.712 11.1603 111.462 12.6722 112.2 14.1903C112.938 15.7083 110.577 20.0835 110.552 20.2717C110.526 20.4599 115.199 18.054 116.473 16.4905C117.977 14.6446 121.778 18.9881 121.572 18.3263C121.573 17.1438 114.146 8.73826 112.429 9.9493H112.429Z" fill="#7C7C7C"/>
</g>
<path d="M109.028 36.666C108.328 36.7162 107.646 36.9552 107.053 37.3355C106.46 37.7157 105.953 38.2158 105.555 38.7949C104.761 39.9517 104.411 41.3703 104.355 42.7715C104.313 43.8239 104.429 44.8903 104.778 45.8845C105.128 46.8786 105.715 47.7992 106.527 48.4706C107.357 49.1582 108.413 49.5712 109.49 49.6221C110.567 49.673 111.659 49.363 112.542 48.7471C113.247 48.2564 113.816 47.5809 114.221 46.8237C114.626 46.0666 114.87 45.2284 114.981 44.3769C115.177 42.8726 114.955 41.302 114.26 39.9537C113.564 38.6054 112.385 37.4948 110.961 36.9706C110.345 36.743 109.683 36.6252 109.028 36.672V36.666Z" fill="#020204"/>
<g filter="url(#filter4_f_1067_41)">
<path d="M110.698 41.2551C110.118 41.4841 109.2 41.3402 108.947 41.9092C108.796 42.2466 109.009 42.8016 109.35 42.9402C110.041 43.2213 111.112 42.7125 111.392 42.0197C111.513 41.7184 111.33 41.2431 111.031 41.1159C110.92 41.069 110.81 41.2096 110.699 41.2538L110.698 41.2551Z" fill="#141413"/>
</g>
<g filter="url(#filter5_f_1067_41)">
<path d="M113.354 42.7615C114.131 41.9849 112.801 39.923 111.764 39.0795C111.013 38.4683 108.825 37.8276 108.919 38.4937C109.013 39.1598 109.99 40.0107 110.656 40.6607C111.468 41.4607 112.986 43.1311 113.354 42.7615Z" fill="url(#paint3_linear_1067_41)"/>
</g>
<mask id="mask0_1067_41" style="mask-type:luminance" maskUnits="userSpaceOnUse" x="99" y="30" width="21" height="23">
<path d="M104.735 31.0459C103.03 32.4698 101.249 34.1254 100.551 36.2342C99.6741 38.8853 99.4579 42.2038 100.886 44.6025C103.51 49.0089 109.176 53.8745 114.108 52.4687C117.371 51.5381 118.196 46.7782 118.794 43.4309C119.189 41.217 119.193 38.6155 117.957 36.7363C115.539 33.0589 110.977 30.1126 106.576 30.0417C105.877 30.0303 105.271 30.5973 104.735 31.0459Z" fill="white"/>
</mask>
<g mask="url(#mask0_1067_41)">
<path d="M97.7056 37.8242C99.3074 36.4954 101.155 35.4945 103.143 34.8786C107.217 33.62 111.846 34.1174 115.446 36.4016C116.69 37.1902 117.798 38.1703 118.954 39.0821C120.111 39.9939 121.338 40.8495 122.727 41.3382C123.477 41.602 124.279 41.7553 125.071 41.673C125.786 41.598 126.476 41.3302 127.068 40.9232C127.66 40.5161 128.156 39.9739 128.528 39.3586C129.272 38.1288 129.512 36.6373 129.383 35.206C129.127 32.3427 127.511 29.8148 126.158 27.2795C125.734 26.4855 125.33 25.6775 124.819 24.9364C123.25 22.6629 120.753 21.1633 118.134 20.285C115.515 19.4066 112.748 19.0893 110.007 18.7439C108.785 18.5899 107.548 18.4292 106.325 18.5765C104.919 18.7459 103.596 19.3129 102.224 19.6644C101.573 19.8317 100.91 19.9489 100.264 20.1357C99.6189 20.3225 98.9836 20.5842 98.4587 21.0033C97.6922 21.6165 97.2102 22.5364 97.0013 23.4957C96.7925 24.4551 96.8407 25.4532 96.9933 26.4226C97.2999 28.3614 98.0243 30.2546 97.956 32.2161C97.9091 33.5631 97.486 34.886 97.5376 36.2329C97.553 36.6346 97.6092 37.0209 97.7049 37.4045" fill="url(#paint4_linear_1067_41)"/>
</g>
<g filter="url(#filter6_f_1067_41)">
<path d="M111.199 25.5315C110.88 25.9332 110.591 26.3697 110.362 26.8503C111.799 27.1596 113.174 27.7514 114.399 28.5662C116.772 30.1421 118.575 32.4464 119.839 35.0097C120.133 34.683 120.402 34.3322 120.634 33.9426C119.363 31.2728 117.525 28.8581 115.069 27.2279C113.89 26.4446 112.576 25.8528 111.2 25.5342L111.199 25.5315Z" fill="url(#paint5_linear_1067_41)"/>
</g>
<g filter="url(#filter7_f_1067_41)">
<path d="M83.4998 26.8403C83.3378 26.8369 83.1805 26.8516 83.0178 26.859L82.7031 26.8778C83.6491 26.9634 84.5897 27.2178 85.4439 27.6008C86.6088 28.123 87.6357 28.8681 88.5402 29.7163C90.2165 31.2862 91.4624 33.2243 92.3059 35.2795C92.0998 33.7265 91.6331 32.2193 90.9255 30.8216C90.5947 30.44 90.252 30.0651 89.8798 29.7169C88.976 28.8694 87.9477 28.125 86.7835 27.6014C85.7659 27.1442 84.6318 26.8597 83.4991 26.8396L83.4998 26.8403Z" fill="url(#paint6_linear_1067_41)"/>
</g>
<path d="M80.7614 40.9206C80.5124 42.4242 80.503 44.0014 81.0199 45.4348C81.3546 46.3814 81.9236 47.2403 82.6078 47.9787C83.0564 48.4621 83.5638 48.9012 84.1583 49.1857C84.7528 49.4703 85.441 49.5914 86.0797 49.4314C86.6688 49.2842 87.1856 48.9026 87.5659 48.4293C87.9461 47.956 88.2005 47.3896 88.3813 46.8092C88.9148 45.0953 88.8298 43.2195 88.2996 41.5043C87.9133 40.2545 87.274 39.0488 86.2731 38.2059C85.7958 37.8042 85.2368 37.4896 84.6296 37.3443C84.0224 37.199 83.3643 37.2338 82.7966 37.4916C82.166 37.7781 81.6773 38.3237 81.3573 38.9376C81.0373 39.5515 80.8732 40.2364 80.7601 40.9192L80.7614 40.9206Z" fill="#020204"/>
<g filter="url(#filter8_f_1067_41)">
<path d="M83.94 39.8326C84.102 40.257 84.6456 40.411 84.9442 40.7531C85.2341 41.0858 85.538 41.4292 85.6974 41.841C86.002 42.6283 85.3961 43.7958 86.0321 44.3514C86.2316 44.5255 86.6313 44.5295 86.8274 44.3514C87.594 43.6539 87.4232 42.2467 87.1206 41.2552C86.8462 40.3554 86.1653 39.5039 85.3265 39.0761C84.9382 38.8786 84.3558 38.7146 84.0237 38.9957C83.8095 39.1765 83.8403 39.5715 83.94 39.8326Z" fill="url(#paint7_linear_1067_41)"/>
</g>
<path d="M77.9568 59.6118C77.997 59.8093 78.0727 60.0001 78.1757 60.1741C78.3538 60.4721 78.6136 60.7137 78.8941 60.9172C79.1746 61.1208 79.4785 61.2922 79.7724 61.4763C81.3349 62.4584 82.6076 63.8395 83.739 65.2969C85.2567 67.253 86.5989 69.4241 88.6261 70.8467C90.0574 71.8509 91.7699 72.4233 93.5091 72.598C95.551 72.8036 97.6196 72.4735 99.5892 71.8938C101.414 71.3562 103.18 70.6017 104.799 69.6042C107.878 67.7056 110.449 64.9226 113.837 63.6748C114.578 63.4023 115.35 63.2075 116.063 62.8714C116.777 62.5353 117.449 62.0319 117.791 61.3196C118.125 60.6354 118.105 59.8454 118.212 59.0936C118.326 58.2903 118.583 57.5124 118.724 56.713C118.864 55.9137 118.881 55.0581 118.536 54.323C118.25 53.7138 117.73 53.2332 117.13 52.9272C116.531 52.6213 115.858 52.4827 115.186 52.4492C113.843 52.3823 112.516 52.727 111.178 52.8496C109.403 53.0116 107.617 52.7839 105.837 52.8362C103.623 52.9031 101.44 53.4019 99.227 53.509C96.7018 53.6315 94.1826 53.2412 91.6567 53.1408C90.5628 53.0966 89.4609 53.1073 88.3817 53.2914C87.3025 53.4755 86.2428 53.843 85.3423 54.465C84.4654 55.0715 83.7651 55.8976 82.9591 56.5965C82.556 56.946 82.1222 57.266 81.6429 57.4983C81.1636 57.7306 80.634 57.8759 80.1005 57.8645C79.8327 57.8578 79.5448 57.8129 79.2837 57.896C79.1204 57.9475 78.9758 58.0479 78.8526 58.1678C78.7294 58.2876 78.6283 58.4269 78.5326 58.5695C78.3099 58.9001 78.1158 59.249 77.9521 59.6125L77.9568 59.6118Z" fill="url(#paint8_radial_1067_41)"/>
<g filter="url(#filter9_f_1067_41)">
<path d="M87.8686 62.3332C87.6184 63.4136 87.7772 64.5484 88.3145 65.5185C88.8519 66.4887 89.7295 67.2254 90.7781 67.5864C92.1023 68.0283 93.5946 67.8114 94.8317 67.166C95.548 66.7911 96.2041 66.2649 96.6192 65.57C96.8291 65.2226 96.9669 64.8365 97.0242 64.4346C97.0778 64.0329 97.0409 63.6179 96.9004 63.2396C96.7464 62.8246 96.4719 62.4577 96.1332 62.1712C95.7944 61.8846 95.3934 61.6771 94.973 61.5378C94.1308 61.2593 93.2257 61.254 92.3393 61.2968C90.9963 61.3614 89.6603 61.5299 88.3433 61.8009" fill="#D9B30D"/>
</g>
<g filter="url(#filter10_f_1067_41)">
<path d="M83.5234 54.0205L80.9139 55.7363C80.474 56.0483 80.0208 56.3857 79.7892 56.8717C79.6245 57.2165 79.587 57.6081 79.5883 57.9897C79.5897 58.3713 79.6084 58.7556 79.5575 59.1278C79.5241 59.3862 79.4544 59.6406 79.4424 59.901C79.4357 60.0316 79.4457 60.1621 79.4799 60.2893C79.5125 60.4162 79.5757 60.5332 79.664 60.6301C79.7798 60.7526 79.9371 60.8282 80.0991 60.8778C80.2611 60.9273 80.4272 60.9514 80.5918 60.9916C81.3785 61.1764 82.0627 61.659 82.6632 62.1993L84.4305 63.8569C86.129 65.2387 88.3804 65.8117 90.5628 65.8472C92.7453 65.8827 94.917 65.4254 97.0533 64.9434L102.024 63.575C104.503 62.6612 106.804 61.2774 108.798 59.5435C109.701 58.7576 110.55 57.894 111.565 57.2573C112.462 56.6936 113.468 56.3214 114.38 55.7825C114.462 55.7343 114.543 55.6847 114.616 55.6238C114.689 55.5629 114.754 55.4913 114.797 55.4063C114.87 55.259 114.87 55.0849 114.823 54.9269C114.777 54.7689 114.686 54.6297 114.582 54.5025C114.469 54.3619 114.339 54.2334 114.201 54.1155C113.248 53.2988 111.953 53.0029 110.702 52.9038C109.451 52.8047 108.185 52.875 106.953 52.6682C105.788 52.4673 104.682 52.0389 103.558 51.6794C102.379 51.298 101.173 51.0049 99.95 50.8024C97.0747 50.3337 94.1143 50.4234 91.2624 51.0166C88.5457 51.5823 85.9268 52.6032 83.5368 54.0158L83.5234 54.0205Z" fill="#604405"/>
</g>
<path d="M83.238 50.9905C81.9459 51.8608 80.7837 52.9205 79.7996 54.1269C79.2373 54.8164 78.7258 55.5662 78.4426 56.4111C78.2197 57.0752 78.144 57.7781 78.0035 58.4643C77.9499 58.7214 77.8896 58.9798 77.8896 59.2409C77.8903 59.3721 77.9071 59.504 77.9472 59.6292C77.9874 59.7544 78.053 59.8715 78.144 59.9659C78.2947 60.1226 78.5056 60.2069 78.7184 60.2511C78.9313 60.2953 79.1496 60.3013 79.3651 60.3261C80.3392 60.4366 81.2356 60.9099 82.043 61.4655L84.4223 63.1914C86.2526 64.3496 88.4357 64.8637 90.5994 64.9474C92.7631 65.0311 94.9221 64.7024 97.0463 64.2779C98.7334 63.9412 100.416 63.5415 102.017 62.9096C104.469 61.9428 106.679 60.4546 108.791 58.8781C109.75 58.1617 110.696 57.4233 111.558 56.5918C111.85 56.3093 112.133 56.0161 112.447 55.7577C112.76 55.4993 113.108 55.2743 113.495 55.1498C114.084 54.9604 114.724 55.0146 115.335 55.1163C115.795 55.1933 116.256 55.2971 116.722 55.277C116.955 55.2676 117.188 55.2275 117.405 55.1404C117.621 55.0534 117.821 54.9195 117.969 54.7388C118.162 54.4971 118.267 54.1966 118.265 53.8872C118.266 53.5806 118.171 53.278 118.017 53.0136C117.706 52.4847 117.168 52.1279 116.608 51.8788C115.841 51.5374 115.011 51.37 114.194 51.1719C111.687 50.5667 109.25 49.6723 106.94 48.5248C105.791 47.9544 104.674 47.3225 103.544 46.7173C102.382 46.0947 101.198 45.4962 99.9357 45.1139C97.1153 44.259 94.0311 44.5395 91.2481 45.5062C88.1552 46.58 85.3588 48.494 83.2373 50.9878L83.238 50.9905Z" fill="url(#paint9_linear_1067_41)"/>
<g filter="url(#filter11_f_1067_41)">
<path d="M103.054 51.6105C102.903 51.419 102.686 51.2838 102.451 51.2155C102.217 51.1473 101.966 51.1486 101.726 51.1821C101.244 51.2644 100.813 51.5168 100.409 51.8013C99.2647 52.5886 98.2538 53.5607 97.3721 54.6331C96.2039 56.0524 95.2399 57.6939 94.9166 59.5035C94.863 59.8081 94.8262 60.1194 94.8643 60.4273C94.9025 60.7353 95.0203 61.0399 95.2392 61.2595C95.4307 61.4523 95.6918 61.5701 95.9609 61.6089C96.23 61.6478 96.5072 61.6103 96.7643 61.5232C97.2798 61.3492 97.7082 60.9877 98.1126 60.6262C100.346 58.6278 102.366 56.2291 103.174 53.3424C103.254 53.0525 103.324 52.756 103.321 52.4554C103.318 52.1548 103.24 51.8462 103.054 51.6105Z" fill="#F6DA4A"/>
</g>
<g opacity="0.8" filter="url(#filter12_f_1067_41)">
<path d="M97.7051 47.4732C97.8591 47.97 98.6611 47.8883 99.1244 48.126C99.5307 48.3348 99.8568 48.7934 100.314 48.8068C100.749 48.8202 101.428 48.6562 101.486 48.2244C101.561 47.6533 100.726 47.2905 100.19 47.0809C99.5006 46.8118 98.6149 46.6752 97.9675 47.0354C97.8189 47.1178 97.6569 47.3112 97.7078 47.4739L97.7051 47.4732Z" fill="url(#paint10_radial_1067_41)"/>
</g>
<g opacity="0.8" filter="url(#filter13_f_1067_41)">
<path d="M90.0583 47.1853C89.4638 46.9911 88.4803 48.0402 88.801 48.5778C88.8894 48.725 89.1592 48.9125 89.3406 48.8121C89.6151 48.6614 89.8387 48.1225 90.1353 47.9116C90.3334 47.771 90.2892 47.2609 90.0576 47.1859L90.0583 47.1853Z" fill="url(#paint11_radial_1067_41)"/>
</g>
<g filter="url(#filter14_f_1067_41)">
<path d="M116.272 57.3895C117.329 57.3895 118.304 56.3302 118.45 55.0235C118.597 53.7168 117.859 52.6575 116.803 52.6575C115.746 52.6575 114.771 53.7168 114.624 55.0235C114.478 56.3302 115.216 57.3895 116.272 57.3895Z" fill="url(#paint12_linear_1067_41)"/>
</g>
<mask id="mask1_1067_41" style="mask-type:luminance" maskUnits="userSpaceOnUse" x="78" y="29" width="15" height="25">
<path d="M83.6342 31.0459C81.0956 34.2526 77.9317 38.8719 78.1493 42.5941C78.3669 46.3163 80.7334 51.923 83.7561 53.3055C86.7787 54.6879 87.6081 53.3142 89.3327 51.6318C91.0572 49.9495 91.9168 46.7126 92.0145 43.4309C92.1123 40.1492 89.9827 35.4509 88.3727 33.2216C86.7626 30.9923 86.1721 27.8391 83.6329 31.0459H83.6342Z" fill="white"/>
</mask>
<g mask="url(#mask1_1067_41)">
<path d="M81.0638 35.8427C82.8613 34.7715 85.0504 34.5238 87.1338 34.7207C89.2172 34.9175 91.2342 35.5294 93.2527 36.0797C94.7335 36.4827 96.2331 36.8562 97.6209 37.511C99.0087 38.1657 100.299 39.1284 101.063 40.4586L101.425 41.1026C101.555 41.3115 101.708 41.511 101.904 41.6583C102.1 41.8056 102.344 41.902 102.59 41.8886C102.713 41.8819 102.835 41.8484 102.94 41.7855C103.046 41.7226 103.137 41.6315 103.194 41.5231C103.259 41.3979 103.279 41.2526 103.272 41.1107C103.261 40.9695 103.235 40.8299 103.194 40.6943C102.688 38.8512 101.496 37.288 100.589 35.6064L99.0509 32.5295C97.1644 29.0751 94.0674 26.3597 90.5487 24.5984C87.03 22.837 83.0996 21.9902 79.1699 21.7599C74.6175 21.4934 70.0518 22.0343 65.5597 22.8243C63.6116 23.1671 61.6366 23.5708 59.9121 24.5395C59.0505 25.0235 58.2605 25.6488 57.644 26.4207C57.0274 27.1926 56.5889 28.1177 56.447 29.0965C56.3104 30.0404 56.4537 31.0112 56.7817 31.9056C57.1097 32.8 57.6239 33.6181 58.2257 34.3571C59.4288 35.8353 60.9705 36.9908 62.3911 38.2601C63.8117 39.5294 65.1359 40.9326 66.7179 41.9843C67.5118 42.5099 68.3734 42.945 69.2906 43.2007C70.2078 43.4565 71.1852 43.5288 72.1184 43.3373C73.0858 43.1391 73.9815 42.6645 74.7655 42.064C75.5494 41.4635 76.2289 40.7385 76.8729 39.99C78.1617 38.4931 79.3653 36.8529 81.0618 35.842L81.0638 35.8427Z" fill="url(#paint13_radial_1067_41)"/>
</g>
<path d="M144.469 100.059C148.542 103.336 151.127 108.284 151.926 113.451C152.55 117.481 152.145 121.615 151.237 125.589C150.329 129.564 148.926 133.406 147.533 137.238C146.978 138.766 146.421 140.309 146.2 141.92C145.979 143.53 146.119 145.236 146.896 146.665C147.786 148.302 149.449 149.43 151.235 149.961C153 150.485 154.904 150.473 156.69 150.029C158.476 149.584 160.143 148.715 161.596 147.585C165.289 144.718 167.517 140.255 168.379 135.661C169.241 131.067 168.845 126.322 168.044 121.716C166.951 115.436 165.111 109.297 162.769 103.367C161.046 99.0057 159.031 94.7178 156.215 90.9688C153.459 87.3002 149.984 84.2119 147.284 80.5018C145.408 77.9243 143.905 75.0457 141.657 72.7856C140.532 71.6555 139.22 70.6888 137.734 70.111C136.248 69.5333 134.579 69.3639 133.044 69.7964C131.022 70.3654 129.362 71.9588 128.49 73.8681C127.618 75.7774 127.457 77.9672 127.799 80.0405C128.241 82.715 129.463 85.1974 130.842 87.5318C132.4 90.1675 134.204 92.7047 136.557 94.6643C139.012 96.7095 141.981 98.0584 144.47 100.06L144.469 100.059Z" fill="#020204"/>
<mask id="mask2_1067_41" style="mask-type:luminance" maskUnits="userSpaceOnUse" x="127" y="69" width="42" height="82">
<path d="M144.468 100.06C148.569 103.355 151.132 108.305 151.927 113.451C153.17 121.504 150.328 129.568 147.533 137.239C146.976 138.769 146.415 140.318 146.194 141.922C145.972 143.525 146.112 145.234 146.896 146.666C147.784 148.289 149.44 149.427 151.235 149.961C153.001 150.486 154.912 150.47 156.698 150.023C158.485 149.576 160.147 148.705 161.597 147.586C165.332 144.707 167.566 140.231 168.412 135.64C169.259 131.049 168.848 126.315 168.037 121.717C166.931 115.444 165.1 109.305 162.762 103.368C161.046 99.0119 159.035 94.7253 156.207 90.9696C153.449 87.3076 149.962 84.208 147.276 80.5026C145.414 77.9291 143.937 75.0598 141.693 72.7984C140.571 71.667 139.255 70.6996 137.76 70.1205C136.266 69.5415 134.582 69.3681 133.035 69.7979C132.009 70.083 131.064 70.626 130.283 71.3376C129.502 72.0493 128.884 72.9283 128.447 73.8836C127.575 75.7936 127.441 77.9753 127.79 80.0413C128.24 82.7078 129.456 85.1915 130.834 87.5326C132.384 90.1649 134.186 92.7008 136.548 94.665C139.001 96.7049 141.974 98.0619 144.461 100.061" fill="white"/>
</mask>
<g mask="url(#mask2_1067_41)">
<g filter="url(#filter15_f_1067_41)">
<path d="M134.881 93.7451L135.903 94.6656C138.402 96.7108 139.734 99.0071 142.268 101.01C146.415 104.287 150.624 109.943 151.437 115.109C152.073 119.139 151.233 121.328 150.207 126.08C149.181 130.832 146.275 137.56 144.704 142.142C144.077 143.97 145.972 143.215 145.724 145.141C145.599 146.087 145.591 147.044 145.7 147.992L145.748 147.442C146.05 144.816 146.854 142.291 147.731 139.814C149.417 135.046 151.353 130.374 152.687 125.482C154.022 120.589 153.873 117.071 153.178 112.866C152.302 107.58 149.227 102.699 144.872 99.4771C141.791 97.1989 138.161 95.7381 134.883 93.7451H134.881Z" fill="#838384"/>
</g>
</g>
<g opacity="0.25" filter="url(#filter16_f_1067_41)">
<path d="M71.3729 90.7828C72.053 91.803 70.9502 95.3204 86.8004 93.069C86.8004 93.069 84.0169 93.3749 81.2728 94.0089C77.0071 95.4369 73.2902 97.0329 70.4232 99.147C67.5825 101.237 65.503 103.965 62.8965 106.308C62.8965 106.308 67.1173 98.5961 68.169 96.275C69.2208 93.954 67.9929 94.0658 68.8259 90.6422C69.6589 87.2185 71.6952 83.9429 71.6952 83.9429C71.6952 83.9429 70.0322 88.7697 71.3729 90.7821V90.7828Z" fill="url(#paint14_radial_1067_41)"/>
</g>
<g opacity="0.42" filter="url(#filter17_f_1067_41)">
<path d="M122.342 89.8622C119.112 92.1116 117.219 91.8458 113.299 92.2857C109.38 92.7255 98.7734 92.5668 98.7734 92.5668C98.7734 92.5668 100.309 92.5381 103.713 93.172C107.116 93.806 114.058 94.4119 117.967 95.9001C121.876 97.3883 123.301 97.8128 125.677 99.3144C129.058 101.453 131.54 104.802 134.773 107.145C134.773 107.145 134.93 104.036 133.624 101.714C132.319 99.3927 128.804 95.7327 127.779 92.3151C126.753 88.8975 126.256 82.1848 126.256 82.1848C126.256 82.1848 125.573 87.6108 122.343 89.8609L122.342 89.8622Z" fill="url(#paint15_radial_1067_41)"/>
</g>
<g opacity="0.2" filter="url(#filter18_f_1067_41)">
<path d="M91.9619 85.0567L91.4952 87.9649C91.4015 88.4402 91.2977 88.9155 91.1203 89.3661C90.9429 89.8166 90.6892 90.2444 90.3304 90.5684C90.0157 90.8523 89.6315 91.0478 89.2458 91.2245C87.7409 91.9141 86.1302 92.3713 84.4873 92.5768L86.4522 92.7562C86.8639 92.8011 87.277 92.8513 87.6786 92.9544C88.0803 93.0575 88.4719 93.2222 88.806 93.4598C89.1729 93.7276 89.4607 94.0945 89.6763 94.4948C90.1048 95.2928 90.248 96.2107 90.3277 97.1057C90.4281 98.2592 90.4361 99.4221 90.3498 100.576C90.4274 99.8037 90.5895 99.0391 90.8318 98.3014C91.269 96.9718 91.9726 95.7253 92.9205 94.6957C93.2968 94.2873 93.7105 93.9124 94.1657 93.5924C95.5766 92.6084 97.3047 92.1878 99.01 92.4135C97.2804 92.4839 95.5795 91.956 94.1938 90.9186C93.4963 90.393 92.8884 89.7383 92.4666 88.9738C91.8116 87.7756 91.6321 86.3746 91.9639 85.05L91.9619 85.0567Z" fill="url(#paint16_radial_1067_41)"/>
</g>
<g opacity="0.1" filter="url(#filter19_f_1067_41)">
<path d="M87.8306 107.845C87.0071 110.98 86.4415 114.176 86.1396 117.403C85.7131 121.964 85.8156 126.556 85.5705 131.13C85.3697 135.012 84.9078 138.934 85.5812 142.762C85.9026 144.587 86.4803 146.367 87.2917 148.034C87.4205 147.397 87.5148 146.755 87.5742 146.108C87.8601 143.005 87.3372 139.891 87.1605 136.779C86.8512 131.325 87.6064 125.867 87.9136 120.419C88.1497 116.23 88.1217 112.031 87.83 107.846L87.8306 107.845Z" fill="black"/>
</g>
<g filter="url(#filter20_f_1067_41)">
<path d="M125.446 60.837C123.999 62.1559 126.125 64.1362 127.134 66.4632C127.76 67.9092 129.495 69.9478 131.172 69.6217C132.434 69.376 133.216 67.5598 133.097 66.2811C132.867 63.8108 130.783 63.233 129.27 62.3848C128.071 61.7127 126.463 59.9118 125.447 60.8384L125.446 60.837Z" fill="#838384"/>
</g>
<g opacity="0.2" filter="url(#filter21_f_1067_41)">
<path d="M171.886 168.801C171.568 169.848 171.093 170.843 170.477 171.754C169.116 173.771 167.14 175.289 165.165 176.688C161.796 179.075 158.288 181.266 155.154 183.985C153.053 185.803 151.139 187.841 149.363 189.987C147.845 191.821 146.418 193.749 144.688 195.381C142.942 197.028 140.887 198.358 138.672 199.083C135.978 199.965 133.132 199.922 130.538 199.257C128.719 198.791 126.946 197.98 125.82 196.514C124.689 195.043 124.323 193.065 124.192 191.124C123.961 187.689 124.371 184.181 124.744 180.697C125.055 177.801 125.341 174.903 125.459 172.013C125.666 166.756 125.324 161.545 124.612 156.432C124.494 155.575 124.364 154.713 124.436 153.831C124.508 152.948 124.804 152.031 125.423 151.35C125.995 150.721 126.793 150.349 127.588 150.165C128.384 149.982 129.19 149.965 129.99 149.951C131.873 149.901 133.768 149.791 135.623 149.955C136.794 150.06 137.942 150.273 139.111 150.386C141.062 150.573 143.084 150.475 145.042 149.901C147.148 149.284 149.157 148.126 151.298 147.808C152.175 147.677 153.057 147.692 153.91 147.812C154.781 147.933 155.648 148.174 156.317 148.706C156.826 149.11 157.199 149.665 157.49 150.257C157.923 151.139 158.191 152.112 158.343 153.109C158.478 153.993 158.526 154.903 158.754 155.758C159.128 157.164 159.977 158.36 161 159.333C162.022 160.306 163.217 161.075 164.409 161.833C165.599 162.587 166.794 163.337 168.063 163.959C168.659 164.251 169.272 164.515 169.841 164.851C170.41 165.188 170.941 165.601 171.319 166.147C171.832 166.887 172.038 167.856 171.884 168.808" fill="url(#paint17_linear_1067_41)"/>
</g>
<mask id="mask3_1067_41" style="mask-type:luminance" maskUnits="userSpaceOnUse" x="127" y="140" width="59" height="61">
<path d="M185.242 171.308C185.851 172.377 184.191 173.576 183.357 174.48C181.521 176.47 179.039 177.761 176.732 179.179C172.772 181.613 168.283 183.131 164.4 185.684C161.801 187.394 159.494 189.515 157.13 191.537C155.107 193.267 153.46 195.471 151.217 196.905C148.974 198.339 146.501 199.686 143.86 200.018C140.658 200.419 137.251 199.846 134.286 198.569C132.214 197.676 130.162 196.306 128.955 194.398C127.742 192.48 127.576 190.021 127.46 187.754C127.255 183.697 128.373 179.681 128.919 175.655C129.374 172.307 130.159 168.999 130.432 165.63C130.927 159.51 129.909 153.306 130.646 147.211C130.883 145.245 130.525 142.752 131.993 141.424C133.357 140.189 135.628 140.674 137.469 140.713C139.708 140.759 141.909 141.349 144.09 141.862C145.466 142.185 146.766 142.806 148.155 143.074C150.458 143.518 152.818 143.787 155.162 143.711C157.696 143.628 160.141 142.509 162.676 142.53C163.715 142.538 164.768 142.718 165.746 143.065C166.739 143.417 167.747 143.872 168.507 144.601C169.086 145.157 169.464 145.912 169.765 146.657C170.215 147.769 170.364 148.985 170.546 150.171C170.708 151.225 170.444 152.361 170.824 153.358C172.049 156.571 174.557 159.2 176.999 161.621C178.166 162.917 179.697 163.987 181.128 164.853C182.648 165.773 184.052 166.494 184.785 168.078C185.227 169.072 184.421 170.595 185.242 171.308L185.242 171.308Z" fill="white"/>
</mask>
<g mask="url(#mask3_1067_41)">
<path d="M185.241 171.308C184.793 172.459 184.152 173.535 183.356 174.48C181.599 176.565 179.16 177.941 176.731 179.179C172.587 181.291 168.295 183.144 164.4 185.684C161.79 187.386 159.381 189.385 157.129 191.537C155.203 193.378 153.376 195.344 151.217 196.905C149.037 198.478 146.517 199.619 143.859 200.018C140.626 200.503 137.285 199.875 134.286 198.569C132.185 197.654 130.165 196.344 128.955 194.398C127.74 192.445 127.463 190.055 127.46 187.754C127.455 183.686 128.208 179.654 128.918 175.655C129.507 172.327 130.07 168.991 130.431 165.63C131.089 159.518 131.084 153.343 130.645 147.211C130.578 146.184 130.486 145.147 130.64 144.129C130.794 143.111 131.212 142.096 131.992 141.424C132.713 140.804 133.679 140.53 134.63 140.478C135.581 140.425 136.527 140.576 137.468 140.713C139.686 141.037 141.922 141.292 144.089 141.863C145.457 142.222 146.789 142.706 148.154 143.074C150.433 143.69 152.818 143.985 155.162 143.712C157.686 143.417 160.136 142.469 162.676 142.53C163.718 142.556 164.751 142.752 165.746 143.066C166.76 143.386 167.761 143.844 168.506 144.602C169.072 145.178 169.467 145.904 169.765 146.657C170.206 147.778 170.444 148.972 170.546 150.172C170.636 151.235 170.622 152.31 170.823 153.359C171.154 155.083 172.06 156.655 173.185 158.001C174.31 159.348 175.662 160.492 176.998 161.622C178.337 162.747 179.683 163.868 181.127 164.854C181.804 165.317 182.503 165.751 183.147 166.26C183.79 166.769 184.382 167.363 184.783 168.078C185.329 169.048 185.496 170.225 185.241 171.308L185.241 171.308Z" fill="url(#paint18_linear_1067_41)"/>
</g>
<mask id="mask4_1067_41" style="mask-type:luminance" maskUnits="userSpaceOnUse" x="127" y="140" width="59" height="61">
<path d="M185.242 171.308C185.851 172.377 184.191 173.576 183.357 174.48C181.521 176.47 179.039 177.761 176.732 179.179C172.772 181.613 168.283 183.131 164.4 185.684C161.801 187.394 159.494 189.515 157.13 191.537C155.107 193.267 153.46 195.471 151.217 196.905C148.974 198.339 146.501 199.686 143.86 200.018C140.658 200.419 137.251 199.846 134.286 198.569C132.214 197.676 130.162 196.306 128.955 194.398C127.742 192.48 127.576 190.021 127.46 187.754C127.255 183.697 128.373 179.681 128.919 175.655C129.374 172.307 130.159 168.999 130.432 165.63C130.927 159.51 129.909 153.306 130.646 147.211C130.883 145.245 130.525 142.752 131.993 141.424C133.357 140.189 135.628 140.674 137.469 140.713C139.708 140.759 141.909 141.349 144.09 141.862C145.466 142.185 146.766 142.806 148.155 143.074C150.458 143.518 152.818 143.787 155.162 143.711C157.696 143.628 160.141 142.509 162.676 142.53C163.715 142.538 164.768 142.718 165.746 143.065C166.739 143.417 167.747 143.872 168.507 144.601C169.086 145.157 169.464 145.912 169.765 146.657C170.215 147.769 170.364 148.985 170.546 150.171C170.708 151.225 170.444 152.361 170.824 153.358C172.049 156.571 174.557 159.2 176.999 161.621C178.166 162.917 179.697 163.987 181.128 164.853C182.648 165.773 184.052 166.494 184.785 168.078C185.227 169.072 184.421 170.595 185.242 171.308L185.242 171.308Z" fill="white"/>
</mask>
<g mask="url(#mask4_1067_41)">
<g filter="url(#filter22_f_1067_41)">
<path d="M183.156 169.198C182.741 170.236 182.16 171.199 181.435 172.049C179.827 173.933 177.599 175.165 175.384 176.274C171.6 178.168 167.683 179.834 164.124 182.122C161.744 183.651 159.545 185.446 157.484 187.384C155.723 189.039 154.053 190.808 152.084 192.209C150.089 193.628 147.787 194.651 145.365 195.007C142.412 195.443 139.366 194.878 136.623 193.705C134.71 192.886 132.862 191.716 131.754 189.956C130.653 188.204 130.395 186.053 130.389 183.983C130.38 180.324 131.07 176.706 131.721 173.105C132.261 170.113 132.775 167.115 133.103 164.092C133.699 158.597 133.67 153.047 133.298 147.533C133.236 146.609 133.164 145.676 133.306 144.761C133.448 143.847 133.827 142.936 134.529 142.331C135.187 141.764 136.07 141.516 136.939 141.47C137.807 141.425 138.671 141.565 139.53 141.691C141.553 141.989 143.595 142.214 145.575 142.724C146.823 143.047 148.041 143.482 149.287 143.814C151.369 144.37 153.546 144.634 155.687 144.387C157.99 144.121 160.231 143.269 162.549 143.325C163.5 143.348 164.444 143.526 165.354 143.807C166.279 144.092 167.195 144.499 167.875 145.188C168.387 145.707 168.742 146.362 169.023 147.036C169.443 148.038 169.715 149.109 169.737 150.196C169.761 151.33 169.512 152.468 169.666 153.592C169.791 154.504 170.177 155.364 170.67 156.142C171.164 156.92 171.764 157.622 172.359 158.325C173.509 159.684 174.662 161.068 176.104 162.111C177.745 163.298 179.693 163.992 181.389 165.101C181.895 165.432 182.384 165.805 182.74 166.293C183.037 166.708 183.231 167.189 183.303 167.694C183.376 168.2 183.326 168.715 183.158 169.198H183.156Z" fill="#CD8907"/>
</g>
</g>
<mask id="mask5_1067_41" style="mask-type:luminance" maskUnits="userSpaceOnUse" x="127" y="140" width="59" height="61">
<path d="M185.242 171.307C185.85 172.377 184.191 173.576 183.357 174.48C181.52 176.47 179.038 177.761 176.73 179.179C172.771 181.613 168.283 183.139 164.399 185.684C161.799 187.394 159.494 189.516 157.128 191.537C155.105 193.267 153.458 195.472 151.215 196.904C148.971 198.336 146.499 199.684 143.857 200.018C140.654 200.42 137.248 199.846 134.292 198.569C132.22 197.676 130.16 196.305 128.961 194.399C127.747 192.481 127.581 190.022 127.467 187.755C127.26 183.698 128.379 179.681 128.925 175.656C129.379 172.307 130.165 168.998 130.438 165.631C130.933 159.511 129.916 153.307 130.652 147.211C130.882 145.245 130.531 142.753 131.999 141.425C133.363 140.19 135.633 140.683 137.474 140.714C139.714 140.762 141.915 141.351 144.095 141.863C145.472 142.186 146.771 142.808 148.16 143.076C150.455 143.52 152.823 143.789 155.167 143.713C157.702 143.63 160.146 142.51 162.681 142.531C163.721 142.54 164.773 142.721 165.752 143.068C166.745 143.419 167.752 143.876 168.512 144.604C169.091 145.16 169.469 145.914 169.77 146.666C170.22 147.78 170.368 148.994 170.551 150.181C170.713 151.234 170.448 152.371 170.828 153.367C172.053 156.58 174.562 159.209 177.003 161.63C178.17 162.925 179.701 163.996 181.132 164.862C182.651 165.782 184.055 166.502 184.79 168.086C185.231 169.08 184.426 170.604 185.247 171.317L185.242 171.307Z" fill="white"/>
</mask>
<g mask="url(#mask5_1067_41)">
<g filter="url(#filter23_f_1067_41)">
<path d="M182.92 168.028C182.46 169.072 181.863 170.044 181.153 170.907C179.505 172.91 177.281 174.29 174.937 175.174C171.079 176.632 166.868 176.827 163.081 178.487C160.773 179.499 158.696 181.022 156.592 182.464C154.892 183.627 153.155 184.749 151.288 185.562C149.18 186.482 146.937 186.998 144.687 187.361C143.257 187.592 141.808 187.76 140.363 187.68C138.917 187.6 137.467 187.262 136.192 186.525C135.225 185.966 134.356 185.161 133.839 184.118C133.265 182.958 133.165 181.597 133.179 180.282C133.214 176.779 133.964 173.314 133.941 169.811C133.921 166.762 133.318 163.751 133.144 160.708C132.81 154.855 134.066 148.9 132.96 143.158C132.784 142.239 132.546 141.321 132.557 140.382C132.563 139.912 132.634 139.442 132.798 139.007C132.963 138.572 133.229 138.178 133.582 137.903C133.881 137.672 134.233 137.532 134.595 137.468C134.957 137.405 135.327 137.417 135.69 137.474C136.416 137.587 137.108 137.872 137.814 138.082C139.835 138.684 141.971 138.671 144.025 139.126C145.314 139.411 146.563 139.876 147.838 140.226C149.981 140.804 152.215 141.062 154.413 140.804C156.777 140.527 159.086 139.669 161.462 139.731C162.436 139.756 163.404 139.937 164.343 140.218C165.283 140.498 166.222 140.894 166.933 141.612C167.445 142.13 167.813 142.792 168.113 143.477C168.549 144.477 168.852 145.564 168.846 146.668C168.842 147.243 168.754 147.813 168.702 148.384C168.651 148.955 168.635 149.542 168.771 150.097C168.908 150.652 169.195 151.159 169.524 151.615C169.852 152.071 170.224 152.49 170.563 152.937C171.513 154.188 172.192 155.647 172.932 157.053C173.672 158.46 174.503 159.853 175.672 160.865C177.263 162.244 179.328 162.795 181.101 163.884C181.622 164.204 182.124 164.577 182.489 165.089C182.782 165.5 182.975 165.984 183.05 166.497C183.125 167.009 183.08 167.534 182.919 168.022L182.92 168.028Z" fill="#F5C021"/>
</g>
</g>
<g filter="url(#filter24_f_1067_41)">
<path d="M132.558 143.708C134.751 143.115 136.619 144.778 138.209 146.033C139.237 146.91 140.722 146.689 141.983 146.73C144.072 146.655 146.15 147.081 148.241 146.821C152.354 146.473 156.387 145.462 160.52 145.282C162.495 145.157 164.711 145.043 166.416 146.195C167.108 146.675 168.122 148.699 168.804 147.939C168.523 145.812 166.945 143.751 164.827 143.185C163.17 142.924 161.48 143.379 159.813 143.232C154.843 143.113 149.909 142.191 144.928 142.455C141.463 142.485 138.001 142.325 134.541 142.189C133.182 141.912 132.702 143.12 131.964 143.582" fill="url(#paint19_linear_1067_41)"/>
</g>
<g opacity="0.75" filter="url(#filter25_f_1067_41)">
<path d="M142.39 103.255C143.185 103.132 148.091 107.304 147.421 108.86C146.75 110.417 145.49 109.476 144.588 109.486C143.686 109.496 141.22 110.616 140.807 109.91C140.394 109.203 141.898 107.553 142.685 106.175C143.319 105.064 141.594 103.386 142.39 103.263L142.39 103.255Z" fill="#7C7C7C"/>
</g>
<g opacity="0.25" filter="url(#filter26_f_1067_41)">
<path d="M73.152 76.9986C73.0726 76.0373 71.7002 75.8936 71.0881 76.3726C70.5712 76.778 70.0864 78.1607 70.5323 78.7018C71.2571 79.5787 73.2602 78.3171 73.1519 76.9998L73.152 76.9986Z" fill="#7C7C7C"/>
</g>
<g opacity="0.35" filter="url(#filter27_f_1067_41)">
<path d="M162.13 147.049C161.753 146.311 161.068 145.76 160.303 145.44C159.537 145.121 158.698 145.019 157.87 145.025C156.213 145.039 154.566 145.47 152.916 145.326C151.521 145.206 150.198 144.682 148.832 144.351C147.428 144.016 145.939 143.882 144.544 144.255C143.054 144.661 141.739 145.657 140.916 146.963C140.19 148.115 139.844 149.476 139.737 150.833C139.63 152.19 139.746 153.555 139.883 154.91C139.982 155.89 140.093 156.871 140.33 157.829C140.567 158.786 140.936 159.719 141.513 160.517C142.343 161.665 143.577 162.485 144.907 162.977C147.104 163.78 149.522 163.738 151.69 162.858C155.479 161.213 158.686 158.263 160.641 154.624C161.34 153.321 161.884 151.933 162.235 150.497C162.374 149.926 162.484 149.344 162.49 148.756C162.495 148.168 162.391 147.571 162.124 147.049H162.13Z" fill="url(#paint20_radial_1067_41)"/>
</g>
<g opacity="0.35" filter="url(#filter28_f_1067_41)">
<path d="M162.13 146.275C161.753 145.742 161.068 145.343 160.303 145.112C159.537 144.881 158.698 144.807 157.87 144.812C156.213 144.822 154.566 145.134 152.916 145.03C151.521 144.943 150.198 144.564 148.832 144.325C147.428 144.083 145.939 143.986 144.544 144.256C143.054 144.549 141.739 145.269 140.916 146.213C140.19 147.046 139.844 148.03 139.737 149.011C139.63 149.992 139.746 150.979 139.883 151.958C139.982 152.667 140.093 153.376 140.33 154.068C140.567 154.76 140.936 155.434 141.513 156.011C142.343 156.842 143.577 157.434 144.907 157.79C147.104 158.37 149.522 158.34 151.69 157.704C155.479 156.515 158.686 154.382 160.641 151.751C161.34 150.81 161.884 149.806 162.235 148.768C162.374 148.355 162.484 147.934 162.49 147.509C162.495 147.084 162.391 146.653 162.124 146.275H162.13Z" fill="url(#paint21_radial_1067_41)"/>
</g>
<path d="M165.28 140.146C165.009 139.406 164.531 138.752 163.947 138.224C163.364 137.697 162.676 137.292 161.95 136.984C160.501 136.368 158.925 136.141 157.377 135.849L153.006 134.994C151.487 134.736 149.915 134.571 148.411 134.91C147.094 135.207 145.877 135.888 144.881 136.798C143.885 137.709 143.107 138.844 142.548 140.079C141.563 142.241 141.253 144.674 141.441 147.043C141.581 148.806 142.027 150.622 143.188 151.957C144.125 153.035 145.456 153.708 146.826 154.113C149.186 154.811 151.758 154.774 154.096 154.009C157.985 152.694 161.349 150.165 163.69 146.793C164.453 145.688 165.104 144.484 165.399 143.176C165.624 142.171 165.632 141.114 165.28 140.153V140.146Z" fill="#020204"/>
<mask id="mask6_1067_41" style="mask-type:luminance" maskUnits="userSpaceOnUse" x="141" y="134" width="25" height="21">
<path d="M165.28 140.146C165.009 139.406 164.531 138.752 163.947 138.224C163.364 137.697 162.675 137.292 161.95 136.984C160.501 136.368 158.924 136.141 157.377 135.849L153.006 134.994C151.487 134.736 149.915 134.571 148.411 134.91C147.094 135.207 145.877 135.888 144.881 136.798C143.885 137.709 143.107 138.844 142.548 140.079C141.563 142.241 141.253 144.674 141.441 147.043C141.581 148.806 142.027 150.622 143.188 151.957C144.125 153.035 145.456 153.708 146.826 154.113C149.186 154.811 151.758 154.774 154.096 154.009C157.985 152.694 161.349 150.165 163.69 146.793C164.453 145.688 165.104 144.484 165.399 143.176C165.624 142.171 165.632 141.114 165.28 140.153" fill="white"/>
</mask>
<g mask="url(#mask6_1067_41)">
<g filter="url(#filter29_f_1067_41)">
<path d="M149.234 134.206C148.87 134.226 148.506 134.268 148.147 134.332C145.824 134.745 143.697 136.213 142.498 138.244C141.653 139.692 141.266 141.363 141.39 143.035C141.439 141.869 141.745 140.727 142.31 139.708C143.27 137.979 145.01 136.675 146.955 136.319C148.16 136.099 149.386 136.232 150.596 136.382C151.756 136.526 152.925 136.678 154.069 136.926C155.836 137.309 157.586 137.897 159.07 138.935C159.415 139.176 159.739 139.45 160.011 139.771C160.283 140.093 160.494 140.466 160.576 140.88C160.695 141.485 160.522 142.12 160.221 142.658C159.92 143.196 159.508 143.667 159.07 144.101C158.715 144.454 158.337 144.794 157.961 145.126C159.675 144.794 161.41 144.324 162.835 143.327C163.437 142.905 163.983 142.4 164.341 141.758C164.699 141.116 164.851 140.338 164.676 139.624C164.557 139.142 164.294 138.699 163.965 138.327C163.635 137.956 163.242 137.65 162.835 137.365C161.041 136.109 158.942 135.303 156.769 135.042C155.376 134.786 153.97 134.57 152.564 134.393C151.464 134.255 150.342 134.143 149.237 134.205L149.234 134.206Z" fill="url(#paint22_radial_1067_41)"/>
</g>
</g>
<mask id="mask7_1067_41" style="mask-type:luminance" maskUnits="userSpaceOnUse" x="141" y="134" width="25" height="21">
<path d="M165.28 140.146C165.009 139.406 164.531 138.752 163.947 138.224C163.364 137.697 162.675 137.292 161.95 136.984C160.501 136.368 158.924 136.141 157.377 135.849L153.006 134.994C151.487 134.736 149.915 134.571 148.411 134.91C147.094 135.207 145.877 135.888 144.881 136.798C143.885 137.709 143.107 138.844 142.548 140.079C141.563 142.241 141.253 144.674 141.441 147.043C141.581 148.806 142.027 150.622 143.188 151.957C144.125 153.035 145.456 153.708 146.826 154.113C149.186 154.811 151.758 154.774 154.096 154.009C157.985 152.694 161.349 150.165 163.69 146.793C164.453 145.688 165.104 144.484 165.399 143.176C165.624 142.171 165.632 141.114 165.28 140.153" fill="white"/>
</mask>
<g mask="url(#mask7_1067_41)">
<g filter="url(#filter30_f_1067_41)">
<path d="M149.234 134.206C148.87 134.226 148.506 134.268 148.147 134.332C145.824 134.745 143.697 136.213 142.498 138.244C141.653 139.692 141.266 141.363 141.39 143.035C141.439 141.869 141.745 140.727 142.31 139.708C143.27 137.979 145.01 136.675 146.955 136.319C148.16 136.099 149.386 136.232 150.596 136.382C151.756 136.526 152.925 136.678 154.069 136.926C155.836 137.309 157.586 137.897 159.07 138.935C159.415 139.176 159.739 139.45 160.011 139.771C160.283 140.093 160.494 140.466 160.576 140.88C160.695 141.485 160.522 142.12 160.221 142.658C159.92 143.196 159.508 143.667 159.07 144.101C158.715 144.454 158.337 144.794 157.961 145.126C159.675 144.794 161.41 144.324 162.835 143.327C163.437 142.905 163.983 142.4 164.341 141.758C164.699 141.116 164.851 140.338 164.676 139.624C164.557 139.142 164.294 138.699 163.965 138.327C163.635 137.956 163.242 137.65 162.835 137.365C161.041 136.109 158.942 135.303 156.769 135.042C155.376 134.786 153.97 134.57 152.564 134.393C151.464 134.255 150.342 134.143 149.237 134.205L149.234 134.206Z" fill="url(#paint23_linear_1067_41)"/>
</g>
</g>
<path d="M73.1015 72.5947L61.7728 86.778C59.4076 89.7102 56.9862 92.6652 55.4464 96.1036C54.1235 99.0579 53.4983 102.267 52.5911 105.376C51.5615 108.905 50.1637 112.318 48.5944 115.643C47.1451 118.712 45.5484 121.71 43.9484 124.704C42.7848 126.883 41.6019 129.109 41.1982 131.546C40.8796 133.472 41.0643 135.459 41.5557 137.348C42.0471 139.237 42.8277 141.037 43.7234 142.774C47.5173 150.189 53.2097 156.58 59.9525 161.469C63.012 163.688 66.2903 165.606 69.728 167.177C71.5905 168.027 73.5533 168.786 75.6006 168.822C76.6248 168.839 77.6585 168.671 78.5957 168.26C79.533 167.848 80.3698 167.186 80.9275 166.327C81.6123 165.27 81.8446 163.958 81.7074 162.707C81.5702 161.456 81.0814 160.262 80.4267 159.186C78.82 156.559 76.2995 154.66 73.8687 152.777C68.6201 148.711 63.5422 144.422 58.6839 139.896C57.3115 138.618 55.9405 137.3 54.9818 135.69C54.0486 134.12 53.5438 132.333 53.2024 130.539C52.2651 125.619 52.5061 120.442 54.1798 115.722C54.8345 113.876 55.6994 112.112 56.5349 110.34C57.981 107.267 59.3514 104.136 61.2546 101.324C63.6232 97.8228 66.7891 94.857 68.7192 91.096C70.3486 87.9227 71.0087 84.3532 71.6394 80.8412L73.1015 72.5947Z" fill="#020204"/>
<mask id="mask8_1067_41" style="mask-type:luminance" maskUnits="userSpaceOnUse" x="41" y="72" width="42" height="97">
<path d="M72.8077 72.72C72.8077 72.72 69.3894 76.9677 67.5209 79.5799C65.6525 82.1922 63.6802 84.0319 61.7723 86.7767C59.8643 89.5215 56.8417 93.091 55.4458 96.1023C54.05 99.1135 53.8927 102.152 52.5906 105.374C51.2885 108.597 50.1136 112.499 48.5939 115.641C47.0742 118.784 44.9989 122.125 43.9478 124.703C42.8968 127.281 41.3972 128.535 41.1977 131.545C40.9982 134.555 40.8114 137.113 43.7229 142.773C46.6344 148.433 55.2617 157.506 59.952 161.468C64.6422 165.43 66.2382 166.305 69.7275 167.176C73.2167 168.047 79.0035 169.183 80.9276 166.326C82.8516 163.468 82.4486 162.332 80.4255 159.185C78.4024 156.038 77.1953 155.636 73.8674 152.776C70.5395 149.917 61.3907 142.819 58.6827 139.896C55.9747 136.972 53.9248 137.612 54.9806 135.689C56.0363 133.766 53.503 133.004 53.2011 130.539C52.6896 126.358 53.8331 118.02 54.1785 115.722C54.524 113.423 54.998 113.764 56.5337 110.339C58.0695 106.914 59.2946 104.566 61.2534 101.323C63.2123 98.0812 67.0275 94.5431 68.7179 91.0954C70.4083 87.6476 71.0637 83.9187 71.6381 80.8406C72.2125 77.7624 72.8077 72.72 72.8077 72.72Z" fill="white"/>
</mask>
<g mask="url(#mask8_1067_41)">
<g opacity="0.95" filter="url(#filter31_f_1067_41)">
<path d="M62.2772 99.2694C60.721 100.703 59.3789 102.353 58.2919 104.169C56.5058 107.154 55.4534 110.507 54.156 113.735C53.1893 116.139 52.0639 118.551 51.9287 121.137C51.8597 122.465 52.0559 123.792 52.1007 125.121C52.1456 126.451 52.0218 127.833 51.3643 128.994C50.8201 129.964 49.9143 130.727 48.8652 131.098C50.2908 131.578 51.5365 132.481 52.4368 133.686C53.1833 134.69 53.6606 135.864 54.3086 136.933C54.8355 137.802 55.4822 138.606 56.2789 139.239C57.0755 139.872 58.0262 140.324 59.035 140.453C59.7292 140.537 60.4333 140.47 61.0994 140.258C61.7654 140.045 62.3777 139.691 62.8945 139.22C61.6058 127.145 62.786 114.813 66.3422 103.203C66.5665 102.469 66.8021 101.731 66.8577 100.967C66.9133 100.202 66.7707 99.3946 66.3061 98.7854C66.0584 98.4607 65.725 98.203 65.3487 98.0437C64.9725 97.8843 64.5548 97.8261 64.1504 97.8749C63.746 97.9238 63.3537 98.0798 63.0257 98.3235C62.6977 98.5672 62.4352 98.8972 62.2712 99.2708L62.2772 99.2694Z" fill="#7C7C7C"/>
</g>
</g>
<mask id="mask9_1067_41" style="mask-type:luminance" maskUnits="userSpaceOnUse" x="18" y="136" width="65" height="64">
<path d="M45.7062 137.261C46.7774 136.818 47.9811 136.737 49.1205 136.947C50.2599 137.157 51.3364 137.65 52.2958 138.3C54.2131 139.603 55.635 141.499 56.9974 143.375C60.1251 147.682 63.1364 152.079 65.8644 156.65C68.0777 160.358 70.1115 164.187 72.6689 167.665C74.3385 169.936 76.2217 172.043 77.8994 174.308C79.577 176.572 81.0646 179.031 81.809 181.75C82.7757 185.283 82.4015 189.176 80.7198 192.43C79.5369 194.719 77.7233 196.682 75.5167 198.013C73.3102 199.344 70.7167 200.031 68.1419 199.935C64.0489 199.781 60.3092 197.735 56.504 196.219C48.7516 193.131 40.3298 192.162 32.3384 189.757C29.8815 189.018 27.4674 188.144 24.9944 187.464C23.8965 187.163 22.7785 186.896 21.7408 186.426C20.7032 185.956 19.7324 185.255 19.1554 184.272C18.7095 183.513 18.5207 182.619 18.5328 181.738C18.5448 180.857 18.751 179.987 19.0509 179.159C19.6508 177.503 20.6195 176.003 21.2735 174.368C22.3413 171.697 22.5335 168.752 22.3895 165.879C22.2456 163.006 21.7803 160.158 21.5828 157.29C21.4958 156.008 21.4623 154.71 21.7067 153.45C21.951 152.189 22.494 150.956 23.4192 150.066C24.2721 149.244 25.4041 148.757 26.563 148.514C27.7218 148.272 28.9161 148.262 30.1004 148.288C31.2847 148.314 32.4703 148.378 33.6512 148.281C34.8322 148.185 36.0164 147.92 37.0454 147.332C38.0228 146.774 38.8222 145.943 39.4849 145.033C40.1477 144.123 40.6833 143.128 41.2322 142.145C41.7812 141.162 42.3489 140.182 43.0679 139.316C43.7869 138.45 44.6679 137.694 45.7076 137.263" fill="white"/>
</mask>
<g mask="url(#mask9_1067_41)">
<path d="M45.7062 137.261C46.7774 136.818 47.9811 136.737 49.1205 136.947C50.2599 137.157 51.3364 137.65 52.2958 138.3C54.2131 139.603 55.635 141.499 56.9974 143.375C60.1251 147.682 63.1364 152.079 65.8644 156.65C68.0777 160.358 70.1115 164.187 72.6689 167.665C74.3385 169.936 76.2217 172.043 77.8994 174.308C79.577 176.572 81.0646 179.031 81.809 181.75C82.7757 185.283 82.4015 189.176 80.7198 192.43C79.5369 194.719 77.7233 196.682 75.5167 198.013C73.3102 199.344 70.7167 200.031 68.1419 199.935C64.0489 199.781 60.3092 197.735 56.504 196.219C48.7516 193.131 40.3298 192.162 32.3384 189.757C29.8815 189.018 27.4674 188.144 24.9944 187.464C23.8965 187.163 22.7785 186.896 21.7408 186.426C20.7032 185.956 19.7324 185.255 19.1554 184.272C18.7095 183.513 18.5207 182.619 18.5328 181.738C18.5448 180.857 18.751 179.987 19.0509 179.159C19.6508 177.503 20.6195 176.003 21.2735 174.368C22.3413 171.697 22.5335 168.752 22.3895 165.879C22.2456 163.006 21.7803 160.158 21.5828 157.29C21.4958 156.008 21.4623 154.71 21.7067 153.45C21.951 152.189 22.494 150.956 23.4192 150.066C24.2721 149.244 25.4041 148.757 26.563 148.514C27.7218 148.272 28.9161 148.262 30.1004 148.288C31.2847 148.314 32.4703 148.378 33.6512 148.281C34.8322 148.185 36.0164 147.92 37.0454 147.332C38.0228 146.774 38.8222 145.943 39.4849 145.033C40.1477 144.123 40.6833 143.128 41.2322 142.145C41.7812 141.162 42.3489 140.182 43.0679 139.316C43.7869 138.45 44.6679 137.694 45.7076 137.263L45.7062 137.261Z" fill="url(#paint24_linear_1067_41)"/>
<g filter="url(#filter32_f_1067_41)">
<path d="M47.3957 139.109C48.3698 138.717 49.467 138.674 50.4906 138.906C51.5142 139.137 52.4655 139.642 53.2943 140.276C54.9533 141.558 56.1061 143.365 57.2134 145.143C59.8711 149.45 62.4687 153.802 64.9229 158.243C66.782 161.585 68.5547 164.999 70.8389 168.07C72.3546 170.107 74.0838 171.973 75.631 173.986C77.1781 175.999 78.5565 178.192 79.2414 180.636C80.1224 183.787 79.7656 187.264 78.2405 190.165C77.1363 192.256 75.4702 193.998 73.4298 195.194C71.3841 196.383 69.0407 196.961 66.6769 196.86C62.9292 196.687 59.507 194.815 55.9789 193.546C49.2153 191.092 41.8847 190.762 34.947 188.846C32.46 188.172 30.0352 187.271 27.5361 186.641C26.4301 186.362 25.3048 186.134 24.2544 185.691C23.204 185.247 22.2145 184.559 21.6448 183.572C21.2211 182.837 21.0517 181.973 21.0778 181.125C21.1039 180.278 21.3188 179.452 21.6134 178.652C22.2172 177.068 23.1665 175.64 23.7757 174.05C24.6996 171.657 24.8134 169.026 24.642 166.468C24.4706 163.909 24.0261 161.373 23.8701 158.813C23.8005 157.668 23.7898 156.51 24.0214 155.388C24.2531 154.266 24.7418 153.179 25.5578 152.367C26.4415 151.49 27.6599 151.012 28.8898 150.825C30.1196 150.637 31.3708 150.719 32.6086 150.83C33.8465 150.94 35.089 151.079 36.3308 151.005C37.5727 150.931 38.8319 150.628 39.8589 149.929C40.7941 149.297 41.4964 148.373 42.0306 147.387C42.5649 146.4 42.9465 145.341 43.3535 144.296C43.7605 143.25 44.2017 142.206 44.841 141.283C45.4804 140.361 46.3379 139.539 47.389 139.117" fill="#D99A03"/>
</g>
<g filter="url(#filter33_f_1067_41)">
<path d="M46.4931 136.676C47.437 136.208 48.5483 136.112 49.5833 136.323C50.6183 136.534 51.577 137.039 52.3924 137.701C54.0225 139.016 55.0568 140.906 56.0209 142.753C58.2334 146.997 60.294 151.333 62.9418 155.329C64.8631 158.222 67.079 160.928 69.0218 163.813C71.6568 167.725 73.7991 172.029 74.6828 176.638C75.2773 179.739 75.2585 183.081 73.7643 185.88C72.7802 187.719 71.1869 189.233 69.3037 190.17C67.4205 191.107 65.2581 191.496 63.1513 191.31C59.8348 191.018 56.8222 189.387 53.7005 188.25C48.1607 186.231 42.1737 185.75 36.4726 184.226C34.0678 183.584 31.7194 182.757 29.2758 182.254C28.2007 182.029 27.1041 181.866 26.0778 181.478C25.0515 181.09 24.0788 180.449 23.5539 179.499C23.1857 178.831 23.0605 178.05 23.1161 177.292C23.1717 176.535 23.3973 175.796 23.6952 175.095C24.2897 173.692 25.168 172.406 25.6366 170.956C26.3148 168.824 26.0363 166.513 25.5268 164.337C25.0174 162.16 24.2836 160.024 24.058 157.802C23.9576 156.812 23.9596 155.803 24.1852 154.833C24.4108 153.863 24.8728 152.932 25.5978 152.236C26.5304 151.341 27.8365 150.895 29.1346 150.77C30.4327 150.645 31.7401 150.816 33.0308 151C34.3216 151.184 35.6203 151.395 36.9238 151.329C38.2272 151.263 39.5534 150.928 40.5744 150.13C41.5839 149.341 42.2186 148.166 42.5827 146.95C42.9469 145.735 43.0647 144.464 43.214 143.206C43.3633 141.947 43.5488 140.677 44.0375 139.504C44.5262 138.331 45.3496 137.25 46.5011 136.679L46.4931 136.676Z" fill="#F5BD0C"/>
</g>
<g filter="url(#filter34_f_1067_41)">
<path d="M58.3125 147.27C60.0571 150.425 61.1216 154.046 62.8515 157.228C64.4434 160.155 66.255 163.169 67.8724 165.868C68.5921 167.07 70.2711 168.918 71.9695 171.784C73.508 174.382 75.0611 178.008 75.9307 179.226C75.4313 177.8 74.4044 173.973 73.1793 171.244C72.0412 168.693 70.7022 167.239 69.8808 165.868C68.2634 163.169 66.5221 160.743 64.8598 158.17C62.5669 154.62 60.819 150.648 58.3125 147.271V147.27Z" fill="url(#paint25_linear_1067_41)"/>
</g>
</g>
</g>
<defs>
<filter id="filter0_f_1067_41" x="77.3366" y="55.4009" width="44.5679" height="27.0628" filterUnits="userSpaceOnUse" color-interpolation-filters="sRGB">
<feFlood flood-opacity="0" result="BackgroundImageFix"/>
<feBlend mode="normal" in="SourceGraphic" in2="BackgroundImageFix" result="shape"/>
<feGaussianBlur stdDeviation="0.436168" result="effect1_foregroundBlur_1067_41"/>
</filter>
<filter id="filter1_f_1067_41" x="77.4546" y="54.022" width="41.7489" height="19.389" filterUnits="userSpaceOnUse" color-interpolation-filters="sRGB">
<feFlood flood-opacity="0" result="BackgroundImageFix"/>
<feBlend mode="normal" in="SourceGraphic" in2="BackgroundImageFix" result="shape"/>
<feGaussianBlur stdDeviation="0.191623" result="effect1_foregroundBlur_1067_41"/>
</filter>
<filter id="filter2_f_1067_41" x="77.3173" y="43.3522" width="41.5295" height="21.5256" filterUnits="userSpaceOnUse" color-interpolation-filters="sRGB">
<feFlood flood-opacity="0" result="BackgroundImageFix"/>
<feBlend mode="normal" in="SourceGraphic" in2="BackgroundImageFix" result="shape"/>
<feGaussianBlur stdDeviation="0.291564" result="effect1_foregroundBlur_1067_41"/>
</filter>
<filter id="filter3_f_1067_41" x="109.693" y="8.97133" width="12.7463" height="12.1696" filterUnits="userSpaceOnUse" color-interpolation-filters="sRGB">
<feFlood flood-opacity="0" result="BackgroundImageFix"/>
<feBlend mode="normal" in="SourceGraphic" in2="BackgroundImageFix" result="shape"/>
<feGaussianBlur stdDeviation="0.429496" result="effect1_foregroundBlur_1067_41"/>
</filter>
<filter id="filter4_f_1067_41" x="108.791" y="40.9998" width="2.7456" height="2.12597" filterUnits="userSpaceOnUse" color-interpolation-filters="sRGB">
<feFlood flood-opacity="0" result="BackgroundImageFix"/>
<feBlend mode="normal" in="SourceGraphic" in2="BackgroundImageFix" result="shape"/>
<feGaussianBlur stdDeviation="0.0533428" result="effect1_foregroundBlur_1067_41"/>
</filter>
<filter id="filter5_f_1067_41" x="108.694" y="37.9886" width="5.11564" height="5.04801" filterUnits="userSpaceOnUse" color-interpolation-filters="sRGB">
<feFlood flood-opacity="0" result="BackgroundImageFix"/>
<feBlend mode="normal" in="SourceGraphic" in2="BackgroundImageFix" result="shape"/>
<feGaussianBlur stdDeviation="0.111184" result="effect1_foregroundBlur_1067_41"/>
</filter>
<filter id="filter6_f_1067_41" x="110.299" y="25.4681" width="10.3983" height="9.60509" filterUnits="userSpaceOnUse" color-interpolation-filters="sRGB">
<feFlood flood-opacity="0" result="BackgroundImageFix"/>
<feBlend mode="normal" in="SourceGraphic" in2="BackgroundImageFix" result="shape"/>
<feGaussianBlur stdDeviation="0.0317057" result="effect1_foregroundBlur_1067_41"/>
</filter>
<filter id="filter7_f_1067_41" x="82.6453" y="26.7818" width="9.71822" height="8.55562" filterUnits="userSpaceOnUse" color-interpolation-filters="sRGB">
<feFlood flood-opacity="0" result="BackgroundImageFix"/>
<feBlend mode="normal" in="SourceGraphic" in2="BackgroundImageFix" result="shape"/>
<feGaussianBlur stdDeviation="0.0289208" result="effect1_foregroundBlur_1067_41"/>
</filter>
<filter id="filter8_f_1067_41" x="83.6435" y="38.6257" width="3.95229" height="6.07754" filterUnits="userSpaceOnUse" color-interpolation-filters="sRGB">
<feFlood flood-opacity="0" result="BackgroundImageFix"/>
<feBlend mode="normal" in="SourceGraphic" in2="BackgroundImageFix" result="shape"/>
<feGaussianBlur stdDeviation="0.109899" result="effect1_foregroundBlur_1067_41"/>
</filter>
<filter id="filter9_f_1067_41" x="87.3677" y="60.8919" width="10.0653" height="7.31162" filterUnits="userSpaceOnUse" color-interpolation-filters="sRGB">
<feFlood flood-opacity="0" result="BackgroundImageFix"/>
<feBlend mode="normal" in="SourceGraphic" in2="BackgroundImageFix" result="shape"/>
<feGaussianBlur stdDeviation="0.192591" result="effect1_foregroundBlur_1067_41"/>
</filter>
<filter id="filter10_f_1067_41" x="79.1157" y="50.1784" width="36.0646" height="15.9955" filterUnits="userSpaceOnUse" color-interpolation-filters="sRGB">
<feFlood flood-opacity="0" result="BackgroundImageFix"/>
<feBlend mode="normal" in="SourceGraphic" in2="BackgroundImageFix" result="shape"/>
<feGaussianBlur stdDeviation="0.162385" result="effect1_foregroundBlur_1067_41"/>
</filter>
<filter id="filter11_f_1067_41" x="94.4849" y="50.7959" width="9.20017" height="11.1921" filterUnits="userSpaceOnUse" color-interpolation-filters="sRGB">
<feFlood flood-opacity="0" result="BackgroundImageFix"/>
<feBlend mode="normal" in="SourceGraphic" in2="BackgroundImageFix" result="shape"/>
<feGaussianBlur stdDeviation="0.18188" result="effect1_foregroundBlur_1067_41"/>
</filter>
<filter id="filter12_f_1067_41" x="97.6511" y="46.7703" width="3.88625" height="2.08449" filterUnits="userSpaceOnUse" color-interpolation-filters="sRGB">
<feFlood flood-opacity="0" result="BackgroundImageFix"/>
<feBlend mode="normal" in="SourceGraphic" in2="BackgroundImageFix" result="shape"/>
<feGaussianBlur stdDeviation="0.0235651" result="effect1_foregroundBlur_1067_41"/>
</filter>
<filter id="filter13_f_1067_41" x="88.6912" y="47.1145" width="1.61672" height="1.77297" filterUnits="userSpaceOnUse" color-interpolation-filters="sRGB">
<feFlood flood-opacity="0" result="BackgroundImageFix"/>
<feBlend mode="normal" in="SourceGraphic" in2="BackgroundImageFix" result="shape"/>
<feGaussianBlur stdDeviation="0.0235651" result="effect1_foregroundBlur_1067_41"/>
</filter>
<filter id="filter14_f_1067_41" x="114.459" y="52.5111" width="4.15595" height="5.02461" filterUnits="userSpaceOnUse" color-interpolation-filters="sRGB">
<feFlood flood-opacity="0" result="BackgroundImageFix"/>
<feBlend mode="normal" in="SourceGraphic" in2="BackgroundImageFix" result="shape"/>
<feGaussianBlur stdDeviation="0.073168" result="effect1_foregroundBlur_1067_41"/>
</filter>
<filter id="filter15_f_1067_41" x="134.296" y="93.1606" width="19.9873" height="55.4163" filterUnits="userSpaceOnUse" color-interpolation-filters="sRGB">
<feFlood flood-opacity="0" result="BackgroundImageFix"/>
<feBlend mode="normal" in="SourceGraphic" in2="BackgroundImageFix" result="shape"/>
<feGaussianBlur stdDeviation="0.292242" result="effect1_foregroundBlur_1067_41"/>
</filter>
<filter id="filter16_f_1067_41" x="62.6005" y="83.6469" width="24.4963" height="22.9575" filterUnits="userSpaceOnUse" color-interpolation-filters="sRGB">
<feFlood flood-opacity="0" result="BackgroundImageFix"/>
<feBlend mode="normal" in="SourceGraphic" in2="BackgroundImageFix" result="shape"/>
<feGaussianBlur stdDeviation="0.147995" result="effect1_foregroundBlur_1067_41"/>
</filter>
<filter id="filter17_f_1067_41" x="98.2859" y="81.6972" width="36.981" height="25.9354" filterUnits="userSpaceOnUse" color-interpolation-filters="sRGB">
<feFlood flood-opacity="0" result="BackgroundImageFix"/>
<feBlend mode="normal" in="SourceGraphic" in2="BackgroundImageFix" result="shape"/>
<feGaussianBlur stdDeviation="0.243791" result="effect1_foregroundBlur_1067_41"/>
</filter>
<filter id="filter18_f_1067_41" x="84.151" y="84.7137" width="15.1951" height="16.1988" filterUnits="userSpaceOnUse" color-interpolation-filters="sRGB">
<feFlood flood-opacity="0" result="BackgroundImageFix"/>
<feBlend mode="normal" in="SourceGraphic" in2="BackgroundImageFix" result="shape"/>
<feGaussianBlur stdDeviation="0.168169" result="effect1_foregroundBlur_1067_41"/>
</filter>
<filter id="filter19_f_1067_41" x="84.609" y="107.226" width="4.08284" height="41.4276" filterUnits="userSpaceOnUse" color-interpolation-filters="sRGB">
<feFlood flood-opacity="0" result="BackgroundImageFix"/>
<feBlend mode="normal" in="SourceGraphic" in2="BackgroundImageFix" result="shape"/>
<feGaussianBlur stdDeviation="0.309774" result="effect1_foregroundBlur_1067_41"/>
</filter>
<filter id="filter20_f_1067_41" x="124.571" y="60.1928" width="8.92442" height="9.84971" filterUnits="userSpaceOnUse" color-interpolation-filters="sRGB">
<feFlood flood-opacity="0" result="BackgroundImageFix"/>
<feBlend mode="normal" in="SourceGraphic" in2="BackgroundImageFix" result="shape"/>
<feGaussianBlur stdDeviation="0.193019" result="effect1_foregroundBlur_1067_41"/>
</filter>
<filter id="filter21_f_1067_41" x="123.166" y="146.756" width="49.7278" height="53.9536" filterUnits="userSpaceOnUse" color-interpolation-filters="sRGB">
<feFlood flood-opacity="0" result="BackgroundImageFix"/>
<feBlend mode="normal" in="SourceGraphic" in2="BackgroundImageFix" result="shape"/>
<feGaussianBlur stdDeviation="0.479548" result="effect1_foregroundBlur_1067_41"/>
</filter>
<filter id="filter22_f_1067_41" x="128.341" y="139.414" width="57.0424" height="57.7873" filterUnits="userSpaceOnUse" color-interpolation-filters="sRGB">
<feFlood flood-opacity="0" result="BackgroundImageFix"/>
<feBlend mode="normal" in="SourceGraphic" in2="BackgroundImageFix" result="shape"/>
<feGaussianBlur stdDeviation="1.0238" result="effect1_foregroundBlur_1067_41"/>
</filter>
<filter id="filter23_f_1067_41" x="130.943" y="135.812" width="53.7552" height="53.5013" filterUnits="userSpaceOnUse" color-interpolation-filters="sRGB">
<feFlood flood-opacity="0" result="BackgroundImageFix"/>
<feBlend mode="normal" in="SourceGraphic" in2="BackgroundImageFix" result="shape"/>
<feGaussianBlur stdDeviation="0.806721" result="effect1_foregroundBlur_1067_41"/>
</filter>
<filter id="filter24_f_1067_41" x="131.759" y="141.943" width="37.2503" height="6.37018" filterUnits="userSpaceOnUse" color-interpolation-filters="sRGB">
<feFlood flood-opacity="0" result="BackgroundImageFix"/>
<feBlend mode="normal" in="SourceGraphic" in2="BackgroundImageFix" result="shape"/>
<feGaussianBlur stdDeviation="0.102615" result="effect1_foregroundBlur_1067_41"/>
</filter>
<filter id="filter25_f_1067_41" x="139.754" y="102.27" width="8.71125" height="8.85529" filterUnits="userSpaceOnUse" color-interpolation-filters="sRGB">
<feFlood flood-opacity="0" result="BackgroundImageFix"/>
<feBlend mode="normal" in="SourceGraphic" in2="BackgroundImageFix" result="shape"/>
<feGaussianBlur stdDeviation="0.491044" result="effect1_foregroundBlur_1067_41"/>
</filter>
<filter id="filter26_f_1067_41" x="70.0823" y="75.8323" width="3.34807" height="3.43474" filterUnits="userSpaceOnUse" color-interpolation-filters="sRGB">
<feFlood flood-opacity="0" result="BackgroundImageFix"/>
<feBlend mode="normal" in="SourceGraphic" in2="BackgroundImageFix" result="shape"/>
<feGaussianBlur stdDeviation="0.137066" result="effect1_foregroundBlur_1067_41"/>
</filter>
<filter id="filter27_f_1067_41" x="138.477" y="142.812" width="25.232" height="21.9561" filterUnits="userSpaceOnUse" color-interpolation-filters="sRGB">
<feFlood flood-opacity="0" result="BackgroundImageFix"/>
<feBlend mode="normal" in="SourceGraphic" in2="BackgroundImageFix" result="shape"/>
<feGaussianBlur stdDeviation="0.609264" result="effect1_foregroundBlur_1067_41"/>
</filter>
<filter id="filter28_f_1067_41" x="139.223" y="143.621" width="23.7399" height="15.0558" filterUnits="userSpaceOnUse" color-interpolation-filters="sRGB">
<feFlood flood-opacity="0" result="BackgroundImageFix"/>
<feBlend mode="normal" in="SourceGraphic" in2="BackgroundImageFix" result="shape"/>
<feGaussianBlur stdDeviation="0.236245" result="effect1_foregroundBlur_1067_41"/>
</filter>
<filter id="filter29_f_1067_41" x="140.928" y="133.749" width="24.2602" height="11.8163" filterUnits="userSpaceOnUse" color-interpolation-filters="sRGB">
<feFlood flood-opacity="0" result="BackgroundImageFix"/>
<feBlend mode="normal" in="SourceGraphic" in2="BackgroundImageFix" result="shape"/>
<feGaussianBlur stdDeviation="0.219584" result="effect1_foregroundBlur_1067_41"/>
</filter>
<filter id="filter30_f_1067_41" x="140.928" y="133.749" width="24.2602" height="11.8163" filterUnits="userSpaceOnUse" color-interpolation-filters="sRGB">
<feFlood flood-opacity="0" result="BackgroundImageFix"/>
<feBlend mode="normal" in="SourceGraphic" in2="BackgroundImageFix" result="shape"/>
<feGaussianBlur stdDeviation="0.219584" result="effect1_foregroundBlur_1067_41"/>
</filter>
<filter id="filter31_f_1067_41" x="48.3802" y="97.3731" width="18.9739" height="43.5999" filterUnits="userSpaceOnUse" color-interpolation-filters="sRGB">
<feFlood flood-opacity="0" result="BackgroundImageFix"/>
<feBlend mode="normal" in="SourceGraphic" in2="BackgroundImageFix" result="shape"/>
<feGaussianBlur stdDeviation="0.242506" result="effect1_foregroundBlur_1067_41"/>
</filter>
<filter id="filter32_f_1067_41" x="19.3939" y="137.083" width="62.0022" height="61.4692" filterUnits="userSpaceOnUse" color-interpolation-filters="sRGB">
<feFlood flood-opacity="0" result="BackgroundImageFix"/>
<feBlend mode="normal" in="SourceGraphic" in2="BackgroundImageFix" result="shape"/>
<feGaussianBlur stdDeviation="0.840631" result="effect1_foregroundBlur_1067_41"/>
</filter>
<filter id="filter33_f_1067_41" x="22.0688" y="135.182" width="54.0138" height="57.2084" filterUnits="userSpaceOnUse" color-interpolation-filters="sRGB">
<feFlood flood-opacity="0" result="BackgroundImageFix"/>
<feBlend mode="normal" in="SourceGraphic" in2="BackgroundImageFix" result="shape"/>
<feGaussianBlur stdDeviation="0.517366" result="effect1_foregroundBlur_1067_41"/>
</filter>
<filter id="filter34_f_1067_41" x="58.154" y="147.111" width="17.9352" height="32.2731" filterUnits="userSpaceOnUse" color-interpolation-filters="sRGB">
<feFlood flood-opacity="0" result="BackgroundImageFix"/>
<feBlend mode="normal" in="SourceGraphic" in2="BackgroundImageFix" result="shape"/>
<feGaussianBlur stdDeviation="0.0792644" result="effect1_foregroundBlur_1067_41"/>
</filter>
<radialGradient id="paint0_radial_1067_41" cx="0" cy="0" r="1" gradientUnits="userSpaceOnUse" gradientTransform="translate(2585.97 3771.69) rotate(-2.41003) scale(166.616 407.816)">
<stop stop-color="#FEFEFC"/>
<stop offset="0.757" stop-color="#FEFEFC"/>
<stop offset="1" stop-color="#D4D4D4"/>
</radialGradient>
<radialGradient id="paint1_radial_1067_41" cx="0" cy="0" r="1" gradientUnits="userSpaceOnUse" gradientTransform="translate(4641.9 3950.21) rotate(-1.81001) scale(298.301 431.072)">
<stop stop-color="#FEFEFC"/>
<stop offset="0.757" stop-color="#FEFEFC"/>
<stop offset="1" stop-color="#D4D4D4"/>
</radialGradient>
<radialGradient id="paint2_radial_1067_41" cx="0" cy="0" r="1" gradientUnits="userSpaceOnUse" gradientTransform="translate(4951.97 -1303.1) rotate(-36.0085) scale(273.293 181.298)">
<stop stop-color="#020204"/>
<stop offset="0.734" stop-color="#020204"/>
<stop offset="1" stop-color="#5C5C5C"/>
</radialGradient>
<linearGradient id="paint3_linear_1067_41" x1="1524.28" y1="649.377" x2="1555.12" y2="686.439" gradientUnits="userSpaceOnUse">
<stop stop-color="#949494" stop-opacity="0.392"/>
<stop offset="0.5" stop-color="#949494"/>
<stop offset="1" stop-color="#949494" stop-opacity="0.392"/>
</linearGradient>
<linearGradient id="paint4_linear_1067_41" x1="2937.27" y1="2799.45" x2="3494.88" y2="3257.48" gradientUnits="userSpaceOnUse">
<stop stop-color="#747474"/>
<stop offset="0.125" stop-color="#8C8C8C"/>
<stop offset="0.25" stop-color="#A4A4A4"/>
<stop offset="0.5" stop-color="#D4D4D4"/>
<stop offset="0.619" stop-color="#D4D4D4"/>
<stop offset="1" stop-color="#7C7C7C"/>
</linearGradient>
<linearGradient id="paint5_linear_1067_41" x1="269.674" y1="1026.07" x2="404.748" y2="1164.27" gradientUnits="userSpaceOnUse">
<stop stop-color="#646464" stop-opacity="0"/>
<stop offset="0.306" stop-color="#646464" stop-opacity="0.583"/>
<stop offset="0.47" stop-color="#646464"/>
<stop offset="0.728" stop-color="#646464" stop-opacity="0.257"/>
<stop offset="1" stop-color="#646464" stop-opacity="0"/>
</linearGradient>
<linearGradient id="paint6_linear_1067_41" x1="-164.789" y1="927.091" x2="-52.0856" y2="1050.59" gradientUnits="userSpaceOnUse">
<stop stop-color="#646464" stop-opacity="0"/>
<stop offset="0.306" stop-color="#646464" stop-opacity="0.583"/>
<stop offset="0.47" stop-color="#646464"/>
<stop offset="0.728" stop-color="#646464" stop-opacity="0.257"/>
<stop offset="1" stop-color="#646464" stop-opacity="0"/>
</linearGradient>
<linearGradient id="paint7_linear_1067_41" x1="660.169" y1="783.422" x2="698.543" y2="826.177" gradientUnits="userSpaceOnUse">
<stop stop-color="#757574" stop-opacity="0"/>
<stop offset="0.263" stop-color="#757574"/>
<stop offset="0.5" stop-color="#757574"/>
<stop offset="1" stop-color="#757574" stop-opacity="0"/>
</linearGradient>
<radialGradient id="paint8_radial_1067_41" cx="0" cy="0" r="1" gradientUnits="userSpaceOnUse" gradientTransform="translate(12266.1 -1980.1) rotate(-22.428) scale(1287.64 447.35)">
<stop stop-color="#D2940A"/>
<stop offset="0.751" stop-color="#D89C08"/>
<stop offset="0.866" stop-color="#B67E07"/>
<stop offset="1" stop-color="#946106"/>
</radialGradient>
<linearGradient id="paint9_linear_1067_41" x1="1969.76" y1="3267.32" x2="4249.74" y2="3231.93" gradientUnits="userSpaceOnUse">
<stop stop-color="#AD780A"/>
<stop offset="0.12" stop-color="#D89E08"/>
<stop offset="0.255" stop-color="#EDB80B"/>
<stop offset="0.392" stop-color="#EBC80D"/>
<stop offset="0.527" stop-color="#F5D838"/>
<stop offset="0.769" stop-color="#F6D811"/>
<stop offset="1" stop-color="#F5CD31"/>
</linearGradient>
<radialGradient id="paint10_radial_1067_41" cx="0" cy="0" r="1" gradientUnits="userSpaceOnUse" gradientTransform="translate(392.235 217.993) scale(12.2483 3.74979)">
<stop stop-color="#3A2903"/>
<stop offset="0.555" stop-color="#735208"/>
<stop offset="1" stop-color="#AC8C04"/>
</radialGradient>
<radialGradient id="paint11_radial_1067_41" cx="0" cy="0" r="1" gradientUnits="userSpaceOnUse" gradientTransform="translate(184.848 313.213) scale(2.3371 2.77051)">
<stop stop-color="#3A2903"/>
<stop offset="0.555" stop-color="#735208"/>
<stop offset="1" stop-color="#AC8C04"/>
</radialGradient>
<linearGradient id="paint12_linear_1067_41" x1="961.393" y1="795.674" x2="963.819" y2="808.261" gradientUnits="userSpaceOnUse">
<stop stop-color="#F5CE2D"/>
<stop offset="1" stop-color="#D79B08"/>
</linearGradient>
<radialGradient id="paint13_radial_1067_41" cx="0" cy="0" r="1" gradientUnits="userSpaceOnUse" gradientTransform="translate(2664.7 134.414) rotate(-9.34942) scale(339.799 145.751)">
<stop stop-color="#C8C8C8"/>
<stop offset="1" stop-color="#797978"/>
</radialGradient>
<radialGradient id="paint14_radial_1067_41" cx="0" cy="0" r="1" gradientUnits="userSpaceOnUse" gradientTransform="translate(-5327.55 3850.86) rotate(180) scale(457.306 467.641)">
<stop/>
<stop offset="1" stop-opacity="0.25"/>
</radialGradient>
<radialGradient id="paint15_radial_1067_41" cx="0" cy="0" r="1" gradientUnits="userSpaceOnUse" gradientTransform="translate(11144.3 4583.34) scale(986.228 521.897)">
<stop/>
<stop offset="1" stop-opacity="0.25"/>
</radialGradient>
<radialGradient id="paint16_radial_1067_41" cx="0" cy="0" r="1" gradientUnits="userSpaceOnUse" gradientTransform="translate(3892.79 3815.56) scale(157.498 180.039)">
<stop/>
<stop offset="1" stop-opacity="0.25"/>
</radialGradient>
<linearGradient id="paint17_linear_1067_41" x1="1476.45" y1="17002.1" x2="1685.1" y2="18432.9" gradientUnits="userSpaceOnUse">
<stop/>
<stop offset="1" stop-opacity="0"/>
</linearGradient>
<linearGradient id="paint18_linear_1067_41" x1="25720.4" y1="22326.9" x2="28630.6" y2="17752" gradientUnits="userSpaceOnUse">
<stop stop-color="#3E2A06"/>
<stop offset="1" stop-color="#AD780A"/>
</linearGradient>
<linearGradient id="paint19_linear_1067_41" x1="1795.8" y1="1868.03" x2="1794.42" y2="1944.8" gradientUnits="userSpaceOnUse">
<stop stop-color="#F3CD0C"/>
<stop offset="1" stop-color="#F3CD0C" stop-opacity="0"/>
</linearGradient>
<radialGradient id="paint20_radial_1067_41" cx="0" cy="0" r="1" gradientUnits="userSpaceOnUse" gradientTransform="translate(8523.59 11100.6) rotate(15) scale(520.068 467.466)">
<stop stop-color="#110800"/>
<stop offset="0.591" stop-color="#A65A00" stop-opacity="0.8"/>
<stop offset="1" stop-color="#FF921E" stop-opacity="0"/>
</radialGradient>
<radialGradient id="paint21_radial_1067_41" cx="0" cy="0" r="1" gradientUnits="userSpaceOnUse" gradientTransform="translate(8523.59 8064.9) rotate(10.9628) scale(511.685 343.48)">
<stop stop-color="#110800"/>
<stop offset="0.591" stop-color="#A65A00" stop-opacity="0.8"/>
<stop offset="1" stop-color="#FF921E" stop-opacity="0"/>
</radialGradient>
<radialGradient id="paint22_radial_1067_41" cx="0" cy="0" r="1" gradientUnits="userSpaceOnUse" gradientTransform="translate(3176.31 1989.48) rotate(23.5217) scale(188.673 40.7907)">
<stop stop-color="#7C7C7C"/>
<stop offset="1" stop-color="#7C7C7C" stop-opacity="0.33"/>
</radialGradient>
<linearGradient id="paint23_linear_1067_41" x1="8523.62" y1="3189.83" x2="8593.33" y2="3183.62" gradientUnits="userSpaceOnUse">
<stop stop-color="#7C7C7C"/>
<stop offset="1" stop-color="#7C7C7C" stop-opacity="0.33"/>
</linearGradient>
<linearGradient id="paint24_linear_1067_41" x1="7874.61" y1="19166.2" x2="10871" y2="24248.7" gradientUnits="userSpaceOnUse">
<stop stop-color="#B98309"/>
<stop offset="1" stop-color="#382605"/>
</linearGradient>
<linearGradient id="paint25_linear_1067_41" x1="3071.74" y1="10444.3" x2="3650.82" y2="11045.3" gradientUnits="userSpaceOnUse">
<stop stop-color="#EBC40C"/>
<stop offset="1" stop-color="#EBC40C" stop-opacity="0"/>
</linearGradient>
<clipPath id="clip0_1067_41">
<rect width="200" height="200" fill="white"/>
</clipPath>
</defs>
</svg>
