<svg width="200" height="200" viewBox="0 0 200 200" fill="none" xmlns="http://www.w3.org/2000/svg">
<g clip-path="url(#clip0_1067_35)">
<path d="M99.375 0.543945L104.712 10.5689C105.912 12.4189 107.212 14.0564 108.744 15.5814C113.212 20.0502 117.456 24.7314 121.269 29.7439C130.312 41.6189 136.412 54.8064 140.769 69.0689C143.381 77.7814 144.8 86.7189 144.906 95.7564C145.344 122.775 136.081 145.975 117.406 165.256C114.356 168.306 111.094 171.131 107.594 173.644C105.744 173.644 104.869 172.225 104.106 170.919C102.687 168.525 101.819 165.794 101.381 163.075C100.725 159.806 100.294 156.538 100.506 153.163V151.638C100.356 151.313 98.725 1.3127 99.375 0.543945Z" fill="#599636"/>
<path d="M99.3753 0.212577C99.1565 -0.224923 98.9378 0.106327 98.719 0.318827C98.8253 2.50633 98.0628 4.45633 96.869 6.31883C95.5565 8.16883 93.819 9.58758 92.0753 11.1126C82.3878 19.5001 74.7628 29.6313 68.6565 40.9626C60.5315 56.2126 56.344 72.5563 55.1565 89.7626C54.6128 95.9688 57.119 117.869 59.0753 124.188C64.4128 140.963 74.0003 155.019 86.419 167.219C89.469 170.156 92.7315 172.881 96.1065 175.5C97.0878 175.5 97.194 174.625 97.419 173.975C97.8492 172.584 98.1772 171.164 98.4003 169.725L100.588 153.388L99.3753 0.212577Z" fill="#6CAC48"/>
<path d="M104.713 180.281C104.931 177.781 106.131 175.706 107.438 173.638C106.125 173.094 105.15 172.013 104.388 170.806C103.731 169.719 103.188 168.413 102.763 167.213C101.238 162.638 100.913 157.838 100.475 153.163V150.331C99.9314 150.769 99.8189 154.469 99.8189 155.019C99.5009 159.96 98.8452 164.873 97.8564 169.725C97.5314 171.688 97.3127 173.644 96.1064 175.388C96.1064 175.606 96.1064 175.825 96.2127 176.15C98.1752 181.925 98.7127 187.806 99.0439 193.8V195.988C99.0439 198.6 98.9377 198.05 101.106 198.925C101.981 199.25 102.956 199.363 103.831 200.013C104.488 200.013 104.594 199.469 104.594 199.031L104.269 195.438V185.413C104.163 183.663 104.488 181.925 104.706 180.288L104.713 180.281Z" fill="#C2BFBF"/>
</g>
<defs>
<clipPath id="clip0_1067_35">
<rect width="200" height="200" fill="white"/>
</clipPath>
</defs>
</svg>
