<svg width="200" height="200" viewBox="0 0 200 200" fill="none" xmlns="http://www.w3.org/2000/svg">
<g clip-path="url(#clip0_1067_238)">
<path d="M93.4577 0.15631C93.028 0.195369 91.661 0.332074 90.4306 0.429721C62.0545 2.98806 35.4751 18.2991 18.6408 41.8319C9.26668 54.9166 3.27118 69.7589 1.00577 85.48C0.205069 90.9678 0.107422 92.5887 0.107422 100.029C0.107422 107.47 0.205069 109.091 1.00577 114.579C6.43493 152.095 33.1315 183.615 69.3389 195.294C75.8227 197.383 82.658 198.809 90.4306 199.668C93.4577 200 106.542 200 109.569 199.668C122.986 198.184 134.352 194.864 145.562 189.142C147.281 188.263 147.613 188.029 147.378 187.833C147.222 187.716 139.898 177.893 131.11 166.019L115.135 144.439L95.1177 114.813C84.1031 98.5256 75.0415 85.2066 74.9634 85.2066C74.8853 85.1871 74.8072 98.3499 74.7681 114.423C74.7095 142.564 74.69 143.697 74.3385 144.361C73.8307 145.318 73.4401 145.708 72.6199 146.138C71.9949 146.451 71.4481 146.509 68.4992 146.509H65.1206L64.2223 145.943C63.6364 145.572 63.2067 145.084 62.9138 144.517L62.5037 143.638L62.5427 104.482L62.6013 65.3062L63.2067 64.5445C63.5192 64.1344 64.1832 63.6071 64.6519 63.3533C65.4526 62.9627 65.7651 62.9236 69.1436 62.9236C73.1276 62.9236 73.7916 63.0799 74.8267 64.2126C75.1196 64.525 85.9584 80.8516 98.9259 100.518C111.893 120.184 129.626 147.037 138.336 160.219L154.155 184.181L154.956 183.654C162.045 179.045 169.544 172.483 175.481 165.648C188.116 151.138 196.26 133.444 198.994 114.579C199.795 109.091 199.893 107.47 199.893 100.029C199.893 92.5887 199.795 90.9678 198.994 85.48C193.565 47.9641 166.868 16.4438 130.661 4.76523C124.275 2.69512 117.479 1.26948 109.862 0.410191C107.988 0.214898 95.0786 7.51288e-05 93.4577 0.15631ZM134.352 60.5801C135.29 61.0488 136.051 61.9471 136.325 62.8846C136.481 63.3923 136.52 74.2506 136.481 98.7209L136.422 133.835L130.231 124.343L124.021 114.852V89.3273C124.021 72.825 124.099 63.5486 124.216 63.0994C124.529 62.0057 125.212 61.1464 126.15 60.6387C126.951 60.2286 127.243 60.1895 130.31 60.1895C133.2 60.1895 133.708 60.2286 134.352 60.5801Z" fill="black"/>
<path d="M153.179 184.611C152.495 185.04 152.28 185.333 152.886 185.001C153.315 184.748 154.018 184.22 153.901 184.201C153.843 184.201 153.511 184.396 153.179 184.611ZM151.831 185.49C151.48 185.763 151.48 185.783 151.909 185.568C152.144 185.451 152.339 185.314 152.339 185.275C152.339 185.119 152.241 185.158 151.831 185.49ZM150.855 186.075C150.503 186.349 150.503 186.368 150.933 186.154C151.167 186.036 151.362 185.9 151.362 185.861C151.362 185.704 151.265 185.743 150.855 186.075ZM149.878 186.661C149.527 186.935 149.527 186.954 149.956 186.739C150.191 186.622 150.386 186.486 150.386 186.447C150.386 186.29 150.288 186.329 149.878 186.661ZM148.394 187.443C147.652 187.833 147.691 187.989 148.433 187.618C148.765 187.443 149.019 187.267 149.019 187.228C149.019 187.091 148.999 187.111 148.394 187.443Z" fill="black"/>
</g>
<defs>
<clipPath id="clip0_1067_238">
<rect width="200" height="200" fill="white"/>
</clipPath>
</defs>
</svg>
