<svg width="200" height="200" viewBox="0 0 200 200" fill="none" xmlns="http://www.w3.org/2000/svg">
<path d="M91.5998 2.66865C96.5998 -0.162595 102.975 -0.175095 107.85 2.66865L182.5 44.7499C187.169 47.3749 190.294 52.5812 190.25 57.9624V142.337C190.281 147.944 186.85 153.262 181.925 155.837L107.675 197.725C105.135 199.128 102.266 199.826 99.3657 199.746C96.4653 199.666 93.6392 198.81 91.1811 197.269L68.8998 184.394C67.3811 183.487 65.6748 182.769 64.5998 181.3C65.5498 180.025 67.2373 179.862 68.6123 179.3C71.7123 178.312 74.5498 176.8 77.3998 175.2C78.1186 174.7 78.9998 174.887 79.6873 175.337L98.6873 186.325C100.044 187.106 101.419 186.075 102.581 185.419L175.487 144.275C176.387 143.837 176.887 142.887 176.812 141.9V58.3374C176.912 57.2124 176.269 56.1874 175.25 55.7312L101.187 14.0249C100.761 13.7297 100.254 13.571 99.7352 13.5699C99.2162 13.5688 98.7092 13.7253 98.2811 14.0187L24.3248 55.8124C23.3248 56.2687 22.6373 57.2812 22.7623 58.4062V141.969C22.6748 142.956 23.1998 143.887 24.1061 144.312L43.8686 155.469C47.5811 157.469 52.1373 158.594 56.2248 157.125C58.0135 156.451 59.5534 155.246 60.6381 153.672C61.7228 152.098 62.3004 150.23 62.2936 148.319L62.3123 65.2562C62.2248 64.0249 63.3873 63.0062 64.5811 63.1312H74.0811C75.3311 63.0999 76.3123 64.4249 76.1436 65.6624L76.1248 149.25C76.1311 156.675 73.0811 164.75 66.2123 168.394C57.7498 172.769 47.2873 171.85 38.9248 167.644L17.6748 155.894C12.6748 153.394 9.31858 147.994 9.34983 142.394V58.0187C9.37062 55.2763 10.1245 52.5895 11.5334 50.2366C12.9422 47.8838 14.9548 45.9506 17.3623 44.6374L91.5998 2.66865ZM113.125 61.1562C123.919 60.5312 135.475 60.7437 145.187 66.0624C152.706 70.1374 156.875 78.6874 157.012 87.0499C156.8 88.1749 155.625 88.7999 154.55 88.7187C151.425 88.7124 148.287 88.7624 145.15 88.6999C143.819 88.7499 143.05 87.5249 142.881 86.3499C141.981 82.3499 139.8 78.3937 136.037 76.4624C130.262 73.5687 123.562 73.7124 117.262 73.7749C112.662 74.0249 107.719 74.4187 103.825 77.1187C100.825 79.1687 99.9248 83.3687 100.994 86.6312C101.994 89.0249 104.762 89.7937 107.019 90.5062C120.031 93.9062 133.812 93.6312 146.581 98.0499C151.862 99.8749 157.031 103.425 158.844 108.956C161.206 116.369 160.175 125.231 154.906 131.181C150.631 136.081 144.406 138.681 138.187 140.194C129.919 142.037 121.344 142.081 112.95 141.256C105.056 140.356 96.8436 138.281 90.7498 132.906C85.5373 128.381 82.9998 121.331 83.2498 114.531C83.3123 113.381 84.4561 112.581 85.5623 112.675H94.9373C96.1998 112.587 97.1248 113.675 97.1873 114.862C97.7686 118.612 99.1998 122.675 102.525 124.862C108.937 129 116.981 128.712 124.319 128.831C130.4 128.562 137.225 128.481 142.194 124.456C144.819 122.162 145.587 118.331 144.881 115.031C144.112 112.244 141.131 110.95 138.631 110.031C125.787 105.969 111.85 107.444 99.1311 102.844C93.9686 101.019 88.9748 97.5687 86.9936 92.2624C84.2248 84.7624 85.4936 75.4687 91.3248 69.7187C96.9498 63.9999 105.2 61.7937 113.012 61.0062L113.125 61.1562Z" fill="#8CC84B"/>
</svg>
