<svg width="200" height="200" viewBox="0 0 200 200" fill="none" xmlns="http://www.w3.org/2000/svg">
<path d="M148.304 145.594C149.578 134.992 149.195 133.445 157.085 135.156L159.093 135.336C165.164 135.609 173.101 134.359 177.843 132.195C187.882 127.539 193.835 119.758 183.937 121.805C161.359 126.461 159.718 118.813 159.718 118.813C183.57 83.4219 193.546 38.5 184.929 27.5078C161.46 -2.49218 120.828 11.6953 120.148 12.0703L119.929 12.1094C115.476 11.1719 110.554 10.625 104.851 10.5469C94.6323 10.3906 86.8823 13.2266 80.9917 17.6875C80.9917 17.6875 8.51516 -12.1719 11.8824 55.2422C12.6011 69.5859 32.4292 163.836 56.1011 135.32C64.7652 124.898 73.1245 116.094 73.1245 116.094C77.2652 118.852 82.2417 120.258 87.4527 119.75L87.8589 119.406C87.7387 120.757 87.7938 122.117 88.023 123.453C81.9292 130.266 83.7261 131.461 71.5386 133.969C59.2105 136.508 66.4605 141.031 71.1792 142.219C76.9136 143.656 90.1792 145.688 99.148 133.141L98.7886 134.57C101.179 136.484 101.015 148.32 101.367 156.773C101.718 165.227 102.273 173.125 104 177.773C105.726 182.422 107.75 194.414 123.765 191.055C137.148 188.187 147.382 184.055 148.32 145.664" fill="black"/>
<path d="M148.304 145.594C149.578 134.992 149.195 133.445 157.085 135.156L159.093 135.336C165.164 135.609 173.101 134.359 177.843 132.195C187.882 127.539 193.835 119.758 183.937 121.805C161.359 126.461 159.718 118.813 159.718 118.813C183.57 83.4219 193.546 38.5 184.929 27.5078C161.46 -2.49218 120.828 11.6953 120.148 12.0703L119.929 12.1094C115.476 11.1719 110.554 10.625 104.851 10.5469C94.6323 10.3906 86.8823 13.2266 80.9917 17.6875C80.9917 17.6875 8.51516 -12.1719 11.8824 55.2422C12.6011 69.5859 32.4292 163.836 56.1011 135.32C64.7652 124.898 73.1245 116.094 73.1245 116.094C77.2652 118.852 82.2417 120.258 87.4527 119.75L87.8589 119.406C87.7387 120.757 87.7938 122.117 88.023 123.453C81.9292 130.266 83.7261 131.461 71.5386 133.969C59.2105 136.508 66.4605 141.031 71.1792 142.219C76.9136 143.656 90.1792 145.688 99.148 133.141L98.7886 134.57C101.179 136.484 101.015 148.32 101.367 156.773C101.718 165.227 102.273 173.125 104 177.773C105.726 182.422 107.75 194.414 123.765 191.055C137.148 188.187 147.382 184.055 148.32 145.664" stroke="black" stroke-width="5.3725"/>
<path d="M183.867 121.875C161.289 126.531 159.648 118.883 159.648 118.883C183.5 83.4921 193.477 38.5703 184.867 27.5781C161.398 -2.42193 120.766 11.7734 120.086 12.1406L119.867 12.1796C114.904 11.1838 109.859 10.6581 104.797 10.6093C94.5782 10.4531 86.8282 13.289 80.9375 17.7499C80.9375 17.7499 8.45317 -12.1094 11.8282 55.3046C12.5469 69.6484 32.375 163.898 56.0469 135.383C64.7657 124.898 73.125 116.094 73.125 116.094C77.2657 118.852 82.2422 120.258 87.4532 119.75L87.8594 119.406C87.7401 120.757 87.7952 122.117 88.0235 123.453C81.9297 130.266 83.7266 131.461 71.5391 133.969C59.211 136.508 66.461 141.031 71.1797 142.219C76.9141 143.656 90.1797 145.687 99.1485 133.141L98.7891 134.57C101.18 136.484 102.852 147.016 102.57 156.562C102.289 166.109 102.102 172.656 103.977 177.781C105.852 182.906 107.727 194.422 123.742 191.062C137.125 188.195 144.055 180.75 145.031 168.359C145.719 159.547 147.266 160.844 147.375 152.969L148.625 149.234C150.055 137.281 148.859 133.43 157.102 135.227L159.109 135.406C165.18 135.68 173.125 134.43 177.781 132.266C187.82 127.609 193.766 119.828 183.867 121.875Z" fill="#336791"/>
<path d="M100.109 128.649C99.4844 150.883 100.266 173.274 102.437 178.649C104.609 184.024 109.273 194.664 125.297 191.242C138.68 188.375 143.555 182.82 145.664 170.563L150.609 131.367M80.9062 17.1876C80.9062 17.1876 8.37497 -12.4687 11.75 54.9454C12.4687 69.2891 32.2969 163.539 55.9687 135.024C64.6094 124.609 72.4219 116.461 72.4219 116.461M120.078 11.7735C117.578 12.5548 160.422 -3.89055 184.781 27.2266C193.375 38.2188 183.414 83.1407 159.562 118.531" stroke="white" stroke-width="1.79" stroke-linecap="round" stroke-linejoin="round"/>
<path d="M159.57 118.516C159.57 118.516 161.133 126.172 183.789 121.5C193.688 119.453 187.727 127.235 177.695 131.891C169.461 135.719 150.992 136.696 150.688 131.422C149.906 117.789 160.406 121.93 159.648 118.516C158.961 115.438 154.258 112.422 151.164 104.891C148.453 98.3284 113.977 47.9377 160.727 55.4143C162.445 55.0627 148.539 10.8831 104.789 10.2424C61.0391 9.6018 62.4219 64.0315 62.4219 64.0315" stroke="white" stroke-width="1.79" stroke-linecap="round" stroke-linejoin="bevel"/>
<path d="M87.8669 123.188C81.7731 130 83.57 131.196 71.3825 133.704C59.0544 136.243 66.3044 140.766 71.0231 141.954C76.7575 143.391 90.0231 145.422 98.9919 132.868C101.726 129.039 98.9763 122.946 95.2263 121.399C93.4138 120.649 90.9919 119.711 87.8825 123.196L87.8669 123.188Z" stroke="white" stroke-width="1.79" stroke-linejoin="round"/>
<path d="M87.4684 123.071C86.8434 119.063 88.7809 114.305 90.8512 108.727C93.9606 100.367 101.132 92.0081 95.3981 65.469C91.1246 45.7034 62.4293 61.3519 62.4293 64.0315C62.4293 66.7112 63.7262 77.6253 61.9606 90.3206C59.6403 106.899 72.5074 120.914 87.3199 119.485" stroke="white" stroke-width="1.79" stroke-linecap="round" stroke-linejoin="round"/>
<path d="M80.6406 63.6331C80.5078 64.5472 82.3203 66.9925 84.6719 67.3206C87.0235 67.6488 89.0313 65.7425 89.1641 64.8206C89.2969 63.8988 87.4844 62.8988 85.1328 62.5706C82.7813 62.2425 80.7578 62.7269 80.6406 63.6331Z" fill="white" stroke="white" stroke-width="0.5975"/>
<path d="M152.234 61.7659C152.359 62.68 150.554 65.1253 148.203 65.4534C145.851 65.7816 143.828 63.8753 143.71 62.9534C143.593 62.0316 145.39 61.0316 147.742 60.7034C150.093 60.3753 152.117 60.8597 152.234 61.7659Z" fill="white" stroke="white" stroke-width="0.2975"/>
<path d="M160.641 55.4297C161.031 62.6172 159.094 67.5 158.844 75.1484C158.484 86.2578 164.141 98.9766 155.617 111.711" stroke="white" stroke-width="1.79" stroke-linecap="round" stroke-linejoin="round"/>
</svg>
