<svg width="200" height="200" viewBox="0 0 200 200" fill="none" xmlns="http://www.w3.org/2000/svg">
<g clip-path="url(#clip0_1067_217)">
<path d="M99.9971 0C44.7689 0 -0.00292969 44.7688 -0.00292969 100C-0.00292969 155.231 44.7721 200 99.9971 200C155.222 200 199.997 155.228 199.997 100C199.997 44.7719 155.222 0 99.9971 0ZM99.9971 187.156C84.2846 187.156 71.5439 176.656 71.5439 163.719H128.419C128.419 176.662 115.678 187.156 99.9658 187.156H99.9971ZM147.028 155.959H52.9971V138.916H147.028V155.959ZM146.691 130.147H53.2689L52.3408 129.072C42.7158 117.384 40.4533 111.259 38.2533 105.072C38.2158 104.866 49.9221 107.466 58.2221 109.331C58.2221 109.331 62.4939 110.319 68.7346 111.456C62.7408 104.425 59.1814 95.4969 59.1814 86.3625C59.1814 66.3156 74.5564 48.8 69.0096 34.6437C74.4096 35.0812 80.1814 46.0375 80.5721 63.1625C86.3127 55.2312 88.7127 40.75 88.7127 31.8687C88.7127 22.675 94.7752 11.9937 100.831 11.6281C95.4252 20.5344 102.231 28.1594 108.275 47.0969C110.544 54.2094 110.253 66.1781 112.003 73.7687C112.585 58.0031 115.294 35.0031 125.297 27.0625C120.885 37.0625 125.953 49.5781 129.416 55.5937C135.01 65.3 138.394 72.6563 138.394 86.5313C138.394 95.8563 134.95 104.634 129.144 111.531C135.747 110.291 140.306 109.175 140.306 109.175L161.75 104.988C161.75 104.984 158.635 117.8 146.663 130.144L146.691 130.147Z" fill="#DA4E31"/>
</g>
<defs>
<clipPath id="clip0_1067_217">
<rect width="200" height="200" fill="white"/>
</clipPath>
</defs>
</svg>
