<svg width="200" height="200" viewBox="0 0 200 200" fill="none" xmlns="http://www.w3.org/2000/svg">
<path d="M100.001 117.694C109.865 117.694 117.861 109.698 117.861 99.8346C117.861 89.971 109.865 81.9751 100.001 81.9751C90.1375 81.9751 82.1416 89.971 82.1416 99.8346C82.1416 109.698 90.1375 117.694 100.001 117.694Z" fill="#00D8FF"/>
<path fill-rule="evenodd" clipRule="evenodd" d="M100.001 63.5227C123.98 63.5227 146.256 66.9634 163.052 72.7456C183.288 79.7125 195.73 90.2725 195.73 99.8347C195.73 109.799 182.544 121.018 160.813 128.218C144.383 133.661 122.763 136.503 100.001 136.503C76.6643 136.503 54.5652 133.836 37.9507 128.158C16.9303 120.973 4.26953 109.609 4.26953 99.8347C4.26953 90.3502 16.1493 79.8716 36.1013 72.9154C52.9597 67.0378 75.7853 63.5227 99.9983 63.5227H100.001Z" stroke="#00D8FF" stroke-width="2.73408"/>
<path fill-rule="evenodd" clipRule="evenodd" d="M68.3908 81.7833C80.3702 61.0114 94.4784 43.4335 107.878 31.7724C124.023 17.7225 139.387 12.2202 147.67 16.9966C156.302 21.9746 159.433 39.0024 154.814 61.424C151.325 78.376 142.982 98.5235 131.611 118.242C119.952 138.458 106.602 156.27 93.3848 167.822C76.6599 182.443 60.4904 187.734 52.023 182.85C43.8065 178.115 40.6644 162.587 44.606 141.827C47.9364 124.287 56.2942 102.758 68.3868 81.7829L68.3908 81.7833Z" stroke="#00D8FF" stroke-width="2.73408"/>
<path fill-rule="evenodd" clipRule="evenodd" d="M68.4205 118.295C56.4072 97.5463 48.2281 76.5405 44.8141 59.1079C40.7044 38.1039 43.6101 22.0447 51.8857 17.2544C60.5094 12.2618 76.8253 18.0532 93.9435 33.253C106.886 44.7447 120.176 62.031 131.581 81.7306C143.273 101.928 152.037 122.389 155.446 139.61C159.759 161.402 156.268 178.052 147.808 182.949C139.6 187.701 124.579 182.67 108.563 168.887C95.0304 157.242 80.5522 139.249 68.4205 118.294V118.295Z" stroke="#00D8FF" stroke-width="2.73408"/>
</svg>
