<svg width="200" height="200" viewBox="0 0 200 200" fill="none" xmlns="http://www.w3.org/2000/svg">
<g clip-path="url(#clip0_1067_137)">
<path d="M192.161 146.468C181.488 152.035 126.204 174.765 114.433 180.899C102.663 187.034 96.1252 186.976 86.8254 182.532C77.5257 178.089 18.6942 154.326 8.09008 149.257C2.78804 146.722 0.00976562 144.591 0.00976562 142.576V122.36C0.00976562 122.36 76.6084 105.685 88.9781 101.247C101.348 96.809 105.626 96.6499 116.156 100.505C126.686 104.359 189.606 115.711 200.003 119.523V139.459C200.003 141.458 197.606 143.7 192.172 146.479L192.161 146.468Z" fill="#A41E11"/>
<path d="M192.161 126.246C181.488 131.813 126.204 154.543 114.433 160.677C102.663 166.812 96.1254 166.754 86.8256 162.31C77.5258 157.867 18.6943 134.104 8.09023 129.035C-2.51386 123.966 -2.72594 120.483 7.68197 116.405L88.9729 84.9324C101.337 80.4999 105.621 80.3356 116.151 84.1902C126.681 88.0447 181.631 109.916 192.023 113.786C202.415 117.657 202.824 120.732 192.151 126.299L192.161 126.246Z" fill="#D82C20"/>
<path d="M192.161 113.5C181.488 119.067 126.204 141.797 114.433 147.931C102.663 154.066 96.1252 154.007 86.8254 149.564C77.5257 145.121 18.6942 121.357 8.09008 116.289C2.78804 113.754 0.00976562 111.623 0.00976562 109.608V89.3913C0.00976562 89.3913 76.6084 72.7164 88.9781 68.2786C101.348 63.8407 105.626 63.6817 116.156 67.5363C126.686 71.3909 189.606 82.7425 200.003 86.5547V106.49C200.003 108.489 197.606 110.732 192.172 113.51L192.161 113.5Z" fill="#A41E11"/>
<path d="M192.161 93.2831C181.488 98.8502 126.204 121.58 114.433 127.715C102.663 133.849 96.1254 133.791 86.8256 129.348C77.5258 124.904 18.6943 101.141 8.09023 96.0719C-2.51386 91.0032 -2.72594 87.5198 7.68197 83.4425L88.9729 51.9748C101.337 47.537 105.621 47.378 116.151 51.2326C126.681 55.0871 181.631 76.9634 192.034 80.7649C202.437 84.5665 202.834 87.7106 192.161 93.2778V93.2831Z" fill="#D82C20"/>
<path d="M192.161 79.3121C181.488 84.8793 126.204 107.609 114.433 113.749C102.663 119.889 96.1252 119.825 86.8254 115.382C77.5257 110.939 18.6942 87.175 8.09008 82.1063C2.78804 79.5719 0.00976562 77.4405 0.00976562 75.4257V55.1984C0.00976562 55.1984 76.6084 38.5235 88.9781 34.0857C101.348 29.6479 105.626 29.4888 116.156 33.3434C126.686 37.198 189.606 48.5497 200.003 52.3618V72.2975C200.003 74.2964 197.606 76.5392 192.172 79.3174L192.161 79.3121Z" fill="#A41E11"/>
<path d="M192.161 59.0902C181.488 64.6573 126.204 87.3872 114.433 93.5217C102.663 99.6561 96.1254 99.5978 86.8256 95.1547C77.5258 90.7116 18.6943 66.9478 8.09023 61.8791C-2.51386 56.8103 -2.72594 53.3269 7.68197 49.2496L88.9729 17.782C101.337 13.3442 105.621 13.1851 116.151 17.0397C126.681 20.8943 181.631 42.7705 192.034 46.5721C202.437 50.3736 202.834 53.5177 192.161 59.0849V59.0902Z" fill="#D82C20"/>
<path d="M104.996 50.7555L98.7289 40.337L78.719 38.5343L93.6496 33.1474L89.1693 24.8762L103.146 30.3373L116.326 26.0215L112.763 34.5684L126.199 39.6053L108.872 41.408L104.996 50.7555ZM71.6143 71.4971L117.954 64.3817L103.957 84.9113L71.6143 71.4971Z" fill="white"/>
<path d="M59.1227 64.016C72.8034 64.016 83.8939 59.7171 83.8939 54.414C83.8939 49.111 72.8034 44.812 59.1227 44.812C45.442 44.812 34.3516 49.111 34.3516 54.414C34.3516 59.7171 45.442 64.016 59.1227 64.016Z" fill="white"/>
<path d="M174.113 53.0141L146.702 63.8408L146.681 42.1714L174.113 53.0141Z" fill="#7A0C00"/>
<path d="M146.707 63.8409L143.738 65.0074L116.348 54.1806L146.691 42.1768L146.707 63.8409Z" fill="#AD2115"/>
</g>
<defs>
<clipPath id="clip0_1067_137">
<rect width="200" height="200" fill="white"/>
</clipPath>
</defs>
</svg>
