<svg width="200" height="200" viewBox="0 0 200 200" fill="none" xmlns="http://www.w3.org/2000/svg">
<path fill-rule="evenodd" clipRule="evenodd" d="M50 80C56.6656 53.3344 73.3344 40 100 40C140 40 145 70 165 75C178.334 78.3344 190 73.3344 200 60C193.334 86.6656 176.666 100 150 100C110 100 105 70 85 65C71.6656 61.6656 60 66.6656 50 80ZM0 140C6.66562 113.334 23.3344 100 50 100C90 100 95 130 115 135C128.334 138.334 140 133.334 150 120C143.334 146.666 126.666 160 100 160C60 160 55 130 35 125C21.6656 121.666 10 126.666 0 140Z" fill="url(#paint0_linear_1067_219)"/>
<defs>
<linearGradient id="paint0_linear_1067_219" x1="4.96991e-06" y1="-66.6656" x2="200" y2="266.666" gradientUnits="userSpaceOnUse">
<stop stop-color="#2383AE"/>
<stop offset="1" stop-color="#6DD7B9"/>
</linearGradient>
</defs>
</svg>
