<svg width="200" height="200" viewBox="0 0 200 200" fill="none" xmlns="http://www.w3.org/2000/svg">
<g clip-path="url(#clip0_1067_241)">
<path d="M141.406 0H58.5938C26.2333 0 0 26.2333 0 58.5938V141.406C0 173.767 26.2333 200 58.5938 200H141.406C173.767 200 200 173.767 200 141.406V58.5938C200 26.2333 173.767 0 141.406 0Z" fill="#398CCB"/>
<path fill-rule="evenodd" clipRule="evenodd" d="M99.7841 29.2969L127.549 45.3156V54.1234L161.154 73.5305V106.728L170.169 111.932V143.988L142.422 160.006L130.104 152.882L100.154 170.174L70.3825 152.982L58.2368 160.006L30.4902 143.96V111.932L39.1532 106.931V73.5305L72.0376 54.5461L72.0559 54.5453V45.3156L99.7841 29.2969ZM127.549 62.4527V77.3527L99.802 93.3715L72.0559 77.3527V62.8656L72.0376 62.8664L46.3645 77.6953V102.767L58.2368 95.9133L85.9829 111.932V143.96L77.5888 148.814L100.154 161.845L122.898 148.716L114.676 143.96V111.932L142.422 95.9133L153.943 102.564V77.6953L127.549 62.4527ZM121.888 139.832V120.279L138.816 130.051V149.604L121.888 139.832ZM162.957 120.252L146.028 130.024V149.604L162.957 139.805V120.252ZM37.7018 139.805V120.252L54.6309 130.024V149.576L37.7018 139.805ZM78.7716 120.252L61.8423 130.024V149.576L78.7716 139.805V120.252ZM125.493 114.032L142.422 104.261L159.351 114.032L142.422 123.813L125.493 114.032ZM58.2368 104.234L41.3075 114.032L58.2368 123.786L75.1657 114.032L58.2368 104.234ZM79.2673 73.1883V53.6359L96.1782 63.4164V82.9598L79.2673 73.1883ZM120.319 53.6359L103.408 63.4164V82.9508L120.319 73.1883V53.6359ZM82.8731 47.3977L99.7841 37.6262L116.713 47.3977L99.7841 57.1695L82.8731 47.3977Z" fill="white"/>
</g>
<defs>
<clipPath id="clip0_1067_241">
<rect width="200" height="200" fill="white"/>
</clipPath>
</defs>
</svg>
