<svg width="200" height="200" viewBox="0 0 200 200" fill="none" xmlns="http://www.w3.org/2000/svg">
<g clip-path="url(#clip0_1067_210)">
<path d="M0 99.9999V200H200.006V-0.00634766H0V99.9999ZM161.178 92.0312C166.256 93.2999 170.131 95.5562 173.688 99.2374C175.531 101.206 178.259 104.794 178.481 105.65C178.544 105.9 169.847 111.744 164.575 115.016C164.388 115.141 163.622 114.319 162.762 113.047C160.191 109.297 157.494 107.681 153.366 107.397C147.303 106.984 143.366 110.159 143.428 115.459C143.428 117.016 143.647 117.934 144.284 119.209C145.619 121.972 148.097 123.622 155.872 126.991C170.191 133.147 176.316 137.209 180.122 142.991C184.372 149.434 185.328 159.722 182.441 167.372C179.266 175.691 171.394 181.341 160.316 183.216C156.887 183.819 148.759 183.725 145.078 183.059C137.047 181.631 129.428 177.662 124.728 172.456C122.884 170.425 119.3 165.122 119.522 164.737C119.616 164.612 120.444 164.103 121.366 163.562L128.794 159.281L134.544 155.947L135.75 157.728C137.431 160.3 141.116 163.822 143.338 164.997C149.719 168.362 158.481 167.884 162.797 164.012C164.641 162.331 165.4 160.584 165.4 158.012C165.4 155.694 165.119 154.678 163.909 152.934C162.353 150.716 159.178 148.841 150.159 144.934C139.841 140.491 135.397 137.728 131.334 133.347C128.984 130.806 126.763 126.744 125.841 123.347C125.078 120.522 124.888 113.441 125.491 110.584C127.616 100.584 135.141 93.6624 146 91.5999C149.525 90.9343 157.719 91.1874 161.175 92.0437L161.178 92.0312ZM114.225 100.375L114.287 108.562H88.2563V182.531H69.8438V108.562H43.8125V100.531L44.0313 92.2812C44.125 92.1562 59.9688 92.0937 79.175 92.1249L114.128 92.2187L114.225 100.375Z" fill="#007ACC"/>
</g>
<defs>
<clipPath id="clip0_1067_210">
<rect width="200" height="200" fill="white"/>
</clipPath>
</defs>
</svg>
