<svg width="81" height="81" viewBox="0 0 81 81" fill="none" xmlns="http://www.w3.org/2000/svg">
<path d="M12.2715 71.7538L5.98779 1.27197H75.0378L68.7478 71.7432L40.4709 79.5826L12.2715 71.7538V71.7538Z" fill="#1572B6"/>
<path d="M40.5132 73.5904L63.3626 67.2554L68.7382 7.03418H40.5132V73.5904Z" fill="#33A9DC"/>
<path d="M40.5132 32.57H51.9519L52.7419 23.7181H40.5132V15.0737H62.1894L61.9819 17.3931L59.8569 41.2144H40.5132V32.57V32.57Z" fill="white"/>
<path d="M40.5648 55.0196L40.5267 55.0309L30.8998 52.4315L30.2842 45.5371H21.6079L22.8185 59.1102L40.5254 64.0246L40.5648 64.0134V55.0196V55.0196Z" fill="#EBEBEB"/>
<path d="M51.2172 40.8486L50.1759 52.4249L40.5347 55.0274V64.0211L58.2559 59.1099L58.3859 57.6493L59.8897 40.8486H51.2172Z" fill="white"/>
<path d="M40.5429 15.0737V23.7181H19.6629L19.4898 21.7756L19.096 17.3931L18.8892 15.0737H40.5429V15.0737ZM40.5135 32.5712V41.2156H31.0079L30.8348 39.2731L30.4404 34.8906L30.2342 32.5712H40.5135V32.5712Z" fill="#EBEBEB"/>
</svg>
