<svg width="80" height="80" viewBox="0 0 80 80" fill="none" xmlns="http://www.w3.org/2000/svg">
<path fill-rule="evenodd" clip-rule="evenodd" d="M46.1248 30.5609H53.1873V37.6719H56.7498C58.3748 37.6719 60.0623 37.3627 61.6248 36.868C62.3748 36.6207 63.2498 36.2497 63.9998 35.8168C62.9998 34.5183 62.4998 32.9106 62.3748 31.3029C62.1873 29.1386 62.6248 26.2942 64.1248 24.6247L64.8748 23.759L65.7498 24.4392C67.9998 26.2324 69.8123 28.644 70.1873 31.4884C72.8748 30.6845 75.9998 30.87 78.3748 32.2304L79.3123 32.7869L78.8123 33.7763C76.8123 37.6101 72.6248 38.8468 68.5623 38.5994C62.4373 53.6253 49.1873 60.7364 33.0623 60.7364C24.7498 60.7364 17.1248 57.6446 12.7498 50.3481L12.6873 50.2244L12.0623 48.9259C10.5623 45.7105 10.1248 42.1859 10.4373 38.6613L10.5623 37.6101H16.5623V30.5609H23.6248V23.6353H37.6873V16.6479H46.1248V30.5609V30.5609Z" fill="#3A4D54"/>
<path d="M69.0002 33.2198C69.5002 29.5715 66.7502 26.7271 65.0002 25.3667C63.0627 27.5928 62.7502 33.5289 65.8127 36.0023C64.0627 37.4864 60.5002 38.9086 56.7502 38.9086H11.6252C11.2502 42.7424 11.9377 46.267 13.5002 49.2969L14.0002 50.2244C14.3127 50.7809 14.6877 51.2756 15.0627 51.8321C16.9377 51.9558 18.6252 52.0176 20.1877 51.9558C23.2502 51.894 25.7502 51.523 27.6877 50.9046C28.0002 50.7809 28.2502 50.9664 28.3752 51.2138C28.5002 51.523 28.3127 51.7703 28.0627 51.894C27.8127 51.9558 27.5627 52.0795 27.2502 52.1413C25.7502 52.5742 24.1252 52.8215 22.0627 52.9452H21.6877C20.8752 53.007 20.0002 53.007 19.0627 53.007C18.0627 53.007 17.1252 53.007 16.0002 52.9452C19.7502 57.15 25.6252 59.6234 33.0002 59.6234C48.6252 59.6234 61.8752 52.7597 67.6877 37.4245C71.8752 37.8574 75.8752 36.8062 77.6877 33.2816C74.8752 31.612 71.1252 32.1686 69.0002 33.2198V33.2198Z" fill="#00AADA"/>
<path d="M68.9999 33.2198C69.4999 29.5715 66.7499 26.7271 64.9999 25.3667C63.0624 27.5928 62.7499 33.5289 65.8124 36.0023C64.0624 37.4864 60.4999 38.9086 56.7499 38.9086H14.2499C14.0624 44.7829 16.2499 49.2351 20.1874 51.894C23.2499 51.8321 25.7499 51.4611 27.6874 50.8428C27.9999 50.7191 28.2499 50.9046 28.3749 51.1519C28.4999 51.4611 28.3124 51.7085 28.0624 51.8321C27.8124 51.894 27.5624 52.0176 27.2499 52.0795C25.7499 52.5123 23.9999 52.8215 21.9374 52.9452L21.8749 52.8833C27.1874 55.6041 34.8749 55.5422 43.7499 52.2031C53.6249 48.4312 62.8749 41.2583 69.3124 33.0961C69.1874 33.1579 69.0624 33.1579 68.9999 33.2198V33.2198Z" fill="#28B8EB"/>
<path d="M11.6875 43.5464C11.9375 45.5869 12.5625 47.5038 13.5 49.297L14 50.2246C14.3125 50.7811 14.6875 51.2758 15.0625 51.8323C16.9375 51.956 18.625 52.0178 20.1875 51.956C23.25 51.8941 25.75 51.5231 27.6875 50.9048C28 50.7811 28.25 50.9666 28.375 51.2139C28.5 51.5231 28.3125 51.7705 28.0625 51.8941C27.8125 51.956 27.5625 52.0796 27.25 52.1415C25.75 52.5743 24 52.8835 21.9375 53.0071H21.6875C20.875 53.069 20 53.069 19.125 53.069C18.125 53.069 17.125 53.069 16.0625 53.0071C19.8125 57.2119 25.75 59.6853 33.125 59.6853C46.5 59.6853 58.125 54.6767 64.875 43.6082H11.6875V43.5464V43.5464Z" fill="#028BB8"/>
<path d="M14.6875 43.5464C15.5 47.1328 17.375 49.9772 20.1875 51.8941C23.25 51.8323 25.75 51.4613 27.6875 50.8429C28 50.7193 28.25 50.9048 28.375 51.1521C28.5 51.4613 28.3125 51.7086 28.0625 51.8323C27.8125 51.8941 27.5625 52.0178 27.25 52.0796C25.75 52.5125 24 52.8216 21.875 52.9453C27.1875 55.6661 34.875 55.6042 43.6875 52.2651C49 50.2246 54.1875 47.1947 58.8125 43.5464H14.6875V43.5464Z" fill="#019BC6"/>
<path fill-rule="evenodd" clip-rule="evenodd" d="M17.75 31.7361H23.875V37.7959H17.75V31.7361V31.7361ZM18.25 32.2308H18.75V37.2394H18.25V32.2308ZM19.125 32.2308H19.625V37.2394H19.125V32.2308ZM20.0625 32.2308H20.5625V37.2394H20.0625V32.2308ZM21 32.2308H21.5V37.2394H21V32.2308ZM21.9375 32.2308H22.4375V37.2394H21.9375V32.2308ZM22.875 32.2308H23.375V37.2394H22.875V32.2308ZM24.75 24.8105H30.875V30.8704H24.75V24.8105V24.8105ZM25.3125 25.3052H25.8125V30.3139H25.3125V25.3052ZM26.1875 25.3052H26.6875V30.3139H26.1875V25.3052ZM27.125 25.3052H27.625V30.3139H27.125V25.3052ZM28.0625 25.3052H28.5625V30.3139H28.0625V25.3052ZM28.9375 25.3052H29.4375V30.3139H28.9375V25.3052ZM29.875 25.3052H30.375V30.3139H29.875V25.3052Z" fill="#00ACD3"/>
<path fill-rule="evenodd" clip-rule="evenodd" d="M24.75 31.7363H30.875V37.7962H24.75V31.7363V31.7363ZM25.3125 32.231H25.8125V37.2397H25.3125V32.231ZM26.1875 32.231H26.6875V37.2397H26.1875V32.231ZM27.125 32.231H27.625V37.2397H27.125V32.231ZM28.0625 32.231H28.5625V37.2397H28.0625V32.231ZM28.9375 32.231H29.4375V37.2397H28.9375V32.231ZM29.875 32.231H30.375V37.2397H29.875V32.231Z" fill="#23C2EE"/>
<path fill-rule="evenodd" clip-rule="evenodd" d="M31.8125 31.7363H37.9375V37.7962H31.8125V31.7363V31.7363ZM32.3125 32.231H32.8125V37.2397H32.3125V32.231ZM33.25 32.231H33.75V37.2397H33.25V32.231ZM34.1875 32.231H34.6875V37.2397H34.1875V32.231ZM35.0625 32.231H35.5625V37.2397H35.0625V32.231ZM36 32.231H36.5V37.2397H36V32.231ZM36.9375 32.231H37.4375V37.2397H36.9375V32.231Z" fill="#00ACD3"/>
<path fill-rule="evenodd" clip-rule="evenodd" d="M31.8125 24.8105H37.9375V30.8704H31.8125V24.8105V24.8105ZM32.3125 25.3052H32.8125V30.3139H32.3125V25.3052ZM33.25 25.3052H33.75V30.3139H33.25V25.3052ZM34.1875 25.3052H34.6875V30.3139H34.1875V25.3052ZM35.0625 25.3052H35.5625V30.3139H35.0625V25.3052ZM36 25.3052H36.5V30.3139H36V25.3052ZM36.9375 25.3052H37.4375V30.3139H36.9375V25.3052ZM38.875 31.7361H45V37.7959H38.875V31.7361ZM39.375 32.2308H39.875V37.2394H39.375V32.2308ZM40.3125 32.2308H40.8125V37.2394H40.3125V32.2308ZM41.1875 32.2308H41.6875V37.2394H41.1875V32.2308ZM42.125 32.2308H42.625V37.2394H42.125V32.2308ZM43.0625 32.2308H43.5625V37.2394H43.0625V32.2308ZM44 32.2308H44.5V37.2394H44V32.2308Z" fill="#23C2EE"/>
<path fill-rule="evenodd" clip-rule="evenodd" d="M38.875 24.8105H45V30.8704H38.875V24.8105ZM39.375 25.3052H39.875V30.3139H39.375V25.3052ZM40.3125 25.3052H40.8125V30.3139H40.3125V25.3052ZM41.1875 25.3052H41.6875V30.3139H41.1875V25.3052ZM42.125 25.3052H42.625V30.3139H42.125V25.3052ZM43.0625 25.3052H43.5625V30.3139H43.0625V25.3052ZM44 25.3052H44.5V30.3139H44V25.3052Z" fill="#00ACD3"/>
<path fill-rule="evenodd" clip-rule="evenodd" d="M38.875 17.8232H45V23.8831H38.875V17.8232ZM39.375 18.3179H39.875V23.3266H39.375V18.3179ZM40.3125 18.3179H40.8125V23.3266H40.3125V18.3179ZM41.1875 18.3179H41.6875V23.3266H41.1875V18.3179ZM42.125 18.3179H42.625V23.3266H42.125V18.3179ZM43.0625 18.3179H43.5625V23.3266H43.0625V18.3179ZM44 18.3179H44.5V23.3266H44V18.3179Z" fill="#23C2EE"/>
<path fill-rule="evenodd" clip-rule="evenodd" d="M45.9375 31.7363H52.0625V37.7962H45.9375V31.7363ZM46.4375 32.231H46.9375V37.2397H46.4375V32.231ZM47.3125 32.231H47.8125V37.2397H47.3125V32.231ZM48.25 32.231H48.75V37.2397H48.25V32.231ZM49.1875 32.231H49.6875V37.2397H49.1875V32.231ZM50.125 32.231H50.625V37.2397H50.125V32.231ZM51.0625 32.231H51.5625V37.2397H51.0625V32.231Z" fill="#00ACD3"/>
<path fill-rule="evenodd" clip-rule="evenodd" d="M30.5 47.5654C31.4375 47.5654 32.1875 48.3074 32.1875 49.235C32.1875 50.1625 31.4375 50.9045 30.5 50.9045C29.5625 50.9045 28.8125 50.1625 28.8125 49.235C28.8125 48.3074 29.5625 47.5654 30.5 47.5654Z" fill="#D4EEF1"/>
<path fill-rule="evenodd" clip-rule="evenodd" d="M30.5 48.0607C30.625 48.0607 30.8125 48.0607 30.9375 48.1226C30.8125 48.1844 30.6875 48.3699 30.6875 48.5554C30.6875 48.8028 30.9375 49.0501 31.1875 49.0501C31.375 49.0501 31.5625 48.9264 31.625 48.8028C31.6875 48.9264 31.6875 49.1119 31.6875 49.2356C31.6875 49.9158 31.125 50.4105 30.5 50.4105C29.8125 50.4105 29.3125 49.854 29.3125 49.2356C29.3125 48.6173 29.8125 48.0607 30.5 48.0607V48.0607ZM0.6875 44.1651H79.0625C77.375 43.7323 73.6875 43.1758 74.25 40.9497C71.125 44.4743 63.6875 43.4231 61.75 41.6917C59.625 44.7217 47.375 43.5468 46.5625 41.197C43.9375 44.2888 35.75 44.2888 33.125 41.197C32.25 43.5468 20 44.7217 17.9375 41.6917C16.0625 43.4231 8.5625 44.4743 5.4375 40.9497C6.125 43.1139 2.375 43.7323 0.6875 44.1651" fill="#3A4D54"/>
<path d="M35 59.624C30.8125 57.6452 28.5625 54.9863 27.25 52.0801C25.6875 52.5129 23.8125 52.8221 21.6875 52.9458C20.875 53.0076 20 53.0076 19.125 53.0076C18.0625 53.0076 17 53.0076 15.875 52.9458C19.625 56.6559 24.375 59.5621 33.0625 59.624H35V59.624Z" fill="#BFDBE0"/>
<path d="M28.8125 54.739C28.25 53.9351 27.6875 53.0076 27.25 52.0801C25.6875 52.5129 23.8125 52.8221 21.6875 52.9458C23.125 53.6878 25.25 54.4298 28.8125 54.739V54.739Z" fill="#D4EEF1"/>
</svg>
