<svg width="80" height="80" viewBox="0 0 80 80" fill="none" xmlns="http://www.w3.org/2000/svg">
<path d="M26.6663 76C34.0263 76 39.9997 70.624 39.9997 64V52H26.6663C19.3063 52 13.333 57.376 13.333 64C13.333 70.624 19.3063 76 26.6663 76Z" fill="#0ACF83"/>
<path d="M13.333 40C13.333 33.376 19.3063 28 26.6663 28H39.9997V52H26.6663C19.3063 52 13.333 46.624 13.333 40Z" fill="#A259FF"/>
<path d="M13.333 16C13.333 9.376 19.3063 4 26.6663 4H39.9997V28H26.6663C19.3063 28 13.333 22.624 13.333 16Z" fill="#F24E1E"/>
<path d="M28.063 52H26.6663C19.3063 52 13.333 57.376 13.333 64C13.333 70.624 19.3063 76 26.6663 76C27.1397 76 27.603 75.979 28.063 75.934V52Z" fill="#09B472"/>
<path d="M28.063 28H26.6663C19.3063 28 13.333 33.376 13.333 40C13.333 46.624 19.3063 52 26.6663 52H28.063V28Z" fill="#8D4DDE"/>
<path d="M28.063 4H26.6663C19.3063 4 13.333 9.376 13.333 16C13.333 22.624 19.3063 28 26.6663 28H28.063V4Z" fill="#D3441A"/>
<path d="M40 4H53.3333C60.6933 4 66.6667 9.376 66.6667 16C66.6667 22.624 60.6933 28 53.3333 28H40V4Z" fill="#FF7262"/>
<path d="M66.6667 40C66.6667 46.624 60.6933 52 53.3333 52C45.9733 52 40 46.624 40 40C40 33.376 45.9733 28 53.3333 28C60.6933 28 66.6667 33.376 66.6667 40Z" fill="#1ABCFE"/>
<path d="M53.3333 4H40V28H53.3333V4Z" fill="#DE6355"/>
<path d="M53.3333 28C45.9733 28 40 33.376 40 40C40 46.624 45.9733 52 53.3333 52V28Z" fill="#17A4DD"/>
</svg>
