<svg width="81" height="81" viewBox="0 0 81 81" fill="none" xmlns="http://www.w3.org/2000/svg">
<g clip-path="url(#clip0_712_318)">
<path d="M11.2979 72.3145L4.8916 0.439453H75.3604L68.9541 72.3145L40.0479 80.4395" fill="#E34F26"/>
<path d="M40.2041 74.1895L63.4854 67.7832L68.9541 6.2207H40.2041" fill="#EF652A"/>
<path d="M40.2041 32.9395H28.4854L27.7041 23.877H40.2041V15.127H18.0166L20.3604 41.8457H40.2041V32.9395ZM40.0479 55.9082L30.2041 53.252L29.5791 46.2207H20.8291L21.9229 60.127L40.0479 65.127V55.9082Z" fill="#EBEBEB"/>
<path d="M40.0479 32.9395V41.8457H50.9853L49.8916 53.252L40.0479 55.9082V65.127L58.1728 60.127L60.6728 32.9395H40.0479ZM40.0479 15.127V23.877H61.4541L62.2353 15.127H40.0479Z" fill="white"/>
</g>
<defs>
<clipPath id="clip0_712_318">
<rect width="80" height="80" fill="white" transform="translate(0.204102 0.439453)"/>
</clipPath>
</defs>
</svg>
