<svg width="80" height="80" viewBox="0 0 80 80" fill="none" xmlns="http://www.w3.org/2000/svg">
<path d="M23.0864 30.442H35.1644V31.4282H24.1938V38.85H34.5101V39.8362H24.1938V47.9847H35.2902V48.9709H23.0864V30.442V30.442ZM36.2463 30.442H37.5297L43.2165 38.5905L49.0289 30.442L56.9348 20.0918L43.9462 39.4469L50.6393 48.9709H49.3056L43.2165 40.3034L37.1022 48.9709H35.7936L42.537 39.4469L36.2467 30.442H36.2463ZM51.1176 31.4282V30.442H64.8811V31.4282H58.5405V48.9705H57.433V31.4282H51.118H51.1176ZM7.97656 30.442H9.36063L28.444 59.7767L20.5576 48.9709L9.13385 31.8434L9.08355 48.9709H7.97656V30.442V30.442ZM64.7701 47.6869C64.5433 47.6869 64.3737 47.5069 64.3737 47.2745C64.3737 47.0416 64.5433 46.8616 64.7696 46.8616C64.9986 46.8616 65.1655 47.0416 65.1655 47.2745C65.1655 47.5069 64.9986 47.6869 64.7696 47.6869H64.7701ZM65.8575 46.6011H66.4503C66.4585 46.9309 66.6931 47.1522 67.0374 47.1522C67.4224 47.1522 67.6405 46.9145 67.6405 46.4682V43.6434H68.2437V46.4709C68.2437 47.2745 67.7914 47.7371 67.0426 47.7371C66.3401 47.7371 65.858 47.2882 65.858 46.6011H65.8575ZM69.0324 46.5656H69.6303C69.6815 46.9447 70.0422 47.1856 70.5621 47.1856C71.0465 47.1856 71.402 46.9278 71.402 46.5736C71.402 46.2691 71.1761 46.086 70.6614 45.9616L70.1606 45.8371C69.4582 45.6682 69.1373 45.3189 69.1373 44.7318C69.1373 44.0198 69.7027 43.546 70.5509 43.546C71.34 43.546 71.9167 44.0198 71.9514 44.6927H71.3643C71.3079 44.3247 70.9957 44.0945 70.5431 44.0945C70.0661 44.0945 69.7487 44.33 69.7487 44.69C69.7487 44.9754 69.9534 45.1389 70.4598 45.2607L70.8878 45.3687C71.6847 45.5598 72.0134 45.8922 72.0134 46.4931C72.0134 47.2576 71.4367 47.7371 70.5162 47.7371C69.6546 47.7371 69.0753 47.2798 69.0324 46.5651V46.5656Z" fill="black"/>
</svg>
