<svg width="80" height="80" viewBox="0 0 80 80" fill="none" xmlns="http://www.w3.org/2000/svg">
<path d="M18.6154 9.26007C33.9865 9.26007 44.5421 1.29785 51.9488 1.29785C59.3554 1.29785 74.911 5.55563 74.911 39.629C74.911 73.7023 53.9843 78.7023 45.8377 78.7023C7.68878 78.7045 -8.60678 9.26007 18.6154 9.26007Z" fill="#EFEFEF"/>
<path d="M48.611 7.77783H44.1665V10.0001H48.611V7.77783Z" fill="#A4AFC1"/>
<path d="M35.8331 7.77783H31.3887V10.0001H35.8331V7.77783Z" fill="#A4AFC1"/>
<path d="M41.3887 0H39.1665V4.44444H41.3887V0Z" fill="#A4AFC1"/>
<path d="M57.8866 68.3332C56.0488 68.3332 54.5532 66.8376 54.5532 64.9998C54.5532 63.1621 56.0488 61.6665 57.8866 61.6665C59.7244 61.6665 61.2199 63.1621 61.2199 64.9998C61.2199 66.8376 59.7244 68.3332 57.8866 68.3332ZM57.8866 63.8887C57.2755 63.8887 56.7755 64.3887 56.7755 64.9998C56.7755 65.611 57.2755 66.111 57.8866 66.111C58.4977 66.111 58.9977 65.611 58.9977 64.9998C58.9977 64.3887 58.4977 63.8887 57.8866 63.8887Z" fill="#A4AFC1"/>
<path d="M60.4977 26.631L41.1711 15.3176C40.4488 14.8954 39.5577 14.8954 38.8377 15.3176L38.8333 15.3199L19.4933 26.6332C18.7711 27.0554 18.3288 27.8376 18.3311 28.6821V51.3154C18.3311 52.1576 18.7755 52.9399 19.4955 53.3621L25.4688 56.8599L33.4955 61.5599L38.8355 64.6865C39.5577 65.1088 40.4444 65.1088 41.1666 64.6865L60.4977 53.3665C61.22 52.9399 61.6622 52.1621 61.6644 51.3199V28.6799C61.6666 27.8376 61.22 27.0554 60.4977 26.631Z" fill="#2FDF84"/>
<path d="M38.4955 61.5554L30.4688 56.8554L24.4955 53.3576C23.7777 52.9376 23.3333 52.1554 23.3333 51.3132V28.6799C23.3311 27.8354 23.7733 27.0554 24.4955 26.631L42.5044 16.0976L41.1711 15.3176C40.4488 14.8954 39.5577 14.8954 38.8377 15.3176L38.8333 15.3199L19.4933 26.6332C18.7711 27.0554 18.3288 27.8376 18.3311 28.6821V51.3154C18.3311 52.1576 18.7755 52.9399 19.4955 53.3621L25.4688 56.8599L33.4955 61.5599L38.8355 64.6865C39.5577 65.1088 40.4444 65.1088 41.1666 64.6865L42.5 63.9065L38.4955 61.5554Z" fill="#00B871"/>
<path d="M28.5244 59.6733C27.5955 59.6733 26.6667 59.4378 25.8155 58.9622L24.6533 58.3111L26.28 55.4022L27.44 56.0511C28.1422 56.44 28.9467 56.4355 29.6444 56.0267C30.3444 55.6133 30.7489 54.9089 30.7489 54.0911V30.2178H34.0822V54.0911C34.0822 56.0911 33.0533 57.8889 31.3311 58.9C30.4578 59.4133 29.4911 59.6733 28.5244 59.6733Z" fill="black"/>
<path d="M40.0043 66.6645C39.3088 66.6645 38.6132 66.4845 37.9954 66.1223L32.6554 62.9957L34.3399 60.1179L39.6799 63.2445C39.8799 63.3645 40.1199 63.3668 40.3288 63.2445L59.6599 51.9245C59.8688 51.8023 59.9999 51.5712 59.9999 51.3134V28.6801C59.9999 28.4268 59.8665 28.1912 59.6532 28.0668L40.331 16.7557C40.1265 16.6379 39.8821 16.6357 39.6865 16.7534L20.3376 28.0712C20.1287 28.1934 19.9999 28.4245 19.9999 28.6757V51.3134C19.9999 51.5623 20.1332 51.8023 20.3376 51.9201L26.311 55.4179L24.6265 58.2957L18.6532 54.7979C17.4287 54.0801 16.6665 52.7423 16.6665 51.3134V28.6801C16.6621 27.2512 17.4243 25.9157 18.651 25.1957L37.9932 13.8801C39.2332 13.1512 40.771 13.1534 42.0154 13.8779L61.3421 25.1912C62.5732 25.9157 63.3332 27.2534 63.3332 28.6801V51.3179C63.3288 52.7468 62.5688 54.0757 61.3488 54.7979L42.011 66.1223C41.3932 66.4845 40.6976 66.6645 40.0043 66.6645Z" fill="black"/>
<path d="M45.4176 51.4488C40.422 51.4488 35.0843 49.7266 35.0843 44.891H38.4176C38.4176 47.4377 42.8176 48.1155 45.4176 48.1155C50.062 48.1155 52.4176 47.6155 52.4176 44.891C52.4176 43.5222 50.7465 42.9866 46.642 42.0088L45.0154 41.6155C44.5176 41.4933 43.9909 41.3777 43.4509 41.2577C39.9198 40.4777 35.082 39.4133 35.082 35.1066C35.082 30.2711 40.4198 28.5488 45.4154 28.5488C50.4109 28.5488 55.7487 30.2711 55.7487 35.1066H52.4154C52.4154 32.5599 48.0154 31.8822 45.4154 31.8822C42.8154 31.8822 38.4154 32.5622 38.4154 35.1066C38.4154 36.6133 40.9087 37.2822 44.1687 38.0022C44.7398 38.1288 45.2954 38.251 45.8176 38.3822L47.4131 38.7666C51.702 39.7866 55.7509 40.751 55.7509 44.891C55.7509 51.4488 48.7709 51.4488 45.4176 51.4488Z" fill="black"/>
</svg>
