<svg width="80" height="80" viewBox="0 0 80 80" fill="none" xmlns="http://www.w3.org/2000/svg">
<path d="M73.1762 49.7293C73.1796 49.7293 73.1824 49.7265 73.1824 49.723C73.1824 49.7196 73.1796 49.7168 73.1762 49.7168C73.1727 49.7168 73.1699 49.7196 73.1699 49.723C73.1699 49.7265 73.1727 49.7293 73.1762 49.7293Z" fill="black"/>
<path d="M63.303 49.0898L63.3097 49.0965V49.0998L63.2997 49.1032C62.8163 49.2798 62.4163 49.3532 62.0797 49.5032C61.7363 49.6398 61.4597 49.8898 61.2963 50.2098L61.293 50.2165C61.0863 50.5998 60.9063 51.2798 60.9597 52.4365C61.0963 52.5365 61.263 52.6132 61.433 52.6665L61.4463 52.6698C62.0097 52.8432 62.953 52.9565 64.0063 52.9398C66.1063 52.9165 68.693 52.4198 70.0663 51.7732C71.2497 51.2098 72.263 50.5298 73.1663 49.7232C68.5797 50.6832 65.9897 50.4265 64.3997 49.7632C63.9863 49.5832 63.623 49.3598 63.303 49.0898Z" fill="#77C2FF"/>
<path d="M58.5996 13.8364L58.6195 13.8662L58.6427 13.8927L58.5996 13.8364Z" fill="#32648D"/>
<path d="M41.0566 64.3302C41.0533 64.2468 41.0566 64.1602 41.0533 64.0768C41.0533 64.0435 41.05 64.0202 41.05 63.9868L41.0566 64.3302ZM37.54 49.6202C37.3466 49.5235 37.12 49.4535 36.8766 49.4202H36.8666V49.4135H36.7966C36.6233 49.4302 36.37 49.4902 35.8766 50.0402C34.73 51.3402 34.33 52.1568 33.3833 52.9202C32.4366 53.6802 31.21 54.0868 28.7566 54.5968C27.98 54.7568 27.5333 54.9335 27.24 55.0768C27.3366 55.1568 27.3266 55.1768 27.47 55.2535C27.83 55.4535 28.29 55.6302 28.6633 55.7268C29.7166 55.9935 31.45 56.3035 33.2566 55.9935C35.0633 55.6802 36.9433 54.8035 38.5466 52.5268C38.8233 52.1335 38.8533 51.5535 38.6266 50.9302C38.4 50.3068 37.8933 49.7702 37.54 49.6202ZM51 5.00684L50.81 5.0435C50.8733 5.03017 50.9433 5.0235 51.0066 5.01017C51.0033 5.01017 51.0033 5.00684 51 5.00684ZM60.2733 23.0002C58.0366 23.0302 56.7833 23.6135 56.1233 24.3768C55.19 25.4602 55.1033 27.3602 55.6833 29.7002C56.26 32.0435 57.45 34.6635 58.57 36.8402C59.13 37.9302 59.6733 38.9102 60.11 39.7068C60.55 40.5068 60.8733 41.0735 61.07 41.5568C61.25 42.0035 61.4533 42.3968 61.6566 42.7635C62.5233 40.9135 62.6766 39.0968 62.59 37.2035C62.4766 34.8602 61.9366 32.4635 62.0166 30.0368C62.1066 27.2002 62.66 25.3535 62.7066 23.1602C61.9766 23.0602 61.13 23.0002 60.2733 23.0002ZM60.6866 24.6868L60.6833 24.7135C60.6833 24.7235 60.6833 24.7335 60.6833 24.7468C60.6833 24.9002 60.64 25.0468 60.5633 25.1668L60.5666 25.1635C60.4633 25.3535 60.3433 25.5202 60.2033 25.6635C59.8766 26.0268 59.44 26.2802 58.9466 26.3668L58.9333 26.3702C58.8633 26.3802 58.7833 26.3835 58.7 26.3835C58.28 26.3835 57.8933 26.2502 57.5766 26.0235L57.5833 26.0268C57.42 25.9135 57.2766 25.7835 57.16 25.6368L57.1566 25.6335C57.0533 25.5202 56.98 25.3735 56.95 25.2168V25.2102C56.95 25.1935 56.9466 25.1768 56.9466 25.1602C56.9466 25.0168 57 24.8835 57.09 24.7835C57.1966 24.6602 57.3233 24.5602 57.47 24.4868L57.4766 24.4835C57.7933 24.3035 58.22 24.1702 58.7033 24.0968C58.8833 24.0702 59.0633 24.0568 59.23 24.0535V24.0635H59.3933C59.61 24.0702 59.81 24.0935 59.9866 24.1368C60.1633 24.1768 60.3166 24.2368 60.44 24.3202C60.5633 24.4035 60.6566 24.5302 60.6866 24.6868ZM23.59 37.6902C23.59 37.0902 23.6366 36.5035 23.7233 35.9268L23.7166 35.9902C24.0566 33.5268 24.1033 31.2235 24.0633 29.4035C24.0233 27.6302 23.8966 26.4502 23.8966 25.7135C23.8966 25.7035 23.8966 25.6935 23.8966 25.6835C23.8966 25.6735 23.8966 25.6602 23.8966 25.6502V25.6335L23.8933 25.6135V25.6102C23.8933 25.6035 23.8933 25.6002 23.8933 25.5935C23.8933 21.6468 24.5866 17.8635 25.8433 14.3535C26.7666 11.8735 28.14 9.35684 30.1966 7.31684C28.1733 6.6435 24.5866 5.61684 20.7 5.4235C20.3266 5.4035 19.89 5.39017 19.4533 5.39017H19.45V5.3935C19.0333 5.3935 18.6133 5.40684 18.2 5.43017C14.8733 5.6235 11.7266 6.60017 9.47997 9.0135C7.22663 11.4268 5.7433 15.3835 6.06663 21.9335C6.12997 23.1735 6.6633 26.6468 7.57663 30.7735C8.4933 34.9002 9.7833 39.7568 11.3366 44.0468C12.8933 48.3368 14.78 52.0702 16.5733 53.8368C17.4766 54.7202 18.26 55.0768 18.97 55.0468C19.6833 55.0135 20.5433 54.5968 21.5933 53.3202C23.6566 50.8068 25.6066 48.5835 27.62 46.4235L27.5533 46.4935C25.12 44.3435 23.59 41.2002 23.59 37.6902Z" fill="#77C2FF"/>
<path d="M41.3201 5.22688V5.22021C37.4268 5.23021 34.6368 6.42021 32.5168 8.20355C30.3335 10.0469 28.8701 12.5702 27.9068 15.1535C26.7635 18.2202 26.3735 21.1869 26.2168 23.2002L26.2601 23.1735C27.4368 22.5069 28.9801 21.8402 30.6335 21.4535C32.2868 21.0669 34.0668 20.9502 35.6801 21.5835C37.2935 22.2169 38.6268 23.7069 39.1101 25.9669C41.4268 36.8235 38.3901 40.8602 37.2701 43.9069C36.9135 44.7835 36.5435 45.9102 36.2335 47.0602L36.1801 47.2836C36.3201 47.2502 36.4635 47.2102 36.6035 47.1969C37.3935 47.1302 38.0135 47.3969 38.3801 47.5569C39.5068 48.0302 40.2801 49.0236 40.6968 50.1569C40.8068 50.4536 40.8835 50.7736 40.9301 51.1036C40.9735 51.2169 40.9968 51.3502 40.9968 51.4869C40.9968 51.5002 40.9968 51.5136 40.9968 51.5269C40.9435 53.1936 40.9101 55.1502 40.9101 57.1169C40.9101 59.4469 40.9568 61.7669 41.0435 64.0769C41.1201 65.8302 41.2301 67.3836 41.3668 68.6069C41.5101 69.8536 41.7101 70.7969 41.8368 71.1169C42.2568 72.1835 42.8735 73.5802 43.9868 74.5302C45.1001 75.4769 46.6968 76.1102 49.6135 75.4769C52.1435 74.9269 53.7035 74.1636 54.7468 73.0669C55.7901 71.9702 56.4101 70.4435 56.8068 68.1069C57.4035 64.6069 58.6001 54.4569 58.7468 52.5469C58.6801 51.1069 58.8901 50.0002 59.3468 49.1569C59.8135 48.2902 60.5401 47.7602 61.1635 47.4735C61.4768 47.3302 61.7701 47.2336 62.0101 47.1636C61.7168 46.7402 61.4535 46.3869 61.1801 46.0435L61.2101 46.0802C60.3468 45.0269 59.6101 43.8169 59.0535 42.5135L59.0168 42.4169C58.6801 41.7202 58.3968 41.1936 58.1001 40.6769L58.1701 40.8069C57.7335 40.0069 57.1801 39.0069 56.6001 37.8835C55.4401 35.6335 54.1801 32.9069 53.5235 30.2502C52.8701 27.5969 52.7768 24.8502 54.4501 22.9135C55.9301 21.1935 58.5335 20.4802 62.4368 20.8802C62.3235 20.5302 62.2535 20.2402 62.0568 19.7735C61.1068 17.5402 59.9635 15.6135 58.6068 13.8669C55.2968 9.59355 49.9468 5.36355 41.6868 5.22688H41.3201V5.22688ZM38.7401 55.5536C38.7401 55.5936 38.7401 55.6302 38.7401 55.6702V55.5536Z" fill="#77C2FF"/>
<path d="M26.1699 25.9L26.1766 25.8967L26.1866 25.8867L26.1699 25.9Z" fill="#32648D"/>
<path d="M31.0703 23.6431L31.1034 23.6398L31.1299 23.6299L31.0703 23.6431Z" fill="#32648D"/>
<path d="M35.1997 43.1233C36.5364 39.4766 39.1664 36.8166 36.953 26.4366C36.5897 24.7366 35.873 24.05 34.8864 23.6633C34.4064 23.4866 33.8497 23.3833 33.2664 23.3833C33.2297 23.3833 33.1897 23.3833 33.153 23.3833H33.1597C32.4497 23.39 31.763 23.48 31.103 23.64C29.703 23.9933 28.4697 24.4933 27.323 25.1333C26.893 25.37 26.523 25.6166 26.1764 25.8933L26.113 25.9533C26.133 26.44 26.2264 27.62 26.2664 29.3566C26.3064 31.2566 26.2597 33.68 25.8964 36.3033C25.1097 42.0033 29.1964 46.7233 33.9964 46.73C34.2797 45.56 34.7397 44.3733 35.1997 43.1233ZM32.363 26.56C32.2064 26.4 32.0797 26.22 31.9764 26.0233L31.9697 26.01C31.883 25.87 31.833 25.7 31.833 25.5166C31.833 25.4833 31.8364 25.45 31.8397 25.4166V25.42C31.8897 25.06 32.183 24.8733 32.4664 24.77C32.7297 24.6833 33.023 24.6333 33.3364 24.6333C33.383 24.6333 33.4297 24.6333 33.483 24.6366L33.4797 24.6233C33.653 24.6233 33.8397 24.64 34.0264 24.6666C34.5297 24.7366 34.9797 24.8733 35.3197 25.0733C35.4897 25.1666 35.6364 25.2833 35.753 25.4233L35.7564 25.4266C35.8697 25.5566 35.9364 25.7266 35.9364 25.9166C35.9364 25.9433 35.9364 25.97 35.933 25.9966V25.9933C35.8997 26.1933 35.8097 26.3666 35.6864 26.5066C35.5497 26.6733 35.3964 26.8166 35.223 26.9366L35.2164 26.94C34.8797 27.1866 34.4564 27.3333 33.9997 27.3333C33.9097 27.3333 33.8197 27.3266 33.733 27.3166H33.743C33.1897 27.2233 32.7164 26.95 32.363 26.56Z" fill="#77C2FF"/>
<path d="M27.2568 25.1666C27.2802 25.1533 27.3035 25.1466 27.3235 25.1333C27.3268 25.1333 27.3302 25.1299 27.3335 25.1266L27.2568 25.1666ZM60.3835 12.5066C61.8268 14.3566 63.0768 16.4633 64.0402 18.7233L64.1102 18.9066C64.4735 19.7866 64.7168 20.5299 64.8535 21.1066C64.9235 21.3966 64.9702 21.6399 64.9868 21.8933C64.9935 22.0199 65.0002 22.1499 64.9468 22.3733C64.9468 22.3833 64.9302 22.4066 64.9268 22.4166C65.0268 25.3366 64.3102 27.3166 64.2268 30.1033C64.1602 32.1233 64.6702 34.4966 64.7968 37.0866C64.9168 39.52 64.6268 42.1933 63.0635 44.8166C63.1968 44.9766 63.3135 45.1366 63.4402 45.2966C67.5702 38.7133 70.5468 31.4299 72.1335 25.2199C72.9835 21.8766 73.4335 18.8466 73.4735 16.4466C73.5068 14.0466 73.0635 12.3066 72.5035 11.5799C68.0835 5.85995 62.1068 4.40328 57.0935 4.36328V4.36661H56.6135C54.6802 4.39661 52.8135 4.61995 51.0102 5.00995C55.1035 6.84995 58.2035 9.68328 60.3835 12.5066Z" fill="#77C2FF"/>
<path d="M41.8699 0.86H41.8365C37.9565 0.793333 34.6265 1.74667 31.9365 3.33333C29.2899 2.40333 23.7999 0.8 18.0098 1.12C13.9798 1.34333 9.57985 2.58333 6.31985 6.06667C3.06985 9.55 1.35318 14.94 1.71318 22.2733C1.81318 24.2967 2.38318 27.5967 3.32651 31.87C4.27318 36.1433 5.59985 41.1467 7.25652 45.71C8.91318 50.2767 10.7265 54.3767 13.5632 57.1633C14.9798 58.56 16.9299 59.7333 19.2265 59.6367C20.8399 59.57 22.2965 58.8533 23.5565 57.7967C24.1699 58.6133 24.8232 58.97 25.4199 59.3C26.1699 59.7167 26.8999 60 27.6565 60.1867C29.0165 60.53 31.3432 60.99 34.0699 60.52C34.9999 60.3633 35.9765 60.0567 36.9499 59.62C36.9865 60.72 37.0299 61.7967 37.0699 62.8867C37.2065 66.34 37.2899 69.53 38.3132 72.3267C38.4765 72.7833 38.9299 75.1367 40.7065 77.2133C42.4832 79.2933 45.9699 80.59 49.9365 79.73C52.7365 79.1233 56.2932 78.03 58.6599 74.6233C60.9965 71.2567 62.0499 66.4267 62.2599 58.5933C62.3132 58.17 62.3765 57.81 62.4399 57.4733L62.9965 57.5233H63.0632C66.0499 57.66 69.2899 57.23 71.9965 55.9567C74.3932 54.8333 76.2065 53.6967 77.5299 51.68C77.8599 51.18 78.2199 50.5767 78.3199 49.5367C78.4199 48.4967 77.8299 46.87 76.8499 46.12C74.8899 44.6133 73.6599 45.1867 72.3399 45.4633C71.1632 45.74 69.8032 45.9133 68.4099 45.95H68.3832C72.1899 39.46 74.9199 32.5667 76.4765 26.4667C77.3999 22.8667 77.9165 19.5467 77.9565 16.6433C77.9999 13.74 77.7665 11.17 76.0465 8.94667C70.6765 2 63.1265 0.08 57.2832 0.0133333C57.1032 0.01 56.9199 0.00666667 56.7399 0.01V0C53.5599 0.0266667 50.4999 0.506667 47.6032 1.36333L47.4665 1.41C45.7932 1.09667 43.8499 0.896667 41.8699 0.86ZM49.7665 2.98333C51.8065 2.48 54.1532 2.17667 56.5665 2.14667H56.5865L56.5899 2.13333C62.1165 2.08 69.1732 3.65 74.2432 10.2067C75.3832 11.68 75.7232 13.8333 75.6832 16.4867C75.6399 19.1367 75.1565 22.31 74.2699 25.7867C72.5499 32.52 69.3032 40.37 64.7299 47.4133C64.8799 47.5233 65.0532 47.62 65.2332 47.6933L65.2499 47.7C66.2032 48.1 68.3799 48.4433 72.7232 47.54C73.8165 47.3067 74.6165 47.15 75.4465 47.79C75.8199 48.11 76.0532 48.5833 76.0532 49.1133C76.0532 49.1467 76.0532 49.18 76.0499 49.2133V49.21C75.9999 49.6333 75.8499 50.0133 75.6199 50.33C74.7799 51.6067 73.1232 52.8167 71.0032 53.8133C69.1232 54.7 66.4265 55.1633 64.0365 55.19C62.8365 55.2033 61.7332 55.11 60.7932 54.8133L60.7332 54.79C60.3699 58.3233 59.5365 65.3 58.9932 68.4833C58.5599 71.05 57.7999 73.09 56.3465 74.6167C54.8965 76.1433 52.8465 77.0633 50.0865 77.6633C46.6699 78.4067 44.1765 77.6067 42.5699 76.2367C40.9665 74.87 40.2332 73.0567 39.7899 71.9467C39.4865 71.18 39.3299 70.1867 39.1765 68.86C39.0232 67.5333 38.9132 65.91 38.8365 64.08C38.7632 62.22 38.7232 60.0333 38.7232 57.8367C38.7232 57.1133 38.7299 56.3933 38.7365 55.67C37.3599 56.95 35.6199 57.85 33.6865 58.1933L33.6265 58.2033C31.3565 58.5933 29.3332 58.21 28.1232 57.9033C27.4799 57.74 26.9199 57.51 26.3932 57.2233C25.8399 56.9233 25.3132 56.58 24.9599 55.91C24.8199 55.6533 24.7365 55.3433 24.7365 55.0167C24.7365 54.8867 24.7499 54.7567 24.7765 54.6367C24.8965 54.19 25.1465 53.81 25.4899 53.5433L25.4932 53.54C26.1465 53.0033 27.0065 52.7033 28.3099 52.43C30.6765 51.9367 31.5032 51.6 32.0065 51.1967C32.4332 50.85 32.9199 50.15 33.7732 49.1233C33.7699 49.0933 33.7665 49.0433 33.7632 48.9967V48.9867C32.1499 48.94 30.6465 48.5033 29.3332 47.7667L29.3832 47.7933C28.8898 48.32 26.3665 51.02 23.2932 54.7667C21.9999 56.3333 20.5698 57.2333 19.0632 57.2967C17.5565 57.36 16.1932 56.5933 15.0332 55.4567C12.7165 53.18 10.8698 49.2633 9.25985 44.8367C7.65318 40.41 6.34652 35.48 5.41652 31.28C4.48318 27.08 3.93651 23.6933 3.85651 22.06C3.50985 15.12 5.11318 10.4433 7.86318 7.49333C10.6165 4.54333 14.3898 3.42667 18.0665 3.21333C24.6699 2.83 30.9365 5.16 32.2065 5.66C34.6532 3.98 37.8032 2.93333 41.7332 3C43.7132 3.03 45.6165 3.29333 47.4365 3.76333L47.2699 3.72667L47.3365 3.69667C47.9732 3.45667 48.7865 3.21333 49.6199 3.01333L49.7665 2.98333Z" fill="#77C2FF"/>
</svg>
