<svg width="80" height="80" viewBox="0 0 80 80" fill="none" xmlns="http://www.w3.org/2000/svg">
<path d="M40.0002 43.9237C43.7557 43.9237 46.8002 40.8793 46.8002 37.1237C46.8002 33.3682 43.7557 30.3237 40.0002 30.3237C36.2447 30.3237 33.2002 33.3682 33.2002 37.1237C33.2002 40.8793 36.2447 43.9237 40.0002 43.9237Z" fill="#61DBFB"/>
<path d="M20.9595 50.6437L19.4548 50.259C8.27764 47.4361 1.86621 42.6361 1.86621 37.1085C1.86621 31.5771 8.28145 26.7809 19.4548 23.958L20.9595 23.5771L21.3824 25.0666C22.5121 28.9664 23.9595 32.767 25.71 36.4304L26.0338 37.1085L25.71 37.7866C23.9576 41.4552 22.5062 45.2571 21.3824 49.158L20.9595 50.6437V50.6437ZM18.7615 27.4247C10.27 29.8171 5.05478 33.4666 5.05478 37.1085C5.05478 40.7428 10.2662 44.3961 18.7615 46.7847C19.8015 43.478 21.0586 40.2437 22.5138 37.1085C21.0481 33.968 19.7945 30.7328 18.7615 27.4247V27.4247ZM59.0357 50.6437L58.6167 49.1504C57.484 45.2498 56.0354 41.448 54.2853 37.7828L53.9615 37.1085L54.2853 36.4266C56.0377 32.7656 57.4815 28.9599 58.6167 25.059L59.0357 23.5732L60.5405 23.9542C71.7215 26.7771 78.1291 31.5732 78.1291 37.1085C78.1291 42.6399 71.7177 47.4361 60.5405 50.259L59.0357 50.6437V50.6437ZM57.4738 37.1085C58.9977 40.4075 60.2662 43.6533 61.2338 46.7847C69.7291 44.3961 74.9443 40.7428 74.9443 37.1085C74.9443 33.4666 69.7329 29.8209 61.2338 27.4247C60.1949 30.7318 58.9388 33.9668 57.4738 37.1085V37.1085Z" fill="#61DBFB"/>
<path d="M18.7387 27.4096L18.3196 25.9239C15.173 14.8458 16.1253 6.91059 20.9368 4.14487C25.6415 1.42106 33.211 4.64011 41.1387 12.7734L42.2206 13.8858L41.1387 14.9944C38.323 17.9227 35.7494 21.0746 33.4434 24.4191L33.013 25.0363L32.2663 25.0972C28.2114 25.4157 24.1892 26.0642 20.2396 27.0363L18.7387 27.4096V27.4096ZM24.7653 6.34678C23.912 6.34678 23.1577 6.53344 22.5215 6.89916C19.3672 8.7163 18.811 15.0439 20.9825 23.5849C24.3768 22.8344 27.8015 22.2972 31.253 21.9963C33.2511 19.1622 35.4309 16.4607 37.7787 13.9087C32.8149 9.08201 28.1291 6.34678 24.7653 6.34678V6.34678ZM55.2301 71.0477C50.7044 71.0477 44.8911 67.6344 38.8568 61.4401L37.7787 60.3315L38.8568 59.2267C41.6729 56.2937 44.2476 53.1381 46.5558 49.7906L46.9825 49.181L47.7215 49.1087C51.7779 48.7958 55.8016 48.1498 59.752 47.1772L61.2568 46.7963L61.6796 48.2858C64.8111 59.3563 63.8625 67.3029 59.0587 70.0686C57.8923 70.7298 56.5707 71.0678 55.2301 71.0477V71.0477ZM42.2206 60.3048C47.1806 65.1315 51.8701 67.8705 55.2301 67.8705C56.0872 67.8705 56.8415 67.6801 57.4739 67.3182C60.632 65.4972 61.192 59.1582 59.013 50.6172C55.6225 51.3715 52.1939 51.9125 48.7349 52.2134C46.7452 55.052 44.569 57.7551 42.2206 60.3048V60.3048Z" fill="#61DBFB"/>
<path d="M61.2567 27.4095L59.7519 27.0324C55.8017 26.0573 51.778 25.4087 47.7214 25.0933L46.9824 25.0286L46.5557 24.4114C44.2507 21.0651 41.6758 17.913 38.8567 14.9867L37.7786 13.8781L38.8567 12.7733C46.7805 4.64383 54.3462 1.42478 59.0586 4.14478C63.8662 6.9143 64.8224 14.8495 61.6795 25.9238L61.2567 27.4095ZM48.7348 21.9962C52.369 22.32 55.8128 22.8648 59.0128 23.5848C61.1881 15.0438 60.6319 8.71621 57.4738 6.89525C54.3348 5.07811 48.4262 7.85906 42.2205 13.9086C44.5671 16.461 46.7462 19.1581 48.7348 21.9962ZM24.7652 71.0476C23.4248 71.0668 22.1034 70.7288 20.9367 70.0686C16.1252 67.3029 15.1728 59.36 18.3157 48.2857L18.7271 46.7962L20.2319 47.1771C23.9043 48.1029 27.95 48.7543 32.2624 49.1086L33.0014 49.181L33.4319 49.7905C35.7328 53.1352 38.3081 56.2933 41.1271 59.2267L42.209 60.3314L41.1271 61.44C35.0967 67.6381 29.2833 71.0476 24.7652 71.0476V71.0476ZM20.9824 50.621C18.8109 59.1619 19.3671 65.501 22.5214 67.3219C25.6643 69.1124 31.5538 66.3505 37.7786 60.3048C35.4317 57.752 33.252 55.0505 31.2528 52.2171C27.798 51.9116 24.367 51.3784 20.9824 50.621V50.621Z" fill="#61DBFB"/>
<path d="M40.0004 52.6209C37.3832 52.6209 34.6975 52.5104 32.0004 52.2857L31.2537 52.2209L30.8232 51.6037C29.3023 49.4167 27.8713 47.1685 26.5337 44.8647C25.206 42.5547 23.972 40.1922 22.8346 37.7828L22.5146 37.1085L22.8346 36.4266C23.9737 34.019 25.2042 31.6571 26.5337 29.3485C27.8556 27.078 29.2994 24.8076 30.8232 22.6056L31.2537 21.9961L32.0004 21.9275C37.3218 21.4818 42.6713 21.4818 47.9928 21.9275L48.7318 21.9999L49.1623 22.6095C52.2091 26.9857 54.8851 31.6087 57.1623 36.4304L57.4785 37.1123L57.1623 37.7866C54.8914 42.6116 52.2151 47.2352 49.1623 51.6076L48.7318 52.2247L47.9928 52.2895C45.3032 52.5066 42.6137 52.6209 40.0004 52.6209V52.6209ZM33.0137 49.1771C37.7185 49.5314 42.2823 49.5314 46.9832 49.1771C49.6076 45.3341 51.9404 41.2999 53.9623 37.1085C51.9476 32.9133 49.6144 28.8786 46.9832 25.0399C42.3336 24.6818 37.6633 24.6818 33.0137 25.0399C30.3803 28.8772 28.047 32.9121 26.0346 37.1085C28.0609 41.2976 30.3935 45.3314 33.0137 49.1771V49.1771Z" fill="#61DBFB"/>
</svg>
