<svg width="80" height="80" viewBox="0 0 80 80" fill="none" xmlns="http://www.w3.org/2000/svg">
<path d="M65.8512 29.5183C62.8691 28.481 60.237 26.6158 58.2564 24.1368C56.0736 21.3746 53.2942 19.1534 50.1309 17.6429C46.9675 16.1324 43.5039 15.3727 40.0052 15.4219C35.2987 15.0853 30.6394 16.5514 26.955 19.5284C23.2707 22.5053 20.8316 26.7747 20.1237 31.4862C21.5181 29.1297 23.6167 27.2808 26.1175 26.2055C28.6184 25.1302 31.3925 24.884 34.0407 25.5022C37.0178 26.5697 39.6457 28.4457 41.6355 30.9239C43.8302 33.664 46.6149 35.8623 49.7776 37.3516C52.9403 38.8409 56.3977 39.5819 59.8867 39.5183C64.5932 39.8549 69.2525 38.3888 72.9369 35.4118C76.6213 32.4349 79.0603 28.1655 79.7682 23.454C78.3991 25.8387 76.3072 27.7155 73.8012 28.8074C71.2953 29.8994 68.5081 30.1486 65.8512 29.5183ZM14.1592 49.5183C17.1413 50.5556 19.7734 52.4207 21.754 54.8998C23.9368 57.6619 26.7162 59.8832 29.8795 61.3937C33.0429 62.9042 36.5065 63.6639 40.0052 63.6147C44.7117 63.9513 49.371 62.4852 53.0554 59.5082C56.7397 56.5313 59.1788 52.2619 59.8867 47.5504C58.4923 49.9069 56.3937 51.7558 53.8929 52.8311C51.392 53.9064 48.6179 54.1526 45.9697 53.5344C42.9926 52.4669 40.3647 50.5909 38.3749 48.1127C36.1743 45.3794 33.3884 43.1859 30.2271 41.6973C27.0658 40.2086 23.6113 39.4636 20.1237 39.5183C15.4172 39.1816 10.7578 40.6478 7.0735 43.6247C3.38914 46.6017 0.950136 50.871 0.242188 55.5826C1.61125 53.1979 3.70319 51.3211 6.20916 50.2291C8.71513 49.1372 11.5023 48.888 14.1592 49.5183Z" fill="white"/>
</svg>
