<svg width="100" height="100" viewBox="0 0 100 100" fill="none" xmlns="http://www.w3.org/2000/svg">
<path d="M100 50C100 22.3858 77.6142 0 50 0C22.3858 0 0 22.3858 0 50C0 77.6142 22.3858 100 50 100C77.6142 100 100 77.6142 100 50Z" fill="#3178C6"/>
<path fill-rule="evenodd" clip-rule="evenodd" d="M54.4803 62.3875V72.165C56.0697 72.9799 57.9496 73.5908 60.1199 73.9982C62.2902 74.4057 64.5775 74.6094 66.9822 74.6094C69.3258 74.6094 71.552 74.3854 73.6611 73.9371C75.7703 73.4891 77.6197 72.7506 79.2092 71.7219C80.7986 70.6934 82.057 69.3488 82.9842 67.6887C83.9113 66.0285 84.375 63.9764 84.375 61.532C84.375 59.7598 84.1102 58.2066 83.5803 56.8725C83.0504 55.5383 82.2863 54.3518 81.2877 53.3129C80.2893 52.274 79.092 51.342 77.6961 50.517C76.3002 49.692 74.726 48.9129 72.9734 48.1797C71.6896 47.65 70.5383 47.1357 69.5193 46.6367C68.5004 46.1375 67.6344 45.6283 66.9211 45.109C66.2078 44.5895 65.6576 44.0395 65.2705 43.459C64.8834 42.8783 64.6896 42.2215 64.6896 41.4881C64.6896 40.816 64.8629 40.21 65.2094 39.6701C65.5559 39.1303 66.0449 38.667 66.6766 38.2799C67.3084 37.893 68.0826 37.5924 68.9996 37.3785C69.9168 37.1646 70.9355 37.0578 72.0564 37.0578C72.8715 37.0578 73.7324 37.1189 74.6393 37.241C75.5461 37.3633 76.458 37.5518 77.3752 37.8062C78.2922 38.0609 79.1836 38.3818 80.0498 38.7688C80.9158 39.1559 81.7156 39.6039 82.4492 40.1133V30.9773C80.9617 30.407 79.3365 29.9844 77.5738 29.7094C75.8111 29.4344 73.7885 29.2969 71.5062 29.2969C69.183 29.2969 66.9822 29.5465 64.9037 30.0455C62.8252 30.5445 60.9963 31.3236 59.4168 32.3828C57.8375 33.4422 56.5895 34.7916 55.6725 36.4314C54.7555 38.0711 54.2969 40.0316 54.2969 42.3131C54.2969 45.226 55.1375 47.7111 56.8187 49.7686C58.4998 51.8258 61.0521 53.5674 64.4758 54.9934C65.8207 55.5434 67.074 56.083 68.2355 56.6127C69.3971 57.1424 70.4008 57.6924 71.2463 58.2627C72.092 58.833 72.7594 59.4543 73.2486 60.1266C73.7377 60.7986 73.9822 61.5625 73.9822 62.4182C73.9822 63.0496 73.8293 63.6352 73.5236 64.175C73.218 64.7148 72.7543 65.1832 72.1328 65.5805C71.5113 65.9777 70.7369 66.2883 69.8098 66.5123C68.8824 66.7365 67.7975 66.8484 66.5543 66.8484C64.435 66.8484 62.3361 66.4768 60.2574 65.7332C58.1789 64.9898 56.2531 63.8746 54.4803 62.3875ZM38.043 38.2973H50.5859V30.2734H15.625V38.2973H28.1066V74.0234H38.043V38.2973Z" fill="white"/>
</svg>
