<svg width="49" height="51" viewBox="0 0 49 51" fill="none" xmlns="http://www.w3.org/2000/svg">
<ellipse cx="24.6327" cy="26.2226" rx="19.7304" ry="24.2172" fill="white"/>
<path d="M16.3893 39.4547C16.3893 39.6574 16.1621 39.8195 15.8756 39.8195C15.5496 39.8499 15.3224 39.6878 15.3224 39.4547C15.3224 39.2521 15.5496 39.09 15.8361 39.09C16.1325 39.0596 16.3893 39.2217 16.3893 39.4547ZM13.3169 38.9988C13.2478 39.2014 13.4454 39.4345 13.7417 39.4953C13.9986 39.5966 14.295 39.4953 14.3542 39.2926C14.4135 39.09 14.2258 38.8569 13.9294 38.7657C13.6726 38.6948 13.3861 38.7961 13.3169 38.9988ZM17.6835 38.8265C17.397 38.8975 17.1994 39.09 17.229 39.323C17.2587 39.5257 17.5155 39.6574 17.8119 39.5864C18.0984 39.5155 18.296 39.323 18.2663 39.1204C18.2367 38.9279 17.97 38.7961 17.6835 38.8265ZM24.1839 0C10.4817 0 0 10.6692 0 24.7225C0 35.9591 6.89557 45.5746 16.745 48.9587C18.0095 49.1918 18.454 48.3913 18.454 47.7327C18.454 47.1045 18.4244 43.6393 18.4244 41.5116C18.4244 41.5116 11.5091 43.0314 10.0569 38.4922C10.0569 38.4922 8.93064 35.5437 7.31048 34.7838C7.31048 34.7838 5.04819 33.193 7.46855 33.2234C7.46855 33.2234 9.92843 33.4261 11.2819 35.8375C13.4454 39.7486 17.071 38.6239 18.4837 37.9552C18.7109 36.334 19.353 35.2093 20.0643 34.5406C14.5419 33.9124 8.97016 33.0917 8.97016 23.3446C8.97016 20.5582 9.72097 19.16 11.3016 17.3767C11.0448 16.7181 10.205 14.0027 11.5585 10.4969C13.6232 9.83835 18.375 13.2326 18.375 13.2326C20.3508 12.6652 22.4748 12.3714 24.579 12.3714C26.6833 12.3714 28.8073 12.6652 30.7831 13.2326C30.7831 13.2326 35.5349 9.82822 37.5996 10.4969C38.953 14.0128 38.1133 16.7181 37.8565 17.3767C39.4371 19.1701 40.4052 20.5683 40.4052 23.3446C40.4052 33.1221 34.5865 33.9023 29.0641 34.5406C29.973 35.3411 30.7436 36.8609 30.7436 39.242C30.7436 42.6565 30.7139 46.8816 30.7139 47.7125C30.7139 48.371 31.1683 49.1715 32.423 48.9384C42.302 45.5746 49 35.9591 49 24.7225C49 10.6692 37.8861 0 24.1839 0ZM9.60242 34.9459C9.47399 35.0472 9.50363 35.2803 9.67157 35.4728C9.82964 35.6349 10.0569 35.7058 10.1853 35.5741C10.3137 35.4728 10.2841 35.2397 10.1161 35.0472C9.95807 34.8851 9.73085 34.8142 9.60242 34.9459ZM8.53548 34.1252C8.46633 34.2569 8.56512 34.419 8.7627 34.5204C8.92077 34.6217 9.11835 34.5913 9.1875 34.4494C9.25665 34.3177 9.15786 34.1556 8.96028 34.0543C8.7627 33.9935 8.60464 34.0239 8.53548 34.1252ZM11.7363 37.7323C11.5782 37.864 11.6375 38.1679 11.8647 38.3605C12.0919 38.5935 12.3784 38.6239 12.5069 38.4618C12.6353 38.3301 12.576 38.0261 12.3784 37.8336C12.1611 37.6005 11.8647 37.5701 11.7363 37.7323ZM10.6101 36.2428C10.452 36.3441 10.452 36.6076 10.6101 36.8406C10.7681 37.0737 11.0349 37.175 11.1633 37.0737C11.3214 36.9419 11.3214 36.6785 11.1633 36.4455C11.025 36.2124 10.7681 36.1111 10.6101 36.2428Z" fill="#201B29"/>
</svg>
