<svg width="35" height="35" viewBox="0 0 35 35" fill="none" xmlns="http://www.w3.org/2000/svg">
<path fill-rule="evenodd" clip-rule="evenodd" d="M17.5 0C7.83412 0 0 7.89628 0 17.6389C0 25.4308 5.01278 32.0432 11.9679 34.3776C12.8434 34.5367 13.1592 33.9938 13.1592 33.5269C13.1592 33.1078 13.1452 31.9972 13.1399 30.5276C8.27101 31.5922 7.24283 28.1613 7.24283 28.1613C6.44977 26.124 5.30053 25.5811 5.30053 25.5811C3.71265 24.4864 5.4216 24.5112 5.4216 24.5112C7.17967 24.635 8.10081 26.3292 8.10081 26.3292C9.66237 29.0244 12.1995 28.2462 13.1926 27.7953C13.3522 26.6546 13.8084 25.8765 14.3067 25.4361C10.4221 24.9922 6.33748 23.4784 6.33748 16.7175C6.33748 14.7951 7.02 13.2176 8.13415 11.9868C7.95694 11.5394 7.35161 9.74434 8.30785 7.31799C8.30785 7.31799 9.77642 6.84226 13.1189 9.12361C14.5464 8.73219 16.0189 8.53239 17.4982 8.5294C18.9777 8.53182 20.4502 8.73162 21.8776 9.12361C25.2218 6.84049 26.6886 7.31799 26.6886 7.31799C27.6449 9.74434 27.0448 11.5394 26.8623 11.9868C27.9853 13.2176 28.659 14.7934 28.659 16.7175C28.659 23.4961 24.5709 24.9851 20.6722 25.422C21.2951 25.9666 21.8566 27.0419 21.8566 28.6866C21.8566 31.0457 21.8355 32.9486 21.8355 33.5269C21.8355 33.9991 22.1478 34.5473 23.0409 34.374C29.9925 32.0361 35 25.429 35 17.6389C35 7.89628 27.1659 0 17.5 0Z" fill="white"/>
</svg>
