<svg width="36" height="35" viewBox="0 0 36 35" fill="none" xmlns="http://www.w3.org/2000/svg">
<path d="M18.0352 34.9561C27.7002 34.9561 35.5352 27.2539 35.5352 17.7527C35.5352 8.25154 27.7002 0.549316 18.0352 0.549316C8.37023 0.549316 0.535217 8.25154 0.535217 17.7527C0.535217 27.2539 8.37023 34.9561 18.0352 34.9561Z" fill="white"/>
<path d="M26.4495 7.78662H9.02771C8.69767 7.78662 8.38115 7.91773 8.14778 8.1511C7.9144 8.38447 7.78329 8.701 7.78329 9.03104V26.4528C7.78329 26.7829 7.9144 27.0994 8.14778 27.3328C8.38115 27.5661 8.69767 27.6973 9.02771 27.6973H26.4495C26.7796 27.6973 27.0961 27.5661 27.3294 27.3328C27.5628 27.0994 27.6939 26.7829 27.6939 26.4528V9.03104C27.6939 8.701 27.5628 8.38447 27.3294 8.1511C27.0961 7.91773 26.7796 7.78662 26.4495 7.78662ZM14.0054 24.5862H10.8943V15.2531H14.0054V24.5862ZM12.4498 14.0087C12.0807 14.0087 11.7198 13.8992 11.4128 13.6941C11.1058 13.489 10.8666 13.1975 10.7253 12.8564C10.584 12.5153 10.5471 12.14 10.6191 11.7779C10.6911 11.4158 10.8689 11.0832 11.1299 10.8222C11.391 10.5611 11.7236 10.3833 12.0857 10.3113C12.4478 10.2393 12.8231 10.2763 13.1642 10.4175C13.5053 10.5588 13.7968 10.7981 14.0019 11.105C14.207 11.412 14.3165 11.7729 14.3165 12.1421C14.3165 12.6371 14.1198 13.1119 13.7698 13.462C13.4197 13.812 12.9449 14.0087 12.4498 14.0087V14.0087ZM24.5829 24.5862H21.4719V18.3641C21.4719 17.8477 20.775 17.4308 19.9163 17.4308C18.6719 17.4308 18.3608 19.0921 18.3608 19.6086V24.5862H15.2498V15.2531H18.3608V17.4308C18.3608 15.8753 19.7546 15.2531 21.4719 15.2531C22.297 15.2531 23.0883 15.5809 23.6717 16.1643C24.2551 16.7477 24.5829 17.539 24.5829 18.3641V24.5862Z" fill="#0A0F21"/>
</svg>
