<svg width="50" height="51" viewBox="0 0 50 51" fill="none" xmlns="http://www.w3.org/2000/svg">
<ellipse cx="25" cy="25.2212" rx="25" ry="25.2212" fill="#1F1926"/>
<path d="M37.6923 9.99609H12.3077C11.0385 9.99609 10 11.0346 10 12.3038V37.6884C10 38.9576 11.0385 39.9961 12.3077 39.9961H37.6923C38.9615 39.9961 40 38.9576 40 37.6884V12.3038C40 11.0346 38.9615 9.99609 37.6923 9.99609ZM19.0185 35.3807H14.6154V21.2172H19.0185V35.3807ZM16.7823 19.4796C15.2258 19.4796 14.1862 18.3765 14.2185 17.0126C14.1862 15.5853 15.2258 14.5134 16.8146 14.5134C18.4058 14.5134 19.4119 15.5853 19.4442 17.0126C19.4454 18.3765 18.4069 19.4796 16.7823 19.4796ZM35.3846 35.3807H30.9827V27.5322C30.9827 25.7069 30.3446 24.4619 28.7512 24.4619C27.5362 24.4619 26.8115 25.3019 26.5219 26.113C26.4065 26.3738 26.3488 26.8088 26.3488 27.2126V35.3807H21.9458V25.7369C21.9458 23.9692 21.8881 22.4634 21.8304 21.2184H25.6531L25.8562 23.1592H25.9438C26.5231 22.2603 27.9712 20.8999 30.3169 20.8999C33.2131 20.8999 35.3846 22.8107 35.3846 26.9819V35.3807Z" fill="white"/>
</svg>
