<svg width="36" height="36" viewBox="0 0 36 36" fill="none" xmlns="http://www.w3.org/2000/svg">
<circle cx="17.5704" cy="18.0493" r="17.5" fill="white"/>
<path d="M27.7282 13.7445C27.7446 13.9626 27.7446 14.1796 27.7446 14.3965C27.7446 21.0359 22.6493 28.6865 13.3374 28.6865C10.4686 28.6865 7.80338 27.8623 5.56059 26.431C5.96792 26.4771 6.36015 26.4933 6.78382 26.4933C9.06306 26.4988 11.2778 25.7429 13.0709 24.3475C12.0142 24.3286 10.9898 23.9828 10.1408 23.3585C9.29174 22.7341 8.6605 21.8625 8.33516 20.8651C8.6482 20.9113 8.96249 20.9424 9.29187 20.9424C9.74571 20.9424 10.2021 20.8801 10.6257 20.7716C9.47889 20.542 8.44765 19.9254 7.70736 19.0269C6.96707 18.1283 6.56343 17.0032 6.56507 15.8429V15.7805C7.24017 16.1533 8.02339 16.3865 8.85312 16.4177C8.15801 15.9596 7.58805 15.3379 7.19408 14.6082C6.80011 13.8786 6.59438 13.0635 6.59524 12.2358C6.59524 11.3032 6.84542 10.4478 7.28417 9.70222C8.5566 11.2545 10.1436 12.5245 11.9424 13.4298C13.7412 14.3351 15.7117 14.8556 17.7262 14.9576C17.6483 14.5836 17.6005 14.1958 17.6005 13.8068C17.6002 13.1472 17.7309 12.4939 17.9853 11.8845C18.2397 11.275 18.6126 10.7212 19.0829 10.2548C19.5532 9.78837 20.1116 9.41845 20.7261 9.16617C21.3406 8.9139 21.9993 8.78422 22.6644 8.78455C24.1227 8.78455 25.4389 9.39051 26.3642 10.3705C27.4979 10.1531 28.5851 9.74264 29.5775 9.15735C29.1997 10.3179 28.4081 11.302 27.3511 11.9253C28.3566 11.8116 29.3392 11.5493 30.2665 11.1473C29.5739 12.1486 28.7158 13.0267 27.7282 13.7445V13.7445Z" fill="#0A0F21"/>
</svg>
