<svg width="50" height="51" viewBox="0 0 50 51" fill="none" xmlns="http://www.w3.org/2000/svg">
<ellipse cx="25" cy="25.23" rx="25" ry="25.2212" fill="#1F1926"/>
<path d="M12.0482 13.4607C12.0482 13.4607 16.6705 20.1213 25.1778 20.5905C25.1778 20.5905 24.0198 15.7375 28.2856 13.0569C32.5514 10.3763 36.102 14.2767 36.102 14.2767C36.102 14.2767 38.2908 13.8847 40.1719 12.6804C40.1719 12.6804 39.5408 15.1187 37.435 16.4442C37.435 16.4442 39.708 16.0974 41 15.4204C41 15.4204 39.7091 17.6485 37.8989 18.898C37.8989 18.898 38.685 32.9437 26.1665 38.1233C17.4854 41.7149 10 36.3168 10 36.3168C10 36.3168 14.3223 37.28 19.2624 33.4865C19.2624 33.4865 15.3054 33.6967 13.3402 28.6395C13.3402 28.6395 14.6876 29.0314 16.2033 28.5492C16.2033 28.5492 11.4315 27.8271 11.1514 21.7746C11.1514 21.7746 12.8631 22.6179 13.9304 22.587C13.9292 22.587 9.40989 19.1177 12.0482 13.4607Z" fill="white"/>
</svg>
